<svg viewBox="0 0 353 353" xmlns="http://www.w3.org/2000/svg" fill-rule="evenodd" clip-rule="evenodd" stroke-linejoin="round" stroke-miterlimit="1.414"><path d="M243.22 176.5L343.29 76.43c12.28-12.28 12.28-32.19 0-44.48L321.05 9.71c-12.28-12.28-32.19-12.28-44.48 0L176.5 109.78 76.43 9.71c-12.28-12.28-32.19-12.28-44.48 0L9.71 31.95c-12.28 12.28-12.28 32.19 0 44.48L109.78 176.5 9.71 276.57c-12.28 12.28-12.28 32.19 0 44.48l22.24 22.24c12.28 12.28 32.2 12.28 44.48 0L176.5 243.22l100.07 100.07c12.28 12.28 32.2 12.28 44.48 0l22.24-22.24c12.28-12.28 12.28-32.19 0-44.48L243.22 176.5z" fill="#ff9d00" fill-rule="nonzero" stroke="#000"/></svg>