<svg viewBox="0 0 63 71" xmlns="http://www.w3.org/2000/svg" fill-rule="evenodd" clip-rule="evenodd" stroke-linejoin="round" stroke-miterlimit="1.414"><g fill-rule="nonzero"><path d="M0 0l5.9 64 25.6 6.9L57.1 64 63 0H0z" fill="#1758a7"/><path d="M31.5 5.2v60.2h.1l20.7-5.6 4.8-54.6H31.5z" fill="#379ad6"/><path d="M31.4 49l-8.5-2.2-.6-6.3h-7.9l1 12.2 16.1 4.8V49h-.1z" fill="#e8e8e7"/><path d="M31.5 28.7v7.7H41l-.6 10.1-8.9 2.5v8.5l16.1-4.7 2.1-24.1H31.5z" fill="#fbfbfa"/><path d="M13.3 28.7l.6 7.7h17.6v-7.7H13.3z" fill="#e5e4e2"/><path d="M13.3 28.7h18.2V21l-18.2 7.7z" fill="#eee"/><path d="M32.6 20.6l-1.1.5v7.6l18.8-8.1H32.6z" fill="#fff"/><path d="M11.6 12.9l.9 7.7h19v-7.7H11.6z" fill="#e7e7e6"/><path d="M31.5 20.6h18.8l.8-7.7-19.6 7.7zm0 0L51 12.9H31.5v7.7z" fill="#f8f8f7"/></g></svg>