<svg viewBox="0 0 255 206" xmlns="http://www.w3.org/2000/svg" fill-rule="evenodd" clip-rule="evenodd" stroke-linejoin="round" stroke-miterlimit="1.414"><path d="M179.675 155.373c-.794-.6-.674-2.613 1.986-8.866 1.028-2.443 3.412-6.555 7.536-10.494.477 1.625.756 3.169.756 4.625-.041 9.639-6.429 13.235-10.278 14.735m-33.967 8.353c-1.069.601-2.062.985-2.536.686-.357-.214.436-1.028.436-1.028s5.513-6.382 7.695-9.297a365.026 365.026 0 0 0 4.326-5.954c0 .216.041.43.041.685-.041 7.668-6.866 12.852-9.962 14.908m-44.042-22.702c-2.539 6.722-7.896 23.859-11.148 22.957-2.779-.77-4.484-13.833-.556-26.685 1.983-6.467 6.189-14.179 8.69-17.178 4.007-4.839 8.409-6.383 9.443-4.455 1.388 2.527-4.842 21.161-6.429 25.361m-53.327 39.151c-7.302 8.611-17.539 11.865-21.944 9.124-4.721-2.955-2.855-15.635 6.151-24.802 5.477-5.568 12.539-10.708 17.219-13.881 1.072-.682 2.622-1.71 4.526-2.952.316-.217.477-.302.477-.302.357-.257.753-.471 1.148-.726 3.295 13.019.12 24.501-7.577 33.539M218.68 118.19c-8.89.044-16.587 2.358-23.013 5.785-2.343-5.096-4.762-9.551-5.161-12.896-.474-3.896-.993-6.209-.433-10.837.553-4.625 3.055-11.18 3.014-11.651-.041-.469-.554-2.827-5.674-2.868-5.117-.044-9.522 1.069-10.037 2.528-.519 1.455-1.511 4.753-2.106 8.18-.911 5.012-10.237 22.916-15.515 32.257-1.742-3.641-3.21-6.857-3.529-9.426-.477-3.898-.993-6.212-.436-10.837.553-4.627 3.055-11.179 3.014-11.651-.041-.472-.554-2.829-5.674-2.87-5.12-.041-9.522 1.069-10.037 2.527-.519 1.456-1.072 4.883-2.103 8.181-1.034 3.298-13.453 33.114-16.707 40.867-1.666 3.94-3.093 7.109-4.127 9.253-1.031 2.141-.079.126-.158.383a160.99 160.99 0 0 1-1.388 2.871v.044c-.677 1.37-1.429 2.612-1.784 2.612-.24 0-.756-3.599.117-8.523 1.866-10.368 6.271-26.475 6.23-27.031-.041-.299.832-3.084-2.897-4.584-3.611-1.415-4.92.943-5.237.943-.319 0-.556.856-.556.856s4.007-18.163-7.697-18.163c-7.302 0-17.46 8.652-22.459 16.493-3.134 1.842-9.918 5.826-17.061 10.067-2.739 1.628-5.557 3.298-8.216 4.882-.196-.214-.354-.427-.554-.641-14.205-16.364-40.433-27.93-39.32-49.906.395-8.011 2.975-29.041 50.43-54.572 38.884-20.904 69.993-15.163 75.35-2.399 7.697 18.206-16.625 52.088-57.018 56.971-15.394 1.842-23.49-4.584-25.514-6.98-2.103-2.528-2.419-2.656-3.213-2.185-1.309.77-.477 2.996 0 4.326 1.189 3.383 6.151 9.382 14.601 12.381 7.422 2.612 25.473 4.068 47.296-5.056 24.524-10.195 43.609-38.594 38.012-62.368C153.408.992 116.308-6.934 81.193 6.519 60.28 14.53 37.666 27.121 21.396 43.529 2.074 63.062-1.022 80.067.249 87.179c4.522 25.23 36.74 41.678 49.636 53.845-.635.384-1.23.727-1.783 1.069-6.47 3.471-31.032 17.348-37.18 31.999-6.945 16.622 1.151 28.528 6.467 30.156 16.586 4.971 33.568-3.983 42.695-18.675 9.126-14.694 8.013-33.885 3.808-42.622-.039-.128-.118-.213-.159-.342 1.667-1.072 3.375-2.141 5.079-3.213 3.292-2.1 6.508-4.028 9.326-5.697-1.588 4.625-2.739 10.196-3.333 18.247-.715 9.423 2.896 21.633 7.577 26.431 2.065 2.097 4.563 2.141 6.113 2.141 5.474 0 7.934-4.886 10.673-10.708 3.374-7.112 6.347-15.38 6.347-15.38s-3.729 22.359 6.47 22.359c3.728 0 7.46-5.181 9.123-7.837v.044s.082-.173.278-.516c.399-.641.595-1.028.595-1.028v-.126c1.508-2.785 4.801-9.168 9.762-19.706 6.429-13.622 12.58-30.628 12.58-30.628s.553 4.154 2.46 11.051c1.107 4.071 3.45 8.526 5.316 12.852a226.544 226.544 0 0 1-2.419 3.512s0 .044.035.085a131.555 131.555 0 0 1-3.925 5.354c-5.081 6.511-11.109 13.965-11.906 16.106-.952 2.528-.712 4.414 1.113 5.87 1.35 1.113 3.732 1.286 6.23 1.069 4.563-.34 7.776-1.541 9.326-2.311a31.96 31.96 0 0 0 8.013-4.54c4.959-3.942 7.976-9.595 7.698-17.049-.159-4.112-1.389-8.225-2.894-12.079.433-.688.911-1.415 1.347-2.144 7.855-12.378 13.924-25.956 13.924-25.956s.56 4.153 2.463 11.051c.949 3.47 2.815 7.281 4.523 11.007-7.378 6.47-11.944 13.965-13.532 18.891-2.935 9.124-.633 13.236 3.693 14.179 1.942.428 4.719-.556 6.784-1.499 2.58-.944 5.676-2.44 8.57-4.754 4.959-3.942 9.762-9.466 9.446-16.964-.12-3.383-.993-6.766-2.144-10.023 6.23-2.827 14.325-4.37 24.638-3.084 22.102 2.785 26.428 17.69 25.596 23.903-.835 6.253-5.477 9.68-7.024 10.708-1.546 1.028-2.024 1.414-1.904 2.185.197 1.113.911 1.072 2.223.814 1.825-.343 11.584-5.055 12.021-16.578.635-14.565-12.34-30.584-35.314-30.458" fill="#ff74de" fill-rule="nonzero"/></svg>