<svg id="Layer_1" version="1.1" viewBox="0 0 24 24" xml:space="preserve" xmlns="http://www.w3.org/2000/svg"><path fill="#004793" d="M14.79 2.5H13.5l-.335-.5H12.5L1.491 20.5l.5.5h.501l.5 1H12.8l6.68-11.348z"/><path fill="#003F7F" d="M1.501 20.5L0 18l2.502-4 2.502-1.5 3.503-6-1-1.5 2-3h3.003z"/><path fill="#006A6F" d="M18.53 9l-3.74-6.5H13.5l-.335-.5H12.5L8.335 9z"/><path fill="#004A52" d="M7.047 9h1.298l4.165-7H9.508L7.506 5l1 1.5z"/><path fill="#001054" d="M24 18.505l-4.52-7.853L12.8 22h9.208z"/><radialGradient cx="11.847" cy="14.167" gradientTransform="matrix(1.00081 0 0 1 -.107 0)" gradientUnits="userSpaceOnUse" id="SVGID_1_" r="11.567"><stop offset="0" stop-color="#1bffb9"/><stop offset=".067" stop-color="#20e9c3"/><stop offset=".214" stop-color="#28c0d5"/><stop offset=".364" stop-color="#2f9ee4"/><stop offset=".516" stop-color="#3583f0"/><stop offset=".671" stop-color="#3970f8"/><stop offset=".83" stop-color="#3b65fd"/><stop offset="1" stop-color="#3c61ff"/></radialGradient><path fill="url(#SVGID_1_)" d="M13.501 3.5l-10.008 17H12.5l-3.502-6 5.504-9z"/><radialGradient cx="9.68" cy="14.75" gradientTransform="matrix(1.00081 0 0 1 -.107 0)" gradientUnits="userSpaceOnUse" id="SVGID_2_" r="30.572"><stop offset="0" stop-color="#1bffb9"/><stop offset=".067" stop-color="#20e9c3"/><stop offset=".214" stop-color="#28c0d5"/><stop offset=".364" stop-color="#2f9ee4"/><stop offset=".516" stop-color="#3583f0"/><stop offset=".671" stop-color="#3970f8"/><stop offset=".83" stop-color="#3b65fd"/><stop offset="1" stop-color="#3c61ff"/></radialGradient><path d="M11.195 11.745l-1.23 1.995a.5.5 0 0 0 .427.762h2.643l-1.84-2.757z" fill="url(#SVGID_2_)"/><radialGradient cx="9.68" cy="14.75" gradientTransform="matrix(1.00081 0 0 1 -.107 0)" gradientUnits="userSpaceOnUse" id="SVGID_3_" r="30.572"><stop offset="0" stop-color="#1bffb9"/><stop offset=".067" stop-color="#20e9c3"/><stop offset=".214" stop-color="#28c0d5"/><stop offset=".364" stop-color="#2f9ee4"/><stop offset=".516" stop-color="#3583f0"/><stop offset=".671" stop-color="#3970f8"/><stop offset=".83" stop-color="#3b65fd"/><stop offset="1" stop-color="#3c61ff"/></radialGradient><path fill="url(#SVGID_3_)" d="M13.636 14.501l6.37-.001-5.149-8.697-3.373 5.473z"/><path fill="#00225C" d="M2.492 21l.5 1H12.8l.589-1z"/><radialGradient cx="11.847" cy="14.167" gradientTransform="matrix(1.00081 0 0 1 -.107 0)" gradientUnits="userSpaceOnUse" id="SVGID_4_" r="11.567"><stop offset="0" stop-color="#1bffb9"/><stop offset=".067" stop-color="#20e9c3"/><stop offset=".214" stop-color="#28c0d5"/><stop offset=".364" stop-color="#2f9ee4"/><stop offset=".516" stop-color="#3583f0"/><stop offset=".671" stop-color="#3970f8"/><stop offset=".83" stop-color="#3b65fd"/><stop offset="1" stop-color="#3c61ff"/></radialGradient><path fill="url(#SVGID_4_)" d="M22.332 18.5H12l-2.002-3.52 10.276.024z"/><path fill="#000B3D" d="M13.389 21l-.59 1h9.21l.569-1z"/><linearGradient gradientUnits="userSpaceOnUse" id="SVGID_5_" x1="3.791" x2="23.698" y1="9.869" y2="19.152"><stop offset="0" stop-color="#fff" stop-opacity=".2"/><stop offset="1" stop-color="#fff" stop-opacity="0"/></linearGradient><path fill="url(#SVGID_5_)" d="M14.794 2.5h-1.289L13.17 2H9.504L7.503 5l1 1.5-3.501 6L2.501 14 0 18l1.5 2.5.5.5h.501l.5 1H22.01L24 18.505z"/></svg>