<svg viewBox="0 0 283 354" xmlns="http://www.w3.org/2000/svg" fill-rule="evenodd" clip-rule="evenodd" stroke-linejoin="round" stroke-miterlimit="1.414"><path fill="#ebebeb" d="M0 0h282.007v353.46H0z"/><clipPath id="_clip1"><path d="M10.49 12.766h256v329h-256z"/></clipPath><g fill-rule="nonzero" clip-path="url(#_clip1)"><path d="M86.991 216.117c-9.749-7.67-20.153-15.021-27.261-25.378-14.96-18.263-26.476-39.404-34.348-61.625-4.761-14.45-6.39-29.941-12.53-43.83-6.415-10.091 1.105-21.114 12.156-24.32 4.917-.947 13.568-5.589 3.126-2.268-9.365 6.867-10.267-6.239-.667-7.069 6.552-.869 8.965-6.231 6.721-11.057-7.035-4.59 17.055-9.625 4.932-16.472-12.62-13.621 17.661-16.243 10.188-.772-1.786 11.896 21.166-2.184 15.836 11.554 5.415 6.599 20.272 1.505 19.899 10.757 7.886.543 10.593 7.173 17.989 7.684 7.676 3.465 21.579 6.192 24.187 14.836-7.61 6.024-25.227-12.442-26.077 4.232 2.301 24.638 1.714 50.018 10.725 73.479 4.262 14.204 14.6 25.384 23.931 36.449 8.933 10.834 21.031 18.466 33.363 24.888 10.816 5.1 22.475 8.48 34.265 10.606 4.779-3.656 13.221-17.251 20.676-11.522.359 6.448-14.797 13.47-.712 12.757 8.278-2.497 14.013 6.395 20.826-1.628 6.278 7.435 26.091-4.748 21.625 10.45-6.042 3.897-14.85 1.542-20.898 6.906-9.972-4.984-17.912 4.452-28.955 3.262-12.261 2.196-24.739 3.08-37.168 3.099-20.396-1.609-41.222-2.289-60.624-9.39-10.933-3.177-21.598-9.403-31.205-15.628zm17.224 7.468c10.672 4.61 21.109 9.474 32.807 10.946 18.558 2.576 37.723 6.552 56.347 2.929-8.429-3.805-17.145 1.478-25.542-2.72-10.069 2.165-20.878-.556-31.12-1.897-11.639-5.184-24.206-8.748-35.107-15.484-13.628-4.975 7.043 6.383 10.724 7.305 8.514 4.831-9.364-2.479-11.889-4.486-7.133-4.003-8.042-3.166-.705.896 1.477.863 2.937 1.772 4.485 2.511zm-20.311-14.353c10.346 3.831-.045-7.272-4.779-6.631-2.099-3.643-8.023-5.944-3.845-7.9-7.513 2.61-7.873-9.92-11.403-8.127-7.952-2.511-3.094-11.405-12.569-16.87-.863-5.756-9.409-10.744-12.129-19.422-1.204-4.446-9.659-17.204-4.467-5.33 4.42 11.43 12.196 21.226 18.669 31.002 5.022 9.311 10.959 19.049 20.108 24.856 3.087 2.961 6.061 7.493 10.415 8.422zm-29.79-32.715c.358-1.564 1.89 3.38 0 0zm42.183 37.305c2.288-1.026-3.296-1.294 0 0zm5.61 2.047c-.581-2.826-2.563 1.582 0 0zm7.03 2.93c3.342-3.186-5.159-2.009 0 0zm12.045 6.714c2.034-3.001-6.507-1.13 0 0zm-23.128-16.124c5.191-3.361-6.716-.047 0 0zm5.27 2.628c-.151-1.773-1.877.797 0 0zm26.345 16.446c4.237 2.675 24.738 5.859 11.902 1.098-2.153.452-23.802-6.127-11.902-1.098zm-41.823-32.578c-.412-1.778-6.579-1.969 0 0zm12.26 7.155c3.198-2.23-6.624-1.721 0 0zm10.319 6.322c4.583-1.726-7.428-1.732 0 0zm-27.576-18.911c4.97 3.812 20.049.491 7.612-2.275-5.657-3.015-18.408-5.08-9.716 1.818l2.104.457zm34.566 21.096c2.073-3.526-8.684-2.016 0 0zm-10.502-8.345c12.15 3.433-10.22-7.69-3-1.269l1.602.727 1.398.542zm21.057 12.17c11.509.11-10.397-1.589 0 0zm-49.547-31.578c-.452-2.145-2.837.177 0 0zm69.014 42.497c.306-3.87-3.755 2.885 0 0zM97.866 195.82c-.7-2.041-3.596-.086 0 0zm-18.552-13.372c6.606-.399-9.049-2.91 0 0zm-21.978-14.204c-.823-3.171-7.186-5.695 0 0zm57.695 36.614c-1.209-1.381-.569.299 0 0zm35.905 22.036c-.11-2.113-1.955.797 0 0zm-39.083-25.319c.648-2.72-5.636-.825 0 0zm-26.752-16.956c4.919-.524-7.879-3.323 0 0zm45.252 28.118c7.663-3.035-7.468-1.478 0 0zm-23.535-15.975c8.827 1.137-10.508-6.01-1.942-.641l1.942.641zm30.681 18.864c8.246-4.923 5.526 11.543 13.988 1.393 8.343-6.093-7.207 7.533 3.073 1.087 7.441-4.977 18.426 2.36 25.365 4.747 4.988-.243 9.841 4.316 14.96 1.542 9.848-2.655-19.262-3.936-11.632-8.638-9.011 2.623-15.667-3.125-20.102-8.899-10.109-2.335-21.793-7.501-26.842-16.452-2.059-3.355 2.97.477-1.778-5.015-6.088-5.416-9.128-11.569-13.216-18.153-4.885-2.603-5.461-10.273-5.951-.255.04-6.324-5.898-10.581-7.349-8.815-.027-6.088 6.356-3.035 1.89-7.539-.961-6.311-4.126-12.889-5.076-20.016-1.476-3.434-.209-10.789-5.047-3.015-1.759 8.219-.582-10.096 2.158-4.061 3.596-6.159-1.296-5.434-1.491-4.584 2.341-5.198 1.484-12.575-.615-9.763 1.249-5.512 1.976-20.283-1.863-17.662 2.327-5.767 4.414-26.379-5.697-18.518-4.092.059-11.187 1.485-14.535 3.153 10.508 5.793-1.059 2.092-5.343 1.17-.556 5.361-4.793 3.046-10.089 3.098 8.462 1.046-4.12 8.651-8.965 5.697-6.304 3.008 5.434 10.528.124 12.854.655 3.499-9.652-1.267-8.847 6.829-6.115-2.578-.837 9.598 2.223 5.479 10.404 2.819 7.324 9.233 7.585 15.333-1.694 3.551-8.37-8.349-1.485-7.8-5.434-8.822-6.008-3.191-10.521.909-1.046.294 11.509 5.832 3.629 8.565 6.932 1.073 7.135 7.142 8.548 10.98 4.165 4.341 3.308-4.794 8.298.425-3.159-4.65-16.715-13.099-5.801-10.39-.058-4.676-1.975-8.449 1.373-8.358 3.316-5.997-3.472 14.791 3.996 7.168 2.066-.903 2.583-6.003 6.298.483 5.393 5.31 1.948 9.154-5.664 4.289 1.36 4.624 10.182 6.271 8.521 13.498 1.758 6.356 4.217 4.014 6.361 3.647 1.681 6.174 2.637 1.636 2.715-1.307 7.696 1.649 5.891 6.199 8.303 9.378 5.304 2.392-7.591-16.225 1.512-5.598 9.579 8.651 3.596 12.26-5.002 10.874 5.441-.439 7.192 7.357 14 7.083 6.205 2.954 10.41 14.294-.288 9.572-3.708-3.348-16.846-7.475-6.114-1.112 9.9 4.59 17.773 7.33 27.327 13.092 6.833 4.878 9.788 10.468 12.377 11.574-5.747 2.746-17.314-2.191-8.723-3.701-5.362-.974-11.39-3.688-6.257 2.988 4.367 3.65 15.464 3.263 17.459 3.675-1.687 3.714-4.583 4.009.066 4.297-5.186 2.765 1.667 3.197 2.144 4.772zm-10.606-29.954c-3.159-3.303-3.976-9.482-.563-4.108 1.753.706 5.605 10.104.563 4.108zm34.546 21.944c1.969-.13.058 1.497 0 0zm-39.528-30.04c-.126-4.99 1.136 3.851 0 0zm-3.434-4.616c-3.975-7.671 5.002 2.171 0 0zm-41.615-28.719c2.335-.623 1.152 3.987 0 0zm33.122 17.948c1.431-5.382 1.68 4.513 0 0zM86.586 145.92c-1.647-2.968 3.447 2.787 0 0zm20.075 6.434c-3.76-8.421 2.668-4.603.837 1.38l-.837-1.38zm-34.623-23.089c-1.681-2.765-4.46-10.874-3.564-13.352.803 4.035 8.572 17.355 3.805 5.519-5.263-9.92 6.297 3.216 7.487 5.695.556 2.459-3.251-.673-.674 5.101-4.701-6.572-2.772 3.629-7.054-2.963zm-10.699-7.376c.439-6.428 2.446 4.408 0 0zm4.813 1.661c2.295-4.851 3.89 6.761 0 0zm-11.581-8.958c-3.982-3.964-6.867-7.611.189-2.459 2.714.104-6.041-8.298.655-2.668 7.036 1.282 3.472 11.542-.844 5.127zm6.082-.157c2.315-2.295 1.228 2.257 0 0zm3.746 1.197c-3.512-6.572 4.257 2.759 0 0zm-7.441-7.108c-11.581-10.313 14.549 5.387 1.89 1.909l-1.89-1.909zM90.143 127.8c-5.015-3.001-1.334-21.152.38-8.741 4.872-1.577-.269 6.414 3.36 6.336-.567 5.04-2.196 6.853-3.74 2.405zm12.274 7.259c.491-5.473 1.033 3.741 0 0zm-2.131-2.113c.549-2.333.052 2.754 0 0zm-41.06-27.81c-7.44-10.267 21.625 10.384 4.768 2.603-1.759-.464-3.884-.628-4.768-2.603zm23.639 12.53c-.705-8.645 1.57 1.431 0 0zm17.943 11.514c1.387-4.924.106 3.257 0 0zm-40.437-27.961c4.421-.948 18.322 7.762 5.558 2.486-1.418-1.57-4.446-.857-5.558-2.486zm37.972 18.924c.472-8.84 2.643-5.276.02 1.269l-.02-1.269zM63.661 98.14c1.804-2.643-4.788-11.947.947-3.336 2.48 1.969 7.173 3.296 3.029 4.127 6.518 5.748-1.589 1.556-3.976-.791zm32.805 19.245c1.244-10.071 1.1 5.897 0 0zM59.894 88.841c1.38-.589.732 1.837 0 0zm8.559 5.094c2.203-4.623 4.062 5.153 0 0zm24.136 13.424c-.02-1.771.457 2.583 0 0zm-1.399-3.092c-3.348-8.266 3.118 4.374 0 0zm-2.054-5.422c-.561-3.413 1.91 4.291 0 0zm3.348-5.44c-2.302-4.048 2.904-17.852 3.487-9.291-2.428 6.669-.7 10.397.986 1.451 3.127-7.035-.673 13.896-4.473 7.84zm3.44-20.525c1.001-1.231.222 1.483 0 0zm-5.747 113.21c-1.361-1.19.176.752 0 0zm11.835 5.983c6.584 1.694 6.552-1.021.601-1.831-3.197-2.975-13.3-6.134-4.257-.367.596 1.519 2.486 1.478 3.656 2.198zm-23.371-15.524c3.623 2.708 13.66 7.663 5.166 1.034 2.865-3.329-5.48-5.1-2.713-7.33-7.043-4.311-5.56-3.924-.621-3.787-8.462-3.786 1.222-3.498.765-5.44-3.263-.641-16.211-5.755-8.593.418-7.742-3.944-1.845 1.472-4.185.902-7.919-2.157 7.049 6.03-1.255 3.996 4.538 3.596 12.222 9.221 1.915 3.805-1.353 1.956 7.377 4.918 9.521 6.402zm12.378 7.114c15.047 4.846-7.382-5.931 0 0zm63.364 38.385c.196-2.988-2.054 2.549 0 0zm6.514 2.74c3.471-3.361.143 5.362 5.753-.823.059-4.428-.169-7.043-6.447-1.663-1.734.963-2.504 5.036.694 2.486zM57.514 159.862c-1.066-4.191-7.474-4.173 0 0zm6.95 4.557c-2.583-4.282-9.213-3.877 0 0zm39.569 23.861c3.865 3.433 17.741 2.518 4.688.425-1.93-2.857-12.267-2.171-4.688-.425zm54.384 33.592c5.945-4.99-5.76 2.223 0 0zm12.366 8.494c.039-1.602-2.563.7 0 0zm.02-2.243c6.584-6.971-6.376.412 0 0zM40.407 145.541c-5.609-8.003-3.485-11.601-8.899-18.139-1.027-5.002-9.285-16.342-4.27-4.329 4.59 7.029 5.951 17.91 13.169 22.468zm128.329 80.365c12.118-7.827-4.969-3.406 0 0zm9.247 3.623c6.068-5.206-3.838-1.087 0 0zm-122.53-78.515c1.735-2.583-4.484-.334 0 0zm120.6 76.042c5.872-3.784-1.353-3.204-1.065.347l1.065-.347zm-79.697-50.233c-.203-2.563-3.106.216 0 0zm4.923 2.833c-1.569-3.166-2.406.497 0 0zm84.197 49.958c7.526-5.428-4.557-1.041-1.575 1.033l1.575-1.033zm-2.883-1.392c6.134-5.135-6.468 2.274 0 0zm14.725 9.801c4.114-2.754-5.002-.889 0 0zM59.226 149.15c5.513 1.236 22.044 13.581 12.294.857-4.995-1.478-2-13.686-7.094-11.528 3.42 5.715 2.811 8.14-4.369 4.545-9.016-4.408-5.067 2.177-3.301 3.995-2.408.549 3.177 2.086 2.47 2.131zm-25.128-19.845c.986-4.088-9.096-22.468-4.761-9.213 1.562 2.778 1.4 8.041 4.761 9.213zm46.125 28.438c-2.844-2.374-.137-.34 0 0zm6.991 1.629c0-4.329-7.729-1.76 0 0zm60.617 38.207c-1.157-2.956-4.57-.065 0 0zm2.909 2.124c-.432-1.654-1.68.322 0 0zm24.026 15.138c2.308-1.706-2.885-.221 0 0zm-128.12-82.332c6.611-2.558-7.082-1.824 0 0zm95.848 60.381c-.077-4.277-4.217 1.067 0 0zm-98.457-66.469c4.243-1.431-3.931-.941 0 0zm12.319 5.969c-.072-1.404-1.301.538 0 0zm150.301 92.169c5.459-1.105 17.903 2.779 19.91-1.445-6.63-.164-22.932-4.682-23.703 1.072l1.451.229 2.342.144zM60.273 133.378c.098-4.336-3.38-.162 0 0zm-32.394-22.473c-1.471-8.26-5.598-1.251 0 0zm7.722 1.941c.099-2.655-7.069-2.387 0 0zm4.415 2.172c-1.276-1.035-.995 1.3 0 0zm27.783 17.818c1.309-1.204-3.099-.889 0 0zm-30.72-22.71c-.751-6.239-8.952-.936 0 0zm-15.844-10.28c-.223-2.877-1.543 1.085 0 0zm2.36-1.778c-.385-3.415-2.027.431 0 0zm13.014 7.768c5.506-2.158-10.025-4.473-1.125-.405l1.125.405zm174.226 107.619c3.524-3.229-4.473-.999 0 0zm21.049 10.908c1.413-4.172-3.557.549 0 0zM37.942 99.016c.582-4.041-4.368.803 0 0zM19.417 86.605c-.994-5.702-.857-15.714 8.658-12.332-12.699 2.524 8.795 15.79 6.082 5.315 5.341.262 10.449-3.158 7.643 2.027 10.528-1.157 17.82-10.285 27.988-9.003 7.918-1.053 16.576-1.845 25.11-5.035 7.015-.504 13.77-8.057 9.926-12.537-9.566-.81-19.585.387-30.158 2.493-11.718 2.432-22.363 7.061-34.187 9.049-11.528 1.55 2.316 4.264-.987 4.872-6.01 2.085 7.173 3.492-.779 5.695-4.91-.935-10.024-2.622-7.924-7.801-11.039 1.439-20.743 6.016-12.02 17.25l.648.007zm26.608-13.549c2.583-9.534 13.863 7.847 4.237 1.268-1.145-.863-3.041-1.563-4.237-1.268zm.503-4.624c3.734-2.779 1.982 1.564 0 0zm4.74.079c.342-4.388 10.863 2.322 1.735 1.577l-1.735-1.577zm6.487-2.608c2.374-2.774.688 2.457 0 0zm1.662-1.112c3.949-4.741 22.343-3.028 8.879-.465-3.609-2.721-6.374 1.602-8.879.465zm24.01-3.701c-.594-12.955 11.934 4.597 0 0zm6.815-.04c2.491-6.526 9.671-2.622 1.157-1.314.182.699-.255 3.374-1.157 1.314zM35.255 95.668c7.441-4.558-7.9-3.956 0 0zm5.506 1.523c2.609-2.772-5.677-1.125 0 0zM24.545 85.689c4.25-3.269-5.036-1.242 0 0zm219.763 137.484c.124-3.794-3.251 1.706 0 0zm-22.331-15.244c.635-4.36-2.871.38 0 0zm28.472 16.715c5.944.02 18.013-1.851 5.08-1.845-2.034.315-11.828.25-5.08 1.845zM45.6 94.516c4.813-.326 7.526-5.303-.936-5.022-13.11-1.352 11.568 4.493-1.68 2.819-1.778 1.177 2.511 2.531 2.616 2.203zm4.237 2.146c-.504-3.087-1.492 1.641 0 0zm5.029-13.405c2.085-2.59-2.891-.693 0 0zM38.857 56.505c8.593-2.916 20.338-6.199 24.392 1.439-4.126-4.963-1.667-9.854 2.23-2.589 5.512 7.344 8.271-3.342 4.687-5.807 4.088 5.074 8.73 7.474 2.734.321 6.52-7.841-13.046 1.026-17.492.934-2.138.961-22.088 5.087-16.551 5.702zm5.036-9.637c4.898-3.695 16.942 2.203 9.213-3.676-.758-.667-16.922 4.459-9.213 3.676zm17.858.738c5.728.144-2.471-7.704 4.356-4.147-1.119-3.661-7.952-4.347-11.293-5.812-1.89 3.348 3.843 10.004 6.937 9.959zM47.025 31.395c1.982-2.687-3.479 1.368 0 0zm7.298 1.746c9.239-1.222-2.355-3.976-1.865-.097l1.865.097zM40.695 22.483c-6.507-8.494 12.236 1.426 5.623-7.468-5.564-4.426-10.906 4.99-5.623 7.468zm83.471 44.956c2.983-5.284-12.313-7.128-2.007-1.871.947.315.733 2.236 2.007 1.871zM63.598 264.26c-.659 2.607-1.069 6.979-1.222 13.117 0 1.207-.543 1.81-1.631 1.81-1.09 0-1.847-.527-2.276-1.576-1.166-2.837-2.271-4.817-3.324-5.947-1.243-1.319-2.895-2.117-4.956-2.389-2.214-.351-7.732-.525-16.555-.525-2.02 0-3.343.214-3.963.644-.389.27-.582.854-.582 1.748v26.41c0 .894.562 1.319 1.687 1.283 3.462-.041 8.474-.276 15.041-.701 1.283-.158 2.149-.574 2.595-1.255.45-.68.887-2.437 1.312-5.276.271-1.554 1.186-2.157 2.74-1.805 1.321.271 1.888.875 1.693 1.805-1.089 5.288-1.442 12.167-1.053 20.64.041 1.008-.599 1.555-1.923 1.632-1.089.118-1.769-.466-2.04-1.749-1.008-4.858-2.887-7.453-5.624-7.786-2.74-.327-7.202-.493-13.381-.493-.699 0-1.047.251-1.047.756v26.236c0 1.943.716 3.267 2.153 3.963 1.13.584 3.558 1.109 7.288 1.575 1.907.194 2.74 1.033 2.51 2.507-.235 1.283-1.944 1.788-5.134 1.517-9.211-.74-16.81-.7-22.793.118-1.673.23-2.506-.45-2.506-2.041 0-1.012.833-1.595 2.506-1.749 3.809-.429 5.712-3.773 5.712-10.028v-49.907c0-2.562-.457-4.535-1.368-5.915-.915-1.381-2.616-2.636-5.102-3.761-1.554-.7-2.137-1.651-1.748-2.858.194-.737.506-1.146.931-1.223.388-.117 1.421-.04 3.088.234 2.45.389 8.223.584 17.316.584 10.729 0 19.996-.235 27.811-.701 2.602-.157 3.906.057 3.906.64 0 .158-.02.312-.061.466zm37.807 74.008c0 1.554-.874 2.234-2.623 2.04-5.36-.506-12.008-.43-19.936.231-1.595.157-2.574.117-2.946-.113-.369-.236-.552-.875-.552-1.928 0-.931 1.058-1.716 3.175-2.36 2.122-.64 3.178-2.555 3.178-5.741v-52.761c0-3.149-.457-5.462-1.368-6.94-.916-1.477-2.519-2.623-4.81-3.437-1.207-.429-1.81-1.032-1.81-1.809 0-1.166.875-2.041 2.623-2.623 2.644-.855 5.385-2.175 8.223-3.965 2.332-1.4 3.81-2.096 4.429-2.096 1.437 0 2.159.987 2.159 2.971 0-.153-.078 1.79-.235 5.83-.113 3.846-.154 7.635-.113 11.369l.23 52.06c0 2.372.583 4.094 1.749 5.162 1.166 1.069 3.17 1.778 6.004 2.126 1.749.194 2.623.854 2.623 1.984zm52.729-3.438c0 .818-1.486 2.049-4.458 3.7-2.975 1.652-5.356 2.478-7.142 2.478-1.518 0-2.857-.737-4.023-2.215-1.166-1.477-1.985-2.214-2.45-2.214-.348 0-2.194.798-5.539 2.388-3.339 1.596-6.704 2.394-10.084 2.394-3.186 0-5.851-.935-7.988-2.798-2.332-2.061-3.498-4.859-3.498-8.397 0-6.724 7.696-11.543 23.088-14.457 2.64-.506 3.985-1.576 4.021-3.207l.118-3.732c.234-6.373-2.584-9.559-8.454-9.559-1.672 0-3.255 1.493-4.753 4.485-1.494 2.997-3.643 4.607-6.442 4.843-3.186.307-4.781-1.033-4.781-4.025 0-1.866 2.373-4.04 7.113-6.53 4.976-2.603 9.758-3.907 14.344-3.907 7.888 0 11.794 3.753 11.717 11.255l-.235 24.016c-.036 2.527 1.033 3.789 3.207 3.789.429 0 1.247-.096 2.449-.291 1.207-.194 1.907-.291 2.102-.291 1.125 0 1.688.761 1.688 2.275zm-17.955-13.291c.04-.972-.187-1.616-.673-1.924-.486-.311-1.251-.372-2.3-.177-9.368 1.672-14.052 4.724-14.052 9.154 0 4.469 2.429 6.703 7.288 6.703 1.943 0 3.947-.368 6.004-1.105 2.413-.858 3.615-1.886 3.615-3.092l.118-9.559zm61.299 6.583c0 4.121-1.588 7.397-4.753 9.826-3.166 2.429-7.49 3.644-12.972 3.644-3.652 0-7.308-.389-10.959-1.166-3.15-.701-4.976-1.34-5.482-1.924-.312-.546-.466-3.206-.466-7.988 0-2.06.466-3.129 1.401-3.205.931-.119 1.728.388 2.389 1.514 2.914 5.093 7.619 7.639 14.109 7.639 5.477 0 8.219-1.907 8.219-5.717 0-1.667-.62-3.069-1.867-4.194-1.361-1.283-4-2.781-7.927-4.49-5.676-2.526-9.465-4.741-11.368-6.648-2.062-2.02-3.09-4.74-3.09-8.162 0-4.198 1.612-7.461 4.838-9.793 2.992-2.255 6.996-3.381 12.008-3.381 3.15 0 6.025.251 8.632.758 2.798.506 4.255 1.125 4.373 1.865.307 2.175.951 5.325 1.923 9.447.117.501-.43.911-1.632 1.222-1.283.271-2.137.057-2.566-.64-3.069-5.016-6.956-7.522-11.66-7.522-5.325 0-7.988 1.709-7.988 5.13 0 1.906.72 3.42 2.158 4.546 1.283.972 4.295 2.49 9.036 4.551 4.975 2.137 8.356 4.061 10.146 5.769 2.332 2.214 3.498 5.19 3.498 8.919zm68.587 10.203c0 1.36-.915 2.081-2.741 2.158-2.721.04-6.28.234-10.668.582-2.178.429-3.732.159-4.664-.813-6.142-6.608-11.352-13.527-15.628-20.757-.348-.62-.793-.932-1.34-.932-.66 0-1.805.584-3.436 1.75-1.831 1.008-2.742 2.449-2.742 4.311 0 1.324.036 3.227.117 5.717.078 2.486.697 4.117 1.863 4.894.818.547 2.705.972 5.656 1.284 1.826.235 2.741.915 2.741 2.04 0 .896-.146 1.45-.437 1.66-.292.215-1.062.264-2.304.147-3.887-.349-10.454-.155-19.704.582-2.332.195-3.596-.097-3.79-.875-.077-.27-.117-.659-.117-1.166 0-1.202 1.186-2.117 3.559-2.736 2.137-.547 3.205-3.053 3.205-7.522v-50.956c0-3.186-.311-5.401-.935-6.643-.854-1.595-2.643-2.839-5.364-3.734-1.279-.424-1.923-1.028-1.923-1.805 0-1.13.915-2.004 2.741-2.623a36.568 36.568 0 0 0 8.336-4.025c2.138-1.397 3.461-2.097 3.963-2.097 1.596 0 2.393 1.008 2.393 3.032 0-.275-.02 1.652-.061 5.77a941.006 941.006 0 0 0-.056 11.429l.117 36.494c0 1.011.272 1.514.814 1.514.583 0 1.478-.503 2.684-1.514 3.227-2.527 7.191-5.83 11.891-9.912.935-.971 1.4-1.748 1.4-2.332 0-1.047-1.574-1.789-4.72-2.213-1.36-.159-2.004-.916-1.927-2.277.117-1.359.798-1.943 2.04-1.748 2.802.389 6.883.603 12.243.644 3.733.036 7.446.057 11.138.057 1.203.04 1.806.756 1.806 2.158 0 1.319-.952 2.039-2.854 2.157-2.997.113-5.815.793-8.454 2.04-3.692 1.669-7.64 4.604-11.838 8.803-.308.234-.466.525-.466.873 0 .543.66 1.847 1.985 3.908 4.857 7.384 9.445 12.959 13.756 16.732 2.761 2.369 5.344 3.555 7.753 3.555 1.79 0 2.899.125 3.324.38.43.252.644.924.644 2.009z"/></g></svg>