<svg viewBox="0 0 210 238" xmlns="http://www.w3.org/2000/svg" fill-rule="evenodd" clip-rule="evenodd" stroke-linejoin="round" stroke-miterlimit="1.414"><g fill-rule="nonzero"><path d="M0 0l19.061 214.015 85.606 23.742 85.605-24.077L209.333 0H0z" fill="#e44d26"/><path d="M75.24 157.167L73.233 136.1H46.816l3.678 41.131 53.838 15.048v-27.421l-29.092-7.691zm29.427-113.361H38.79l.669 7.022 6.354 72.23h58.519V96.975H69.555l-2.341-26.751h37.118V43.806h.335z" fill="#ebebeb"/><path d="M104.668 17.722v201.642l69.22-19.06 16.385-182.582h-85.605z" fill="#f16529"/><path d="M104.668 43.806V69.89h63.201l.669-6.02 1.337-13.376.669-7.022h-65.876v.334zm0 79.253h32.436l-3.009 34.108-29.093 8.026v27.421l53.838-15.048.334-4.348 6.02-68.886.668-7.022h-60.86v25.749h-.334z" fill="#fff"/></g></svg>