<svg viewBox="0 0 678 681" xmlns="http://www.w3.org/2000/svg" fill-rule="evenodd" clip-rule="evenodd" stroke-linecap="round" stroke-linejoin="round" stroke-miterlimit="1.5"><circle cx="362.542" cy="365.688" r="311.474" fill="#fff" stroke="#ff9d00" stroke-width="6.67"/><path d="M191.87 626.219a397.476 397.476 0 0 1 14.068-17.783 4.529 4.529 0 0 1 1.926-1.372c.794-1.056 1.58-2.116 2.382-3.166.046-.78.282-1.569.781-2.32 4.395-6.625 8.152-13.558 11.089-20.954 1.831-4.606 9.328-4.996 10.366-.314 1.702 1.163 2.712 3.13 1.786 5.448a24.066 24.066 0 0 0-1.424 5.098c.19.126.376.26.552.412 3.691 3.209 8.598 6.442 11.598 10.342.508.66.878 1.364 1.168 2.096 2.746 1.699 3.878 4.855 6.944 6.676 4.882 2.903 11.398 1.692 16.721 1.036 2.191-.269 4.012 1.362 4.845 3.287 1.787.197 7.382-2.897 9.107-3.083 1.775-.193 3.385-.101 5.064.568 1.208.483 2.84 2.186 4.443 2.847a17.975 17.975 0 0 1 3.917-.711c1.376-.445 2.579-.322 3.543.203.2.036.397.055.601.101 4.671 1.035 9.273 7.102 13.991 4.643 1.912-.997 4.985-1.069 6.462.835 5.816 7.498 12.874 5.436 19.231.241 3.271-2.672 11.841-7.483 15.591-3.925a21.453 21.453 0 0 1 2.568-3.394c1.445-1.576 3.268-1.877 4.92-1.376 4.385-1.777 9.362-1.81 14.112.139.862-.815 2-1.329 3.388-1.271l14.968.62c9.713-.684 19.313-3.205 28.774-5.516 12.407-3.03 24.911-5.616 37.396-8.308 5.978-1.288 11.956-2.616 17.907-4.05l1.82-.715a937.005 937.005 0 0 1 30.985-16.813c.29-.154.578-.303.868-.454a1248.053 1248.053 0 0 1 58.487-46.826 369.069 369.069 0 0 1 15.676-20.158c.249-.404.541-.804.941-1.185l.359-.343a369.387 369.387 0 0 1 11.424-12.937c.456-.547.944-1.067 1.416-1.599a8.472 8.472 0 0 1-1.584-.077c-3.075-.447-5.653-3.973-7.403-6.419a29.44 29.44 0 0 1-1.345-1.602c-1.072-1.388-.969-3.178-.267-4.704-.829.348-1.796.454-2.75.337-1.503.055-3.06-.504-4.07-1.544-1.717-1.769-3.104-3.925-3.865-6.28l-1.433-2.097c-.876-1.275-.932-2.79-.476-4.162-5.776-1.032-5.414-10.541 1.069-10.564 5.988-.022 15.084-.19 20.092 3.651 1.263.968 1.912 2.215 2.281 3.565.432.268.852.599 1.238 1.058a449.124 449.124 0 0 1 14.62 18.394 5.819 5.819 0 0 1 1.506.54c2.118.278 4.228 1.644 5 3.738.799 2.168 1.214 4.261 1.278 6.352.464.654.944 1.301 1.405 1.96.113.161.191.322.281.485 1.55-.419 3.327-.107 4.928 1.356a195.605 195.605 0 0 1 8.348 8.115c-51.046 102.406-156.835 172.822-278.942 172.822-62.991 0-121.64-18.739-170.672-50.943zm159.79.891a5.498 5.498 0 0 0-2.388.648c-.162.01-.326.016-.489.026 1.189-.826 2.477-1.428 4.055-1.474.028.255.078.503.144.75-.44.016-.88.037-1.322.05zm156.118-26.726c-.468.249-.938.493-1.403.749.441-.297.879-.601 1.32-.896l3.633-2.172a274.732 274.732 0 0 1-3.55 2.319zm84.972-132.143c-.46-.772-.96-1.515-1.53-2.209.912.188 1.687.454 2.199.842-.464-.26-.643.39-.669 1.367z" fill="#f15f77" fill-rule="nonzero"/><path d="M529.645 396.337c-.091.009-.183.001-.272.014.242-.46.506-.929.701-1.225.447.117.912.215 1.387.296a5.257 5.257 0 0 0-1.816.915m-6.843 71.282a73.143 73.143 0 0 0 1.213-5.882c-.116 2.02-.448 3.982-1.213 5.882m-34.387 47.483c-1.248 1.229-1.654 2.701-1.504 4.099-.202.353-.421.689-.614 1.053-.119.223-.198.444-.284.667a158.628 158.628 0 0 0-3.084 3.562 4.198 4.198 0 0 0-2.595.828c-.175.13-.337.262-.508.391 1.361-2.057 3.037-3.833 4.652-5.783.255-.308.499-.616.745-.924.023-.042.035-.084.062-.126 1.436-2.226 3.182-4.142 5.022-5.975.03-.047.06-.089.088-.137.206-.332.468-.535.747-.683 1.724-1.677 3.5-3.312 5.164-5.073 1.591-1.686 3.187-3.352 4.913-4.838.052.283.124.559.223.827a320.871 320.871 0 0 0-13.027 12.112m-14.38 16.164a4.435 4.435 0 0 0-.965.495 124.091 124.091 0 0 0-14.052 11.332 5.308 5.308 0 0 0-1.601-.415c5.797-4.192 11.666-8.208 17.418-12.369-.273.31-.537.632-.8.957m-41.588 34.156a68.638 68.638 0 0 0-2.541 1.543c.057-.048.121-.09.177-.138.77-.866 1.583-1.7 2.42-2.521.031-.043.056-.084.086-.125-.102.414-.15.829-.142 1.241m-9.804 6.913c-.174-.752.054-1.546.924-1.916.152-.064.311-.128.467-.193l-.001-.003.042-.014c.8-.33 1.652-.663 2.528-1.015.04-.02.076-.049.118-.069a62.517 62.517 0 0 0-4.078 3.21m-20.688 15.832a24.1 24.1 0 0 0 .83-1.132c.936-1.38 2.684-1.002 3.362.052a47.94 47.94 0 0 0-4.192 1.08m-6.998 21.988c-1.48.003-3.01-.265-4.52-.457.469-.184.938-.375 1.408-.557a25.82 25.82 0 0 0 4.078.965c-.312.031-.633.048-.966.049m.414-16.054c.006.166.022.332.058.493-.23.444-.447.892-.652 1.347a2.933 2.933 0 0 0-1.498-.135c-.642.104-1.268.233-1.885.373a33.727 33.727 0 0 0 3.977-2.078m-12.869 5.733c-.757.327-1.513.652-2.267.996a2.11 2.11 0 0 0-1.236 1.552c-.208.173-.412.353-.618.528a1.203 1.203 0 0 0-.286-.04c.12-.104.222-.225.344-.325-.096-.899.351-1.906 1.344-2.238 1.478-.497 2.942-.964 4.386-1.438-.564.302-1.12.622-1.667.965m209.589-114.157a5.79 5.79 0 0 0-.768-1.176c-16.072-18.886-30.593-38.952-43.606-60.047a269.594 269.594 0 0 1-3.378-9.263c-2.218-6.493-3.916-12.704-8.322-18.102-.522-.639-1.091-1.083-1.678-1.376 2.292.082 4.632-.163 6.563-.694 6.925-1.901 11.311-7.43 14.219-13.622 5.382-11.452 9.457-22.491 10.728-35.14 5.333-10.148 7.762-21.472 8.31-33.103.592-12.557 1.56-26.901-1.012-39.547.37-2.046.398-4.274-.022-6.66a33.269 33.269 0 0 0-2.338-7.62c-.069-.466-.14-.933-.226-1.408-.771-4.186-3.743-7.508-7.45-9.51-4.757-5.454-11.178-8.756-18.528-9.415-5.557-.499-10.794.359-15.708 2.124a12.756 12.756 0 0 0-3.378-1.195c-12.25-2.426-24.498-4.853-36.746-7.281-7.85-1.555-14.276 1.508-17.696 7.341a13.066 13.066 0 0 0-2.412 2.575c-11.074 5.657-21.242 12.741-31.313 19.985-.324.22-.644.444-.965.666-8.176 3.762-16.567 7.098-25.099 10.126-1.459.519-2.933 1.038-4.4 1.558-4.123 2.768-9.681 4.416-13.396 5.664-7.464 2.504-15.219 3.24-23.016 3.724-5.131 1.273-10.395 2.149-15.676 2.79-8.408 1.02-16.888 1.444-25.333 2.024-9.636.662-17.416-1.078-26.498-3.772-2.321-.246-4.434-.733-6.01-1.606-1.178-.067-2.355-.124-3.532-.199-32.578-2.092-65.494-8.395-95.336-21.985-3.512-.268-6.899-1.2-10.444-2.263-7.306-2.189-14.655-4.296-22.068-6.092-1.012-.244-1.658-.783-2.006-1.443-4.498-1.434-8.898-3.242-13.421-4.912-.048.468-.073.938-.113 1.407 2.225 5.775 3.569 11.847 5.054 17.877.368 1.495-.262 2.655-1.244 3.335 2.331 6.839 3.566 13.945 3.902 21.203.002.02.006.04.01.06.682 1.688 1.33 3.389 1.962 5.1a64.55 64.55 0 0 1 1.657 4.521c1.62 4.436 3.276 8.86 5.341 13.099.3.614-.168 1.181-.676 1.273a30.73 30.73 0 0 0 2.892 1.557c.094-.058.186-.118.308-.157a39.245 39.245 0 0 1 5.208-1.251c.046 2.028.175 4.074.428 6.156.51 4.188 1.992 8.055 4.531 10.924.377.946.783 1.878 1.215 2.795-1.932-.369-3.823-.887-5.604-1.448-.747-.236-.903-.965-.679-1.525-.173.097-.34.214-.524.293-.593.396-1.181.8-1.761 1.229-.375.278-.735.248-1.026.076.218 1.611.387 3.227.626 4.832.821 3.104 2.146 6.228 2.585 7.651a.975.975 0 0 1-.047.675c1.471 2.994 3.396 5.708 5.479 8.382.835 1.072-.339 2.395-1.42 1.702-2.263 5.158-4.871 10.248-7.328 15.352-1.908 5.516-3.34 11.16-4.395 16.9-.521 2.84-.769 5.772-1.08 8.688.407.136.762.464.831.99.417 3.112.8 6.211 1.179 9.302.24 1.784.505 3.58.802 5.377 1.566 5.112 3.11 10.221 5.06 15.232 1.17 3.003 2.412 5.983 3.77 8.907a337.99 337.99 0 0 0 3.098 5.105c1.392 2.256 3.98 4.929 4.44 7.611.118.692-.334 1.324-.946 1.414.393.563.764 1.14 1.145 1.711 1.787 1.072 3.453 2.5 5.011 4.165a3.361 3.361 0 0 1 1.426 1.218c4.356 6.422 9.472 12.048 12.564 19.249a62.002 62.002 0 0 0 3.127 6.26c-.827.863-1.141 2.309-.471 3.301 1.868 2.767 4.252 5.002 6.151 7.643-1.74 1.321-1.22 4.839 1.572 4.839.365 0 .683-.071.969-.179.119.179.243.365.398.601 1.886 2.886.666 4.528-.668 6.908-1.904 2.655-2.89 5.707-2.518 9.466l-.008.093.018-.003c.025.236.042.468.077.711.063.424.207.765.4 1.043a28.083 28.083 0 0 0-.04 1.864c-.951 2.053-1.921 4.1-2.905 6.134l-.008.078c-.07.758-.104 1.502-.119 2.237-2.86 1.16-3.728 5.525-3.384 8.247a8.706 8.706 0 0 0 1.195 3.452 2.652 2.652 0 0 0 .476 2.166c.824 1.12 1.72 2.076 2.997 2.679a4.26 4.26 0 0 0 1.487.397c.421.212.86.315 1.288.299.092.048.182.093.274.128 2.254 4.64 5.06 9.128 7.612 13.879a60.12 60.12 0 0 1 1.739 3.529c1.279 1.376 2.289 3.085 3.208 4.835a3.3 3.3 0 0 0-.693 1.182c-1.055 3.152.396 5.822 3.058 7.67 1.286.892 2.419 1.128 3.331 1.668.608 1.1 1.219 2.19 1.837 3.269.158 2.421-1.416 4.852-1.341 7.329.081 2.651 1.42 5.402 4.031 6.368.094.035.19.047.286.072.407.727 1.13 1.288 2.17 1.378 2.252.156 3.889.953 5.246 2.057a8.97 8.97 0 0 1 1.722 2.203c.346.497.778.817 1.241 1.001 1.708 2.195 3.353 4.519 6.125 5.783.186.146.359.301.555.442 3.877 2.775 9.001 3.314 12.371-.162 8.822 2.784 18.286 3.857 28.142 4.588 7.351.545 14.036 2.978 20.738 5.908 7.969 3.484 15.421 7.465 24.293 4.933.08-.021.156-.051.235-.075-.25-1.06.264-2.489 2.126-4.028 3.319-2.745 7.588-2.961 11.806-3.244 2.348-1.388 4.749-2.666 7.338-3.552 3.291-1.124 6.684-1.936 10.058-2.8a16.415 16.415 0 0 0 2.846-1.537c.43-1.413 1.119-2.723 1.987-3.907-2.919 6.192 3.131 7.19 9.037 7.224 1.583.01 3.18.151 4.779.288 3.564-.444 6.924-1.617 10.455-2.389 3.761-.824 7.574-1.308 11.322-2.197.336-.927-.317-2.106-1.525-1.764-3.168.894-6.204 1.51-9.252 1.62l18.021-3.25 6.088-.877c8.302-1.013 16.535-2.464 24.635-4.657l4.585-.827a2.16 2.16 0 0 0 1.027-.483c10.691-2.52 20.924-6.393 30.896-10.961 4.041-1.62 7.983-3.419 11.752-5.491.127-.069.241-.152.349-.24 5.284-2.561 10.472-5.345 15.523-8.408.921-.558 1.296-1.381 1.285-2.196 2.095-1.305 4.183-2.62 6.266-3.936.74-.468 1.104-1.217 1.177-1.996 3.237-2 6.437-4.069 9.588-6.225.208-.143.379-.303.532-.469 11.067-6.856 21.675-14.271 31.351-23.218 13.072-12.088 25.361-24.414 33.14-40.646 1.87-3.906-1.516-8.431-5.126-8.188" fill="#6d382f" fill-rule="nonzero"/><path d="M361.939 311.71c-7.047-.767-13.729-2.336-20.473-4.47-5.59-1.766-10.571-3.145-16.482-2.402-.082.01-.165.024-.248.034-.836-.269-1.77-.336-2.76-.192a7.02 7.02 0 0 0-1.648.466c-3.374.112-6.636.862-9.216 3.005a1.223 1.223 0 0 0-.517.151c-3.533 1.952-6.483 4.172-9.255 6.98-1.408.96-2.77 2.006-4.141 3.11-.456.368-.477 1.142-.208 1.616 1.728 3.04 7.424 3.563 12.315 3.488 5.081 2.54 16.42.738 19.729.288 11.032-1.496 24.211-3.056 33.577-9.589 1.131-.789.651-2.341-.673-2.485m-148.592 13.12c-.631-.578-1.364-1.08-2.163-1.529-.043-.036-.069-.081-.119-.113l-1.246-.774a1.181 1.181 0 0 0-.823-.162 27.332 27.332 0 0 0-.804-.308 61.24 61.24 0 0 1-4.648-2.379 1.218 1.218 0 0 0-.823-.129c-5.792-3.487-11.872-5.312-18.664-5.63a1.35 1.35 0 0 0-.37.046 1.007 1.007 0 0 0-.546-.284c-2.105-.336-3.558-.248-5.47.498-.358-.02-.699-.037-.994-.037a1.25 1.25 0 0 0-.672.196c-.432.056-.821.345-.98.948l-.57 2.163c-.078.294-.039.552.046.784-.012.093-.034.181-.025.288.1 1.105.299 2.32.619 3.53-.382.24-.662.628-.626 1.092.215 2.818 1.871 5.079 3.636 7.227.244.365.528.705.846 1.021l.553.668c.205.251.468.356.737.383a9.536 9.536 0 0 0 2.022 1.005c1.002.508 2.142.862 3.457 1.008 5.516.612 12.573-1.685 16.668-5.697 3.343-.348 6.551-1.457 10.016-1.537 1.107-.027 1.821-1.471.943-2.278" fill="#fff" fill-rule="nonzero"/><path d="M360.706 312.492c-.256-.452-.869-.73-1.389-.614-.448-.95-1.918-1.024-2.402.036-.037-.02-.061-.05-.101-.066-2.54-1.064-8.868-5.259-12.74-5.182-1.94-1.01-4.309-1.961-5.487-.564-.033.04-.046.084-.076.124-2.865-1.416-5.874-2.385-8.909-1.906-.337.053-.597.277-.765.565a1.318 1.318 0 0 0-1.195.149c-.088-.206-.187-.406-.264-.621-.599-1.319-2.8-.444-2.456.899-.001.006-.005.01-.007.016-.325-.086-.674-.075-.969.078a1.332 1.332 0 0 0-.839-.016c-.021-.06-.033-.118-.056-.177-.426-1.12-1.914-1.287-2.454-.237a1.014 1.014 0 0 0-.559.792l-.216 1.548c-.032.232-.007.44.048.632a19.155 19.155 0 0 0 1.027 6.441c.5 1.835 1.16 3.497 2.032 5.032.665 1.891 1.885 3.297 3.888 4.945.63.519 1.381.372 1.852-.049 2.334 1.137 5.666-.516 8.224-1.103.589-.134.878-.578.932-1.061 4.773-.464 9.794-1.987 14.297-2.871.723-.142 1.011-.836.931-1.474l.356-.118c.081.047.172.095.248.138 1.06.617 1.938-.272 1.918-1.2.17-.014.335-.051.487-.119.005.017.016.033.024.051.479 1.017 2.22.773 2.436-.318.013-.088.039-.172.051-.258.042-.048.09-.075.128-.132l.185-.398c.429.352 1.103.448 1.593.18.035-.02.072-.04.108-.058.218-.006.447-.076.68-.246l.688-.504c1.332-.973.24-3.033-1.249-2.334m-150.242 10.87c-.905-.387-1.805-.777-2.701-1.175-.024-.016-.035-.037-.059-.05a108.776 108.776 0 0 0-8.055-4.082 1.382 1.382 0 0 0-.934-.082c-.7-.319-1.416-.607-2.142-.871-.333-.461-.942-.62-1.478-.459-.042-.06-.072-.128-.114-.188a1.45 1.45 0 0 0-.482-.44c-.296-.826-1.335-1.273-2.003-.882-.508-.435-1.367-.494-1.893.024-.656.006-1.327.437-1.383 1.284-.067.456-.059.909.001 1.364a29.02 29.02 0 0 0 .199 3.018c-.611 2.786.565 6.832 2.293 9.652.27.675.583 1.315.958 1.88.046.134.094.267.141.399.2.565.743.856 1.284.897.936.22 2.137-.452 1.673-1.557l-.026-.06c.378.087.772.011 1.082-.24.13.041.263.068.391.069 1.761.022 3.353-1.55 4.791-2.902.872-.49 1.601-1.082 2.026-1.82.046-.031.09-.074.135-.104.28-.074.527-.138.727-.194a1.25 1.25 0 0 0 .776-.577c.101-.041.21-.065.314-.103l.078-.01c.144-.024.25-.08.36-.132a9.977 9.977 0 0 1 1.506-.326c.61.1 1.224.17 1.862.151 1.204-.035 1.968-1.929.673-2.484" fill="#392822" fill-rule="nonzero"/><path d="M200.218 329.893c.815-.686 1.663-1.327 2.592-1.836.439-.24.896-.442 1.358-.631 1.348-2.411 1.34-6.057-.031-8.451-1.919-.702-3.813-1.388-5.757-2-4.67 2.234-4.067 12.907 1.838 12.918m139.86-24.707c-8.58 0-8.593 13.333 0 13.333 8.58 0 8.594-13.333 0-13.333" fill="#251916" fill-rule="nonzero"/><path d="M331.468 308.186c-6.863 0-6.875 10.666 0 10.666 6.862 0 6.874-10.666 0-10.666m-135.834 11.666c-6.005 0-6.016 9.334 0 9.334 6.006 0 6.016-9.334 0-9.334" fill="#fff" fill-rule="nonzero"/><path d="M164.515 252.155c1.592.217 3.181.447 4.772.677.762.43 1.552.824 2.354 1.202a164.46 164.46 0 0 1-7.126-1.879m381.23-47.415a32.227 32.227 0 0 0-.773-5.662 27.392 27.392 0 0 0 2.069-4.595c-.101-.809-.19-1.62-.27-2.432-1.614-7.479-3.987-14.811-3.174-22.391a30.3 30.3 0 0 0-1.921-2.772 31.877 31.877 0 0 0-1.929-4.38c1.81-3.722 2.814-7.916 2.756-12.434-.479-37.075-20.467-72.568-52.411-91.515-3.763-4.121-7.883-7.867-12.957-11.023-4.715-2.933-9.852-4.925-15.164-6.018l-5.547-6.842c-5.743-7.084-10.921-14.31-18.763-19.3-8.55-5.442-18.745-7.516-28.378-5.398-11.724-5.744-24.752-7.628-39.034-3.244-1.496.458-2.969.99-4.449 1.496-2.529-.475-5.071-.883-7.62-1.16-.151-.05-.307-.098-.457-.147-7.126-2.321-15.048-3.372-22.668-2.529a121.044 121.044 0 0 0-10.119-2.318c-5.717-1.042-11.807-.82-17.351.876-4.998-1.021-10.249-.436-15.097 1.356-11.123.232-21.393 4.618-30.332 11.047-2.44.668-4.859 1.411-7.265 2.191-2.527 2.505-6.01 3.814-9.079 5.598-3.336 1.94-6.648 3.9-9.905 5.955a71.01 71.01 0 0 1-1.88 1.572c-6.971 5.579-13.935 11.14-21.298 16.197a1.823 1.823 0 0 1-.774.312 228.886 228.886 0 0 0-7.208 6.622c-4.087 3.922-7.907 8.257-11.4 12.844-.591.88-1.174 1.765-1.738 2.658a345.188 345.188 0 0 0-12.068 20.728c-.877 1.96-1.804 3.912-2.658 5.892-2.196 5.092-4.044 10.384-5.783 15.712.171.778.347 1.555.556 2.34.027.102.064.199.092.3a700.973 700.973 0 0 0-4.372 9.032l-.5 1.563c-3.068 9.479-5.895 19.024-8.639 28.601a377.203 377.203 0 0 0-3.556 13.222c-.237 3.477-.468 6.956-.877 10.418-.229 1.94-.408 3.874-.941 5.672a102.101 102.101 0 0 0 2.524 9.675c.206.661.45 1.299.694 1.937a171.676 171.676 0 0 1-2.161 6.486 22.137 22.137 0 0 0-1.132 4.886c-.273.027-.545.066-.819.095-.136.515-.434.989-.94 1.259-.288.697-.893 1.285-1.728 1.345-1.377.101-1.653.149-2.408-.119-1.954.368-3.91.718-5.868 1.064-1.941.55-3.844 1.183-5.45 1.631-.167.531-.582.976-1.311 1.133-1.644.352-3.284.715-4.92 1.09-5.667 2.293-11.384 4.389-17.599 4.98-.405.038-.738-.035-1.009-.178a39.803 39.803 0 0 0-3.309 2.502l-20.224 5.922c-1.962.21-3.922.419-5.882.675-.828.109-1.265.811-1.273 1.467a138.55 138.55 0 0 0-8.368 3.022c-.008.003-.012.01-.02.012-.348.027-.697.06-1.045.086-1.08.076-1.482 1.146-1.184 1.906l-.268.047c-.555-.04-1.11-.069-1.663-.115-.569-.046-.929.23-1.119.606-.621.118-1.242.234-1.861.368-11.596.565-22.551 3.87-32.395 9.832a104.683 104.683 0 0 0-9.133 4.678c-.295-.81-1.491-1.326-2.243-.58a92.824 92.824 0 0 0-5.646 6.162c-.551-.215-1.231-.123-1.648.501a58.544 58.544 0 0 0-2.955 4.929c.176-.653.363-1.3.528-1.958.355-1.414-1.743-2.427-2.436-1.028a46.688 46.688 0 0 0-1.42 3.181 1.02 1.02 0 0 0-.284.563l-.043.288a41.999 41.999 0 0 0-2.313 8.644c-.311.805-.615 1.61-.944 2.412-.247.597.051 1.101.512 1.396-.116 1.9-.108 3.832.028 5.802.085 1.239 1.899 1.795 2.464.791.445-.096.844-.383.977-.893l2.567-9.874c.212-.001.425-.042.62-.185a395.13 395.13 0 0 0 22.048-17.299c.741-.317 1.481-.637 2.223-.952 9.404-2.19 18.885-4.509 27.622-8.422 9.251.454 18.483-.007 27.715-1.01 4.372-.476 8.732-1.054 13.087-1.662a36.063 36.063 0 0 1 1.849-.198c4.333.771 8.679 1.415 13.064 1.682 6.369 1.45 12.745 2.872 19.139 4.218 4.433.935 8.876 1.987 13.357 2.68-.547.623-.311 1.915.612 2.28 11.735 4.662 23.947 7.386 36.316 9.38 8.153 2.77 16.42 4.91 25.023 5.856.877.098 1.298-.622 1.262-1.34a256.89 256.89 0 0 0 9.174 2.355c.133.137.289.256.486.327.94.332 1.888.636 2.831.956.099.392.367.734.895.857 1.93.411 3.854.844 5.772 1.296a230.546 230.546 0 0 0 13.225 3.621 29.6 29.6 0 0 0 7.976 3.656c23.536 6.814 47.369 9.848 71.376 9.766 3.928 2.064 8.411 3.245 13.271 3.245 3.688 0 7.336-.787 10.744-2.191 5.094.608 10.41.215 15.896-1.265 2.522-.68 5.028-1.487 7.522-2.348 2.951.149 5.896-.227 8.688-1.268 6.499-2.424 12.924-5.065 19.2-8.017 18.284-2.842 35.403-12.606 50.18-24.414.463-.148.924-.309 1.383-.494 9.869-4.002 16.689-8.732 21.151-18.276a87.472 87.472 0 0 0 2.648-4.376c4.23 2.52 9.176 3.982 14.588 3.982.522 0 1.045-.018 1.566-.049 3.67 1.735 7.784 2.716 12.212 2.716 2.122 0 4.226-.273 6.284-.76 2.487 1.961 6.652 2.257 10.599 2.157a162.756 162.756 0 0 0 14.187 2.503l.018.005v-.002c.119.014.236.034.355.05.707.091 1.132-.41 1.248-1a25.099 25.099 0 0 0 5.185-1.208c.748.392 1.81.032 1.938-1.116.05-.445.081-.885.12-1.326.576-.115 1.084-.547 1.065-1.262a142.364 142.364 0 0 0-1.617-18.124c1.104-3.054 1.657-6.32 1.506-9.696" fill="#2f353f" fill-rule="nonzero"/><path d="M154.489 266.141c-2.601-4.59-1.892-11.441-5.326-15.314-3.822-4.314-12.668-4.076-17.896-4.916-15.108-2.427-30.418-4.143-45.74-3.558-18.347.703-41.204 4.494-57.419 15.786-1.385-.692-3.048-.715-4.663.446-2.961 2.132-6.712 5.566-8.456 9.426-.058.076-.125.136-.181.214-4.391 6.231-8.837 18.928.648 23.258 1.163 1.858 2.555 3.421 4.116 4.426 5.121 3.294 11.611 2.888 17.441 2.682 8.084-.287 16.14-1.123 24.162-2.139 15.158-1.92 30.581-3.669 45.405-7.468 15.201-3.895 29.94-9.789 44.721-15.008 3.244-1.145 4.982-4.671 3.188-7.835" fill="#ddb4b1" fill-rule="nonzero"/><path d="M316.808 607.966c-1.107-.471-2.208-.91-3.252-1.355a5.224 5.224 0 0 0-1.487 1.071c1.473.338 2.949.646 4.425.95.076-.233.184-.454.314-.666" fill="#030404" fill-rule="nonzero"/><clipPath id="_clip1"><path clip-rule="nonzero" d="M310.88 535.199h298.708v131.253H310.88z"/></clipPath><g clip-path="url(#_clip1)"><path d="M601.882 551.687c-34.948 25.264-72.766 46.033-110.739 66.325-7.055 3.771-14.107 7.602-21.211 11.334 5.814-5.951 11.756-11.771 18.088-17.076 7.288-6.108 15.47-10.879 23.892-15.218 3.674-1.496 7.3-3.19 10.88-5.176a5.818 5.818 0 0 0 1.018-.716c1.26-.612 2.518-1.222 3.772-1.836 24.301-11.896 48.845-24.461 67.188-44.88 4.577-5.093-2.943-12.661-7.543-7.542-18.739 20.858-44.159 32.994-68.935 45.122a576.138 576.138 0 0 0-10.345 5.166c-8.745 3.569-17.812 5.689-27.396 7.134-5.061.762-9.835 2.059-14.481 3.65-.131.008-.251-.004-.386.014-8.446 1.134-16.388 3.199-24.178 6.33a541.748 541.748 0 0 1-50.218 6.318 206.355 206.355 0 0 0-16.182-1.248c-.9-.033-1.68.13-2.347.434a3.157 3.157 0 0 1-.763.454 4.724 4.724 0 0 0-1.532 1.918c-.024-.032-.054-.058-.078-.09-.223.302-.51.579-.887.811-.328.201-.661.368-.989.559-1.751-1.114-3.664-2.054-5.487-2.155-2.741-.155-4.744 1.933-4.703 4.659.006.316.04.625.094.925-.355.14-.712.259-1.066.419-.24.106-.44.261-.613.441-.047.025-.085.06-.129.087-2.206.309-4.419.536-6.638.708-1.733-.242-3.492-.323-4.628.766-.228-.176-.45-.357-.678-.532l-.03-.028-.001.004c-.181-.138-.356-.284-.539-.421-1.044-.792-2.725-.269-3.44.687-.816 1.093-.702 2.49.21 3.501a15.961 15.961 0 0 0 2.038 1.883c.015.09.019.18.042.272-5.81 1.892-11.779 2.688-17.566.848-.489-.784-1.15-1.484-1.858-2.079-1.339-2.412-4.304-3.953-6.544-1.679-.128-.138-.263-.268-.388-.412-1.467-1.686-3.55-.68-4.227.938-.771-.963-.944-2.45-.369-3.539-.371-.073-.742-.163-1.111-.239 4.685 40.562 63.764 52.298 96.948 46.555 23.041-3.987 44.799-14.783 65.365-25.477 21.774-11.322 43.427-22.951 64.804-35.006 23.8-13.42 47.118-27.689 69.27-43.704 5.51-3.982.193-13.24-5.384-9.209" fill="#030404" fill-rule="nonzero"/></g><clipPath id="_clip2"><path clip-rule="nonzero" d="M2.113 49.428h544.301v247.833H2.113z"/></clipPath><g clip-path="url(#_clip2)"><path d="M546.228 217.299c.377-6.697-.16-13.451-.995-20.164-.045-.533-.084-1.069-.132-1.604-.194-2.133-.329-4.321-.661-6.453-.073-11.491-.207-23.159-2.569-34.158-1.744-8.118-4.004-16.153-6.026-24.208-1.918-7.646-3.158-16.025-6.22-23.309-2.33-5.544-6.681-9.397-11.01-13.395-6.08-5.612-12.167-11.216-18.25-16.824-10.902-10.049-21.814-20.121-34.833-27.396-1.127-.628-2.211-.372-2.964.283-1.105.475-1.975 1.585-1.689 3.085 4.064 21.386 6.194 43.035 6.47 64.692-1.428 8.951-3.132 17.888-6.208 26.424-2.908 8.067-7.121 15.506-11.896 22.583.234-1.249.471-2.493.716-3.727 3.062-15.398 8.12-32.848 5.935-48.688.087-.857.163-1.718.221-2.585a3.765 3.765 0 0 0-.29-1.683c1.788-1.152 1.276-4.769-1.514-4.988-7.286-.572-14.349 1.318-20.128 5.887-4.834 3.821-3.696 6.229-.06 10.237 4.627 5.1 6.862 11.067 1.482 16.508-2.978 3.011-6.839 5.407-10.351 7.763-7.987 5.355-16.599 9.459-25.669 12.621-16.862 5.88-34.531 8.87-51.72 13.583-17.97 4.927-34.935 12.328-50.634 22.379-2.881 1.845-.209 6.464 2.691 4.606.384-.245.776-.466 1.159-.708.737 1.506 2.164 2.736 4.042 2.928 9.502.976 18.899 2.584 28.276 4.326.37-.431.847-.759 1.427-.886 5.24-1.144 10.979.336 16.289 2.282 6.324.201 12.84 1.97 19.175 3.685 6.764.612 13.892 2.593 20.009 3.501 7.952 1.18 15.931 2.203 23.894 3.332 1.449-.058 2.905-.181 4.312-.445.273.469.654.876 1.094 1.236 2.616.395 5.232.797 7.839 1.243.287.048.533.133.76.234 2.34.08 4.689.095 7.041.066.546.717 1.372 1.27 2.558 1.497a383 383 0 0 0 21.829 3.527c3.944.516 8.704 1.993 12.555.7.545.385 1.097.76 1.654 1.124-13.34 13.99-29.804 24.177-47.386 32.309-20.639 9.545-42.971 17.924-64.974 23.681-25.757 6.739-52.665 1.395-78.232-3.857-25.806-5.3-51.197-12.408-76.496-19.707-28.118-8.112-56.212-17.47-85.382-20.928-2.92-.346-4.567 1.427-4.972 3.623-4.272-.884-8.547-1.748-12.88-2.307-1.76-.226-3.539-.426-5.326-.614-7.105-.24-14.213-.254-21.333.274a2.806 2.806 0 0 1-1.429-.244c-5.642.816-11.254 1.824-16.85 2.907-14.364 2.779-29.065 7.816-41.512 15.74-9.19 5.851-19.05 18.253-13.185 29.703 5.941 11.597 25.867 10.744 37.711 9.724 5.094.286 10.174.209 15.232-.182 8.525-.524 17.005-1.741 25.384-3.554 5.446-1.179 10.834-2.607 16.17-4.21a181.88 181.88 0 0 0 27.94-7.308c1.48-.516 2.438-1.54 2.919-2.718.343.044.707.06 1.105.03a48.854 48.854 0 0 0 9.883-1.75c1.457-.204 2.907-.404 4.343-.587a16.66 16.66 0 0 0 5.641-1.805c2.325.073 4.471-1.671 4.663-4.468 1.117-2.34.838-5.148-1.886-8.122-.065-.072-.134-.121-.201-.186a5.186 5.186 0 0 0-.137-1.794 10.427 10.427 0 0 1-.359-5.66c16.557 4.076 32.896 9.31 49.173 14.014 26.522 7.665 53.127 15.166 80.196 20.668 24.912 5.064 51.452 10.33 76.73 5.008 22.662-4.772 45.461-14.003 66.698-23.152 21.459-9.246 41.962-21.259 57.8-38.583 5.086 2.845 11.378 2.415 17.638 1.895 10.51 3.849 21.489 8.19 32.589 9.198 1.983.18 3.329-.818 4.003-2.222.576.1 1.146.21 1.729.297 3.736.565 6.436-2.42 5.696-5.559.439-1.06.876-2.12 1.312-3.18.439-1.064.285-2.193-.223-3.177 1.051-3.769.816-8.477.599-12.308" fill="#030404" fill-rule="nonzero"/></g><clipPath id="_clip3"><path clip-rule="nonzero" d="M26.906 235.804h121.132v25.495H26.906z"/></clipPath><g clip-path="url(#_clip3)"><path d="M144.286 242.216c-32.199-9.298-66.177-8.378-97.696 2.078a4.494 4.494 0 0 0-2.32.319 177.639 177.639 0 0 0-7.924 3.452 170.42 170.42 0 0 0-4.452 1.869 4.856 4.856 0 0 0-1.604 1.116c-.239.126-.481.243-.72.368-6.071 3.212-.687 12.422 5.383 9.211.905-.479 1.813-.945 2.724-1.407 2.876-.869 5.56-2.104 8.209-3.504a150.86 150.86 0 0 1 20.308-5.865c1.171 1.283 2.917 2.06 5.068 1.645 10.591-2.042 20.448-2.77 31.225-2.962 8.798-.155 17.399 1.006 26.148 1.438a5.4 5.4 0 0 0 1.734-.204c3.717.782 7.417 1.672 11.081 2.731 6.608 1.908 9.429-8.381 2.836-10.285" fill="#030404" fill-rule="nonzero"/></g><path d="M593.68 469.644l-3.304-3.955c-.831-.993-2.527-1.562-3.772-1.562-1.307 0-2.869.581-3.771 1.562-.933 1.016-1.625 2.351-1.562 3.771.066 1.485.61 2.633 1.562 3.771l3.304 3.956c.83.993 2.526 1.562 3.771 1.562 1.308 0 2.871-.581 3.772-1.562.932-1.016 1.625-2.351 1.561-3.771-.066-1.485-.61-2.633-1.561-3.772" fill="#030404" fill-rule="nonzero"/><clipPath id="_clip4"><path clip-rule="nonzero" d="M592.754 479.007h12.799v10.501h-12.799z"/></clipPath><g clip-path="url(#_clip4)"><path d="M605.343 486.47a3.911 3.911 0 0 0-.439-.567c-.092-.447-.3-.849-.699-1.308-.574-.664-1.41-.465-1.889.072-1.724-1.723-3.831-3.225-5.675-4.78l-.021-.045c-.296-.678-1.011-.775-1.6-.532-.88-.786-2.699.064-2.172 1.338.045.111.101.207.149.312a.197.197 0 0 0-.016.007c.034.06.071.116.104.176.283.576.615 1.093.99 1.561.098.138.186.28.292.416.108.143.241.252.386.343.392.392.815.756 1.266 1.097 1.658 2.863 4.144 5.988 6.549 4.614.425-.242.719-.574.913-.943 1.084.656 2.64-.524 1.862-1.761" fill="#030404" fill-rule="nonzero"/></g><path d="M517.171 497.477c-11.578 21.66-25.319 42.49-43.554 59.154-9.165 8.374-19.4 15.418-30.549 20.886-6.532 3.204-13.292 5.896-20.12 8.394-7.888 2.886-16.067 6.192-24.623 5.02-3.354-.46-4.808 4.678-1.417 5.142 13.809 1.892 27.777-4.75 40.233-10.034 12.863-5.458 24.771-12.5 35.492-21.475 20.899-17.493 36.395-40.543 49.142-64.395 1.617-3.026-2.984-5.722-4.604-2.692" fill="#21130d" fill-rule="nonzero"/><clipPath id="_clip5"><path clip-rule="nonzero" d="M151.792 252.891h28.187v26.984h-28.187z"/></clipPath><g clip-path="url(#_clip5)"><path d="M178.642 269.675c-4.277-8.971-15.14-14.61-24.405-16.746-.864-.198-1.463.395-1.616 1.067-1.007.391-1.233 2.135.1 2.532.493.147.977.319 1.465.476-.309.463-.365 1.084.144 1.612.232.241.476.472.71.711-.666.413-.928 1.466-.304 2.116.078.081.162.156.242.237-.645.445-.969 1.443-.268 2.079.45.406.906.804 1.363 1.202-.335.507-.397 1.175.161 1.61.09.07.182.136.271.206l-.001.003.15.109c.802.62 1.61 1.231 2.423 1.832-1.017.23-1.596 1.768-.433 2.446.036.021.073.04.109.062-1.372-.433-2.464 1.602-1.065 2.394 4.914 2.785 11.528 6.916 17.5 6.161.816-.104 1.489-.337 2.029-.672.297-.129.589-.28.867-.48 2.973-2.147 1.874-6.199.558-8.957" fill="#030404" fill-rule="nonzero"/></g><clipPath id="_clip6"><path clip-rule="nonzero" d="M196.289 232.852h328.184v393.579H196.289z"/></clipPath><g clip-path="url(#_clip6)"><path d="M491.981 305.01a3.262 3.262 0 0 0-1.43-.324l-.03.003c0-.292-.044-.58-.11-.864.598.21 1.263.261 1.947.094l.333-.081c.103-.025.199-.072.298-.111.005.015.012.028.018.042a2.447 2.447 0 0 0-1.026 1.241m-1.992-27.428c.246-.217.436-.484.578-.775.027.656.259 1.298.702 1.775a2.738 2.738 0 0 0-.62 1.405 2.414 2.414 0 0 0-.532-.588c.144-.6.097-1.249-.128-1.817m-.946-13.008a2.949 2.949 0 0 0-1.385-.653c.088-.3.107-.61.092-.918.691-.417 1.233-1.061 1.423-1.893.086-.381.1-.771.062-1.153.366.138.77.229 1.232.229.639 0 1.166-.165 1.612-.417.099.332.25.644.443.929-2.161.061-3.188 1.84-3.089 3.548-.142.099-.27.208-.39.328m-.9 36.063a2.856 2.856 0 0 0-1.037-1.043 2.406 2.406 0 0 0 1.32-.561c.049.018.092.045.144.061a3.375 3.375 0 0 0-.427 1.543m-2.12-30.243a3.425 3.425 0 0 0 1.787.015 3.512 3.512 0 0 0-.513 1.333c-.236-.581-.646-1.085-1.274-1.348m-.944 8.553a2.317 2.317 0 0 0-1.072-.894 2.913 2.913 0 0 0-.281-.871c.467-.445.731-1.064.795-1.707.145.022.288.044.446.044.283 0 .535-.048.77-.114-.014.416.052.836.205 1.218-.647.572-.935 1.464-.863 2.324m-2.664-6.393a3.11 3.11 0 0 0-.408-.032 3.755 3.755 0 0 0-.284-1.612c2.412-.661 2.418-4.451.002-5.115.078-.241.116-.494.132-.749a2.91 2.91 0 0 0 .78-.695c.09.131.161.27.278.387.111.111.222.223.334.333.242.243.534.427.85.556-.798 1.711-.192 4.118 1.831 4.736a2.74 2.74 0 0 0-.963-.177c-1.586 0-2.432 1.141-2.552 2.368m2.584-25.992c.006.012.015.021.022.032a3.626 3.626 0 0 0-.415 1.449 2.963 2.963 0 0 0-.997-.432 4.097 4.097 0 0 0 1.39-1.049m2.251 10.321c.001.096.016.19.023.284-.14-.057-.276-.12-.43-.157l-.666-.167c-.823-.202-1.716-.074-2.467.311a3.763 3.763 0 0 0-.061-3.077 3.005 3.005 0 0 0 1.164-.555c0 .056-.015.108-.012.164.068 1.504 1.045 2.803 2.449 3.197m-3.24 42.507a2.19 2.19 0 0 0-.268-.312 3.088 3.088 0 0 0-.38-.291 3.818 3.818 0 0 0-.137-1.805c.22.233.489.425.809.557-.216.591-.032 1.338.561 1.655-.21.045-.402.116-.585.196m-1.38-3.468a2.909 2.909 0 0 0-.82-.676c-.169-.839-.696-1.581-1.579-1.895.159-.161.286-.346.394-.542.402.301.924.488 1.565.488.132 0 .249-.022.371-.038.053.212.11.422.201.618a3.022 3.022 0 0 0-.132 2.045m-2.788 11.483c.257-.931.049-1.992-.609-2.691.088.02.185.027.281.035.055.277.255.52.62.52.483 0 .684-.419.624-.788.223-.139.389-.33.528-.539a3.017 3.017 0 0 0 .167 2.053 2.94 2.94 0 0 0-1.611 1.41m-4.903 4.841a3.16 3.16 0 0 0-1.137-.352 2.906 2.906 0 0 0 1.235-.863 3.79 3.79 0 0 0-.098 1.215m1.751-63.736a3.459 3.459 0 0 0-.372-.639c.559-.613.849-1.445.864-2.284.132-.045.276-.073.4-.129a4.267 4.267 0 0 0 1.421 1.757c-1.061.084-1.832.588-2.313 1.295m18.173 17.937c.44.526 1.076.896 1.89 1.016-.015.968.341 1.931 1.05 2.584-.11-.01-.217-.028-.336-.028-.161 0-.308.023-.454.046.177-1.434-.65-3.008-2.492-3.04 0-.09-.015-.179-.02-.267.13-.095.245-.204.362-.311m4.772-19.124a3.157 3.157 0 0 0 1.762-.481c-.346 1.248-.036 2.691.929 3.56-.487-.339-1.103-.549-1.859-.549-.861 0-1.541.276-2.058.706.229-.986.06-2.082-.512-2.909a4.618 4.618 0 0 0 1.738-.327m4.832 3.863c.076 0 .138-.021.21-.025.132.602.417 1.161.841 1.604a2.914 2.914 0 0 0-1.232.94 2.838 2.838 0 0 0-.609-.643c-.028-.925-.398-1.827-1.087-2.441.492.348 1.113.565 1.877.565m19.954 209.627c-.704-3.798-1.411-7.594-2.115-11.39.352-.336.613-.781.727-1.334.164-.268.288-.588.344-.98.892-6.319.636-12.484-.904-18.574-.062-4.169-1.104-8.213-3-12.018-.594-1.19-1.646-1.507-2.626-1.28-.429-.755-.892-1.528-1.389-2.364.039-1.332.057-2.664.064-3.994a80.029 80.029 0 0 0-.232-12.802 2.84 2.84 0 0 0-.263-.934c-.33-4.409-.818-8.814-1.48-13.222-.27-1.799-1.846-2.224-3.19-1.735-.063-.468-.11-.936-.175-1.405-.157-1.135-.844-1.715-1.664-1.871.68-8.965.029-17.82-1.888-26.676-.253-1.171-1.047-1.749-1.939-1.876a578.51 578.51 0 0 0-2.441-14.112c-.155-.824-.58-1.36-1.127-1.652-.066-.277-.12-.556-.19-.835 1.733-7.606 3.029-15.796-.507-21.966a2.546 2.546 0 0 0-.836-.88 2.723 2.723 0 0 0-.684-1.719c.555-1.285.151-3.019-1.231-3.623.332-.873.231-1.926-.306-2.69.308-1.13-.051-2.47-1.088-3.102 1.012-.658 1.356-2.006 1.017-3.132.088-.332.14-.673.135-1.018.781-1.303.632-3.15-.422-4.252 1.079-.542.886-2.524-.6-2.524-.356 0-.622.132-.83.316-.174-.43-.562-.762-1.17-.762-.756 0-1.166.519-1.253 1.099a2.48 2.48 0 0 0-.584-.801c.451-.315.628-.895.511-1.419.844-.033 1.47-.392 1.877-.915-.192.766.207 1.703 1.228 1.703 1.667 0 1.704-2.499.127-2.64 2.358-.572 2.514-4.075.45-5.016 1.568-.356 2.187-1.971 1.838-3.327 1.614-.754 1.856-3.081.728-4.302.201.036.408.064.634.064 3.978 0 4.266-5.72.866-6.556.117-.024.233-.034.35-.074l.499-.169c.169-.057.333-.129.493-.211.524.784 1.391 1.343 2.626 1.343 3.454 0 4.126-4.317 2.017-6.001 3.283-.014 4.033-3.931 2.264-5.751a2.91 2.91 0 0 0 1.184-.863c.324.068.664.115 1.035.115 3.152 0 4.636-2.565 4.476-5.007.51.412 1.181.674 2.024.674 1.669 0 2.682-1.014 3.052-2.247 3.266-2.201 2.43-8.587-2.552-8.587-.087 0-.16.02-.244.024-.727-.621-1.692-1.024-2.923-1.024-2.461 0-3.905 1.566-4.347 3.414-.668-1.376-1.988-2.414-3.986-2.414-.744 0-1.394.147-1.952.399-.531-.725-1.372-1.232-2.548-1.232-1.506 0-2.471.827-2.922 1.892a5.45 5.45 0 0 0-.721-.219c-.399-1.42-1.617-2.506-3.191-2.506h-.333c-1.063 0-2.092.573-2.72 1.425-.159-2.189-1.613-4.259-4.447-4.259-1.57 0-2.728.64-3.474 1.583-.475-.996-1.419-1.749-2.859-1.749-1.491 0-2.452.81-2.907 1.861-1.264.136-2.096.889-2.505 1.845a5.29 5.29 0 0 0-.588-.04c-3.909 0-5.26 3.947-4.08 6.708-1.036 1.206-1.068 3.183-.107 4.443-1.682 1.853-.904 5.683 2.354 5.683l.008-.002c.249 1.418 1.298 2.668 3.158 2.668.226 0 .435-.021.636-.056.094 1.299.844 2.528 2.247 2.918-2.453.184-3.376 2.64-2.737 4.518-.8 1.387-.327 3.528 1.432 4.011a3.045 3.045 0 0 0-.058 1.64c-3.326.276-3.788 4.752-1.368 6.187-2.902.512-2.738 5.282.515 5.282.133 0 .252-.021.375-.037.429.519 1.08.871 1.958.871.191 0 .368-.02.536-.054.272 1.027 1.087 1.887 2.464 1.887.791 0 1.391-.291 1.819-.727.015.072.02.144.044.218.14.438.308.866.472 1.298 0 .767.284 1.518.855 2.03.062.136.117.277.182.412.144.297.363.545.623.746-.583.352-.723 1.131-.456 1.726.001.089.012.177.021.265a3.235 3.235 0 0 0-.893-.135c-.189 0-.361.024-.532.055.4-.811.417-1.837-.059-2.579a2.804 2.804 0 0 0-1.233-1.065c-.423-.6-1.105-1.023-2.065-1.023-.098 0-.18.023-.274.031-.414-.355-.966-.585-1.67-.585-1.015 0-1.723.472-2.138 1.129-.141-1.199-.969-2.296-2.529-2.296-3.089 0-3.393 4.312-.915 5.173-1.354 1.462-.762 4.498 1.803 4.543.081.224.18.44.315.635a1.182 1.182 0 0 0-.98.656 2.963 2.963 0 0 0-.612-.063c-.463 0-.843.121-1.182.289-.356-.585-.91-1.048-1.558-1.196-1.482-.337-2.8.448-3.282 1.863l-.113.332c-.449 1.323.515 2.975 1.863 3.281.802.182 1.55.027 2.15-.372.027.042.04.091.07.131a2.42 2.42 0 0 0-1.138 1.355c-.546.466-.601 1.386-.149 1.934a1.321 1.321 0 0 0-.605-.145c-1.687 0-1.708 2.567-.075 2.652.003.703.251 1.4.731 1.905-2.931 1.062-2.687 6.019.76 6.402-2.11.754-2.552 3.494-1.386 5.145-.165.932.111 1.944.814 2.577.009.079.009.154.025.234.349 1.834.68 3.67 1 5.508.079.598.179 1.198.3 1.797.912 5.416 1.7 10.848 2.335 16.308.168 1.444 1.246 2.272 2.39 2.483.652 3.602 1.294 7.206 1.942 10.809-.074.348-.167.695-.239 1.044a110.73 110.73 0 0 0-2.517 15.223c-.043.44.012.82.134 1.145-.009.121-.026.24-.037.36a8.19 8.19 0 0 0-1.527.497c-.125.006-.241-.008-.372.008a5.013 5.013 0 0 0-2.07.727c-.215.076-.43.176-.646.328-2.953 2.056-4.249 4.629-5.429 7.977-.445 1.263.221 2.382 1.232 2.948a30.32 30.32 0 0 0-.12 1.748 23.192 23.192 0 0 0-.699 3.962c-.854-1.092-1.777-1.99-2.641-2.56-.805-.531-1.88-.439-2.693 0-1.568.846-2.63 2.726-3.182 4.989a2.708 2.708 0 0 0-.834 1.185c-.959.316-1.76 1.123-1.831 2.416-.077 2.671-.235 5.33-.431 7.986-.088.774-.15 1.562-.208 2.349-4.181 4.484-8.01 9.335-11.884 14.064a6.727 6.727 0 0 1-1.616-.135c-2.612-.536-5.224.375-7.025 2.05-3.688.232-6.923.749-10.408 3.933-5.051 4.613-6.559 10.972-7.215 17.533a8.947 8.947 0 0 0-.044.8 8.038 8.038 0 0 0-1.914 1.436 21.121 21.121 0 0 0-3.44 4.572c-.958.794-1.756 1.867-2.28 3.26-.758 2.015-1.362 4.064-1.707 6.111-.669 3.267-.884 6.685.189 9.321-.213.95-.473 1.879-.825 2.755-.988 2.465-2.068 1.115-4.916 2.775-4.789 2.792-6.651 10.074-8.516 14.864-.251.642-.484 1.286-.723 1.932a12.611 12.611 0 0 0-4.749-1.019 5.127 5.127 0 0 1-1.121.464c-.75.205-1.602.181-2.436 0-.31.087-.619.173-.918.284.068-.161.135-.32.2-.48-1.573-.552-2.94-1.739-3.162-3.391-.398-2.945-.127-5.417 1.273-8.061.919-1.731 2.259-3.201 3.244-4.895.144-.246.311-.446.475-.656a12.577 12.577 0 0 0-1.255-2.132c.523-2.222.719-4.432.684-6.628 2.163-5.926-.191-12.049-2.375-17.696-.609-1.569-1.937-2.266-3.24-2.278a3.585 3.585 0 0 0-2.108-.942c-1.666-2.926-4-5.83-6.897-6.453a74.999 74.999 0 0 0-3.903-3.36c-.132-1.195-.812-2.347-2.213-2.884-2.235-.86-4.011-1.86-5.973-3.169-1.271-.847-2.547-.63-3.484.1l-.016-.008c-1.215-.67-2.534-.767-3.832-.48-2.123.182-4.152 1.122-5.542 2.874-.902-.454-1.801-.881-2.693-1.196-1.82-.645-3.36.527-3.921 2.08-1.286-.362-2.684-.354-4.226-.058-1.802-1.048-3.83.038-4.562 1.728-3.216-.004-6.268.444-8.058 2.08a67.164 67.164 0 0 0-4.902 1.301c-.391.119-.739.32-1.046.567-.618.07-1.237.137-1.852.198-1.436.143-2.377.884-2.852 1.82-2.721.26-5.369.72-7.88 1.459-.117.009-.236.008-.353.016-1.117.093-1.993.593-2.553 1.303-.414-.184-.816-.387-1.235-.564-3.979-1.678-8.795-4.296-13.184-3.138-.967.256-1.627.894-2.007 1.666-1.093-.075-2.182-.167-3.284-.21a2.924 2.924 0 0 0-1.462.326 20.992 20.992 0 0 0-1.6-.343c-2.244-.912-4.788-1.365-6.843-.791-2.071-.254-3.961-.076-5.605 1.128a10.118 10.118 0 0 0-.555-1.113c-.684-1.159-1.215-2.115-2.596-2.637-2.659-1.004-4.748.589-5.628 2.926-1.155-.216-2.355.1-3.056 1.068-1.151.472-2.084 1.502-2.127 2.976l-.085 2.936c-.104.184-.212.368-.304.564-.491.828-.792 1.835-.923 2.93-.317 1.721-.302 3.486.016 4.892a7.867 7.867 0 0 0 2.203 3.909c1.019 1.385 2.336 2.324 3.872 2.457.293.22.609.411.961.527a34.578 34.578 0 0 0 5.575 1.324c1.596.691 3.524.795 5.307.399a36.965 36.965 0 0 0 3.808-.239c1.704.569 3.238.607 5.224-.148.154-.059.296-.131.434-.203 1.374.2 2.726.327 4.055.366 1.465.457 2.992.646 4.696.572.951-.043 1.776-.508 2.369-1.176.232-.048.467-.087.698-.139 1.277 2.952 4.649 4.321 7.844 4.055 3.24-.272 6.372-1.552 9.522-2.811 7.162 5.415 15.871 5.72 24.414 3.792.518 1.488 1.929 2.632 3.884 2.055 5.297-1.566 9.354-4.775 13.394-8.418.015-.012.023-.024.035-.036 2.5.864 5.093 1.187 7.689 1.498 3.111 1.734 6.08 3.776 8.368 6.514-.23.17-.442.363-.658.55 1.63 1.816 2.038 4.504-.408 6.505-2.044 1.675-2.406 6.237-3.439 8.681-1.865 4.414-4.473 8.456-8.228 11.486-.083.066-.169.106-.252.166-.763 1.874-1.537 3.742-2.293 5.618-2.227 2.75-7.476 8.257-10.703 7.022-.992-.378-2.575.022-3.243.859a21.72 21.72 0 0 0-1.522 2.133c-.591.383-1.075.992-1.316 1.894a20.238 20.238 0 0 1-1.762 4.942c-.116.247-.2.49-.258.73-.226.049-.452.093-.674.158-.049-2.625-3.83-4.626-5.684-2.297-2.29 2.879-3.309 5.291-3.681 8.903a125.016 125.016 0 0 0-2.227 7.12c-.101.366-.12.72-.096 1.058-1.521 2.339-3.04 4.79-4.378 7.303-3.326-.973-7.694-.759-12.215.373-2.573.356-5.027 1.15-7.185 2.535a39.782 39.782 0 0 0-4.278 2.293 100.091 100.091 0 0 1-4.662-4.44c.916-.486 1.566-1.417 1.498-2.806-.12-2.442-.492-4.67-1.144-6.83-.037-.72-.092-1.438-.142-2.157.432-1.021 1.116-1.875 1.974-2.62.856.34 1.84.376 2.776-.1 2.298-1.169 3.851-2.455 5.544-4.437.394-.464.623-1.038.72-1.642 2.106.151 4.348-1.49 3.512-4.07-.08-.25-.166-.507-.256-.766.054-.97-.422-1.948-1.164-2.644-.861-1.468-2.076-2.589-3.921-2.489-1.344-1.409-3.224-1.285-4.952-.927-5.339 1.106-10.123 3.968-15.653 4.863-5.556.899-11.195.76-16.662-.588-4.253-1.048-8.934-3.917-13.378-3.527-1.599.142-2.658.962-3.215 2.448-.325.868-.465 1.82-.463 2.799a3.368 3.368 0 0 0-2.488.357c-.312-.546-.622-1.094-.933-1.641a2.893 2.893 0 0 0-1.057-1.064l-1.424-2.004c-.692-.972-1.644-1.411-2.602-1.46a17.085 17.085 0 0 0-.865-2.929 3.402 3.402 0 0 0-.899-1.286 88.15 88.15 0 0 0-1.118-3.937c-.316-1.009-1.056-1.676-1.93-2.024a29.723 29.723 0 0 1-.945-7.315c.044-.178.071-.345.123-.53.986-3.464 2.282-6.78 3.844-10.027 1.093-2.271-.463-4.367-2.303-4.92-.135-3.571-2.048-6.661-.029-10.216 2.618-4.612 7.288-5.777 11.536-8.181 5.458-3.09 5.332-8.075 2.148-13.014-1.291-2.002-3.651-1.85-5.087-.7a6.003 6.003 0 0 0-.936-.53c-1.563.397-3.177.568-4.809.446-.438 0-.882-.033-1.347-.152-.867.116-1.709.114-2.497-.076-2.735.931-5.383 1.748-9.12-.922-2.156-1.54-3.807-3.916-5.786-5.683-2.138-1.908-4.234-3.176-5.626-5.803-.475-.898-1.166-1.385-1.91-1.569.25-3.085-4.362-5.229-6.198-1.964-2.627 4.671-2.566 9.033-1.532 13.351-.1.336-.163.7-.144 1.118.229 5.376 3.113 11.076 5.529 15.795.104.204.221.383.344.548.087.56.179 1.117.263 1.677.174 1.184.281 2.372.369 3.559-.507.712-.729 1.627-.413 2.667.36 1.184.684 2.35.98 3.525.181 1.209.429 2.409.81 3.589.428 1.327 1.339 2.043 2.346 2.271.121 1.519-.22 3.049.022 4.577.519 3.276 2.507 6.276 5.494 7.802.209.105.386.168.584.256a6.87 6.87 0 0 0-.36 1.161c-.295 1.481.254 2.739 1.301 3.783.797.796 2.012 1.254 2.687 2.116.174.222.389.39.62.533-.008.024-.012.049-.019.073-.452 1.586-.848 2.93-.875 4.255-.741.181-1.406.691-1.821 1.649-1.339 3.1-2.533 4.05-2.544 7.008-1.332 3.726-2.268 7.771.424 9.844-.019.166-.051.322-.069.487-.042.389-.007.729.06 1.047-1.571 1.486-3.119 3.074-4.155 4.841-1.153 1.967-1.227 4.385-.853 6.667-.688 3.04 1.113 6.078 3.685 8.224 1.859 1.548 4.183 1.505 6.077 2.756 1.047.692 1.719 1.744 2.204 2.944a3.494 3.494 0 0 0-.185 3.181c1.423 3.056 1.844 6.404 3.965 9.111 1.43 1.825 2.52 3.172 3.411 4.76-.396 3.046.145 5.037 2.183 7.424 1.949 2.28 3.332 5.118 5.396 7.265-.727 3.08-.152 6.253 1.516 8.925.633 3.49 2.586 6.236 6.544 6.496a5.68 5.68 0 0 0 2.032-.252c.652.382 1.345.663 2.061.787.869 2.288 2.175 4.665 3.771 6.655.366.701.88 1.322 1.693 1.832 2.059 1.936 4.444 3.141 6.965 2.824a7.482 7.482 0 0 0 2.032-.562c1.62.212 4.223-.804 6.576-1.674 5.75 4.908 15.511 4.729 19.696-.826.259.252.52.495.788.73.54 1.922 2.186 3.586 4.176 4.477 4.655 2.085 9.126.48 12.655-2.645a20.902 20.902 0 0 0 2.352 3.69c.049 1.096.545 2.196 1.508 2.846 1.235.832 1.809 1.188 2.616 1.476.765.522 1.729.79 2.869.676a3.467 3.467 0 0 0 1.414-.466c.213.002.425.007.644-.005 1.928-.107 3.457-.791 4.674-1.824a8.98 8.98 0 0 0 .715-.268 9.652 9.652 0 0 0 1.081-.564c.138 3.151 1.407 5.999 4.128 7.556.503.745 1.23 1.327 2.239 1.689.215.24.443.475.707.696 2.401 2.019 5.502 1.762 7.91-.033 2.618-1.948 3.726-4.895 3.954-8.129.973.269 1.937.44 2.886.513.594.175 1.23.193 1.842.031a11.12 11.12 0 0 0 4.205-1.08c1.491.972 3.617.894 4.599-1.04.918-1.814 1.757-3.727 2.772-5.511 1.006.459 1.972 1.219 3.06 1.38.208.029.393.044.577.057 1.02.751 2.503.898 3.796.344 2.177-.932 3.564-2.362 4.685-4.041a3.369 3.369 0 0 0 1.716-.892c1.262-1.212 2.294-2.656 2.738-4.219 1.292-1.064 2.51-2.161 3.609-3.342 3.756 1.513 9.16-1.123 13.071-3.951 1.377-.861 2.621-1.887 3.64-3.091.064-.066.133-.136.193-.2.163-.174.279-.362.397-.55.047-.064.095-.128.142-.194l.009-.016a11.264 11.264 0 0 0 1.653-3.545c.02-.076.018-.165.032-.247 2.655.287 5.323-.089 7.867-1.63 3.204-1.94 5.583-5.423 7.652-9.027l.017-.001c4.784-.687 7.904-4.268 10.446-8.248 1.409.106 2.876-.276 4.241-1.304 1.915-.435 3.648-1.567 4.524-3.375.376-.772.751-1.545 1.125-2.317 4.876-2.006 9.106-5.046 13.195-8.558 4.957-4.256 9.557-9.616 15.785-12.038 2.954-1.148 4.623-3.767 4.998-6.46 1.274.052 2.549-.18 3.68-.799 3.733-2.04 6.053-5.511 6.205-9.664.164-.236.339-.46.511-.689 2.514.454 5.168-.508 6.8-3.658a94.486 94.486 0 0 0 2.154-4.445c.655-1.261 1.339-2.513 2.019-3.767.265-.045.531-.124.795-.252 6.58-3.242 11.601-7.88 15.802-13.87 4.339-6.184 8.963-12.56 12.636-19.16 2.61-4.69 3.783-9.286 4.062-13.856 1.502-.103 3.06-1.391 2.7-3.328" fill="#030404" fill-rule="nonzero"/></g><path d="M527.892 438.842c-.054-.353-.098-.703-.189-1.065-.668-2.68-2.185-4.992-3.072-7.563a12.329 12.329 0 0 1-.303-1.023c-.828-1.457-1.09-3.017-1.141-5.088-.084-3.434-1.012-5.728-2.319-8.85-.66-1.578-1.4-2.13-1.533-3.871-.113-1.489.747-2.649.92-4.048.829-6.637-.779-5.113-2.341-9.145-1.015-2.615-.752-5.746-.279-8.764.111-3.363-.3-6.167-3.459-9.068-6.22-5.718.479-18.592-2.244-26.376-.832-2.382-3.277-3.319-4.364-5.32-1.373-2.53.539-6.563-.493-9.684-1.588-4.796-3.843-6.21-2.976-11.698.605-3.826 1.205-6.801.397-10.722-1.741-8.466-7.464-15.658-6.473-24.627.015-.144.008-.272.004-.403-.797 2.932-1.276 5.942-1.215 9.012.107 5.239 2.247 9.127 3.48 14.018 1.358 5.394-1.068 10.278-2.03 15.274-.036 1.798.314 3.48 1.012 5.271.604 1.551 1.68 2.911 2.257 4.46 1.484 3.988.185 3.836-.139 6.941-.228 2.188.587 3.771 1.952 5.434 1.292 1.573 2.324 2.054 3.102 4.013 1.117 2.812.437 6.343.37 9.323-.098 4.458-.994 9.748-.244 14.16.352 2.076 1.171 2.941 2.61 4.357 1.752 1.724 3.06 1.927 3.378 4.515.178 1.436-.262 3.021-.382 4.462-.23 2.739-.414 5.564.814 8.119.43.893 1.608 1.803 1.94 2.659.918 2.374-.158 1.814-.846 3.972-2.148 6.724 6.161 9.389 6.448 15.869.158 3.556.222 4.901 1.621 8.124 2.731 6.296 2.26 12.155-1.633 17.813-.527.766-.462 1.923 0 2.694 2.669 4.465-.379 13.93-1.631 18.721-1.22 4.661-4.303 7.168-6.305 11.288-2.475 5.087-4.022 9.545-8.191 13.637-2.979 2.926-5.163 4.464-7.245 7.699-2.146 3.332-5.395 3.623-8.023 6.517-2.18 2.4-2.861 5.867-5.049 8.183-1.418 1.499-3.28 2.049-5.086 2.743-.334.056-.681.19-1.03.428l-.02.014c-1.02.46-1.991 1.03-2.802 1.95-1.254 1.421-1.942 3.428-2.674 5.313-2.055 3.021-4.41 5.425-8.056 3.999-1.094-.428-2.45.288-3.012 1.225-.536.895-.798 1.487-.923 2.224a2.689 2.689 0 0 0-.367.815c-.28 1.061-.694 1.912-1.216 2.597-1.402 1.379-3.293 2.165-5.312 1.603-1.05-.294-1.908.026-2.488.626a2.505 2.505 0 0 0-.981 1.288c.077.138.139.282.191.427a2.75 2.75 0 0 0 .16 1.304 3.395 3.395 0 0 1-.878 2.028c-.601.643-1.396.975-2.252 1.092-.361.049-.72.076-1.084.092-.173.008-.348.011-.521.027l-.02.001c-1.692-.997-4.601.428-4.067 3.008.082.397.134.771.168 1.127-.026 1.058-.134 1.978-.33 2.749-.814 1.94-2.904 2.663-5.435 2.713-.153-.05-.303-.097-.463-.157-.609-.203-1.208-.117-1.733.125-1.223.183-2.219 1.44-2.204 2.643.059 4.484-2.856 6.164-6.66 7.032-1.455-.421-3.02.075-3.489 1.735-1.184 4.19-2.784 5.702-7.026 5.878-1.661.07-2.672-.37-4.226.491-4.939 2.733-2.806 11.299-11.42 9.152-1.788-.445-3.234.833-3.375 2.572-.445 5.42-4.849 10.108-10.387 10.577-3.105.263-6.048-1.686-8.996-.04-2.376 1.326-2.474 3.338-3.502 5.7-2.247 5.155-8.226 8.431-13.552 5.61-1.843-.976-3.902.252-4.014 2.302-.386 7.12-9.364 4.183-12.721 3.226-1.687-.483-3.355.856-3.375 2.57-.11 8.942-13.077 10.266-13.614.399-.132-2.425-2.766-3.361-4.552-1.885-5.415 4.478-12.379 1.909-14.206-4.467-.573-2-2.978-2.512-4.457-1.177-3.964 3.572-10.195 2.972-13.285-1.508-.922-1.336-2.96-1.902-4.188-.54-4.011 4.442-8.24 3.592-12.944.956-1.87-1.047-2.844-1.692-4.995-1.462-2.42.259-4.461 1.888-6.897 2.228-4.758.663-8.363-2.004-9.987-5.824-1.303-2.017-2.259-4.262-3.816-6.074-.707-.178-1.496-.258-2.733-.483-2.194-.4-4.287-1.116-5.859-2.804-1.64-1.761-1.995-3.88-2.227-6.175-.236-2.329.107-4.989-.496-7.241-.408-1.523-1.246-2.953-2.174-4.304-.1-.064-.186-.129-.288-.195-1.528-.952-3.334-1.784-4.231-3.48-.913-1.725-.491-2.846-.421-4.614.044-1.102.905-2.659-.006-3.728-.429-.503-1.988-.172-2.566-.658-1.279-1.074-2.083-1.032-2.548-2.898-.267-1.063.669-2.494.308-3.37-.272-.657-1.854-1.21-2.296-2.086-.834-1.65-.578-4.088-.664-6.054-2.147-3.276-3.056-2.12-6.458-3.696-2.746-1.273-4.757-3.265-5.414-6.29-.395-1.812-.187-3.724.353-5.535.277-2.217 1.132-4.252 2.936-6.335.867-1.002 1.583-1.792 2.127-2.561.369-.973.57-2.196.512-4.02a11.773 11.773 0 0 0-.096-1.12c-1.071-2.568-1.192-5.283-.407-7.98.943-3.24 5.545-7.797 5.06-11.061-.368-2.468-2.035-.43-3.767-2.118-1.292-1.258-.416-2.644-.849-4.044-.913-2.954-4.185-2.985-5.123-5.953-.626-1.981-.358-4.511-.21-6.883-.096-.192-.188-.382-.327-.602-1.653-2.61-3.149-3.151-2.94-6.6-1.221.158-2.663-.826-2.289-2.406 2.405-10.15-4.203-17.048-5.29-26.717-.672-5.984 1.759-11.26 4.558-16.328a16.224 16.224 0 0 1-.98-1.867c-3.404 4.106-5.98 8.906-6.459 14.319-.56 6.325 2.263 12.636 4.087 18.56.984 3.199 2.877 7.124 2.761 10.655.125.174.239.361.304.6.052.192.069.398.053.608.192.369.276.812.17 1.317-.387 1.833-1.164 4.04-.359 5.871.567 1.286 2.068 1.925 2.868 3.01 1.199 1.623 1.061 3.016 1.244 4.971.393 4.171 3.028 4.64 4.985 7.452.575.827.755 1.537.658 2.3.098.051.197.104.297.153.116 2.442 1.444 4.362 3.349 5.203-3.638 6.397-8.533 14.927-5.348 20.765-7.404 8.99-4.384 21.799 6.126 26.706.001 1.736.461 3.185 1.745 4.985.317.445.707.737 1.123.923-1.616 4.548 1.794 8.248 5.845 10.689-3.849 6.173.124 13.607 7.119 14.833-.859 5.466-.931 11.22 2.782 15.696 2.388 2.879 5.644 4.443 9.13 4.363 1.116 8.659 8.87 15.34 18.142 13.265 2.955-.66 5.024-1.613 8.082-.584 2.168.73 3.538 1.983 5.997 2.311 3.855.513 7.483-.627 10.424-2.907 4.492 4.248 11.035 5.147 16.472 2.28 3.62 6.678 11.253 8.943 18.031 5.831 3.944 10.945 20.344 10.432 23.06-1.34 6.304 1.179 13.466.533 15.758-5.464 3.346.903 6.8.559 10.124-1.123a16.964 16.964 0 0 0 5.626-4.582c1.586-2.014 2.093-5.083 4.238-6.051 2.114-.953 5.142.085 7.492-.357 2.564-.484 4.999-1.598 7.074-3.18 3.248-2.472 5.236-5.699 6.132-9.452 2.501.145 4.938-.384 7.189-1.843a12.542 12.542 0 0 0 2.972-2.705c.62-.787 1.445-3.688 2.084-4.191 1.117-.88 2.493-.944 3.927-.943 3.693-1.34 5.378-4.653 8.044-7.321.849-1.024 1.814-1.84 2.845-2.592a20.405 20.405 0 0 1 2.539-2.017c.872-.871 1.728-1.76 2.492-2.762 1.026-1.345 1.964-2.777 3.237-3.909 2.932-2.601 6.372-3.551 9.161-6.195.198-.292.391-.57.594-.874a11.601 11.601 0 0 1 1.737-2.031c0-.027.003-.051.003-.077.034-.028.06-.059.096-.086.202-.14.385-.3.581-.449.361-.303.737-.589 1.117-.871 1.551-1.305 2.992-2.741 4.615-3.965.313-.236.636-.441.961-.633 4.784.174 9.284-3.096 11.126-7.566.925-.282 1.76-.512 2.537-.782 1.524-.311 2.997-1.003 4.428-2.002 1.273-.889 2.469-1.97 3.415-3.205 1.522-1.988 2.108-4.753 3.962-6.497.47-.295.958-.594 1.48-.918 3.659-2.276 4.992-4.793 7.224-8.258 3.282-5.094 9.031-7.802 12.702-12.616 4.07-5.34 8.521-10.644 11.937-16.432 1.629-2.763 2.661-5.81 4.261-8.566 1.591-2.738 3.928-4.936 5.59-7.624a17.452 17.452 0 0 0 1.429-2.892c.283-1.317.541-2.686.811-4.142.13-.71.273-1.419.418-2.128.162-3.819-.454-7.707-.39-11.842.033-2.21.633-4.054 1.32-6.133.749-2.275 1.073-4.156 1.162-6.028" fill="#030404" fill-rule="nonzero"/><path d="M319.624 474.623c.189.368.265.772.248 1.153a28.285 28.285 0 0 0 4.317-.713c1.067-.256 1.643-.959 1.831-1.765a21.291 21.291 0 0 1-6.396 1.325m27.88-43.529c-2.252-.426-5.253-3.317-7.999-2.212-.884.356-1.501.863-2.088 1.66-.525.714-.537 2.724-.964 3.071-1.606 1.307-3.326.459-5.077-.352a2.25 2.25 0 0 1-.427-.029c-1.924-.326-5.297 3.365-7.513 3.812-2.387.481-4.681.672-6.953 1.057-2.096 1.321-3.02 2.103-6.612 2.539-4.458.54-7.594 2.522-12.282.76-2.713-1.019-4.11-3.111-7.285-2.707-3.897.497-8.82 1.596-12.779.919-1.798-.308-3.098-1.695-4.909-1.719-2.463-.033-3.923 3.127-6.389 2.867a2.71 2.71 0 0 0-.467-.004c-.112-.351-.173-.836-.157-1.52.032-1.374-1.248-2.758-2.667-2.667-3.183.205-5.821 5.552-8.468 4.98-.98-.212-1.789.087-2.368.623-.705.382-1.169 1.116-1.021 2.214.866 6.507-4.698 14.956.677 20.686 1.443 1.537 3.721 2.624 5.845 2.61.8-.005 1.655-.222 2.395-.47.1-.034.215-.078.335-.127 1.944 3.027 5.57 4.185 9.526 3.04 2.392-.692 4.655-2.712 7.378-2.059 1.038.25 2.178 1.544 3.169 1.959 1.487.624 2.821.431 4.117.145 1.563-.961 3.232-1.626 5.206-1.232 2 .4 3.4 1.695 5.574 2.007 3.099.444 6.308-.643 9.346-1.096 5.109-.761 9.589 1.171 14.654 1.053 1.75-.04 3.396-.378 4.954-.928a2.66 2.66 0 0 0-1.484-.054c-4.682 1.125-8.763.39-12.895-2.114-1.843-1.117-2.569-1.878-4.716-1.902-3.597-.04-7.197 3.258-10.975 1.494-1.033-.484-1.477-2.294-2.93-2.889-.843-.347-1.751-.391-2.651-.331-.873.459-1.784.823-2.753.998-3.25.584-6.256-1.154-9.487-1.195-3.203-.04-6.713 2.175-9.804 1.635-1.995-.348-2.797-1.982-4.671-2.23-4.28-.569-7.346 1.907-9.694-3.446-1.928-4.392-.398-10.202.67-14.606.307-1.262 1.458-1.588 2.416-1.276a8.596 8.596 0 0 1 1.904-1.122c.851-.371 1.827-.83 2.808-1.014.271-.193.531-.385.824-.585.872-.597 2.162-.163 2.667.699 2.559 4.369 6.593.304 9.664.312 3.191.01 5.889 1.704 9.217 1.528 3.406-.18 6.387-1.176 9.812-.798 3.036.338 5.91 1.37 8.895 1.956 5.916 1.167 8.807-.876 13.555-3.53 2.85-1.596 5.688-1.827 8.822-2.531 2.814-.632 5.242-2.319 8.019-2.904 2.441-.513 4.881.115 7.331.413.089-.058.172-.106.264-.169.848-.581 1.417-1.547 2.421-1.961 1.499-.619 2.839.185 4.239-.174 2.222-.569 3.678-1.881 4.701-3.532.095-.44.319-.842.62-1.14.12-.254.239-.51.344-.773-1.835.059-3.388.707-3.884 2.361" fill="#030404" fill-rule="nonzero"/><path d="M362.266 466.518c-2.861-2.804-7.011-4.615-11.047-3.739-7.338 1.595-10.408 11.387-19.154 7.573-.104-.045-.204-.068-.306-.098a26.978 26.978 0 0 1-3.705 2.178c-.232.97.095 1.991 1.319 2.524 4.866 2.124 9.768 2.292 14.384-.645 3.072-1.955 4.94-5.129 8.717-5.728 5.001-.793 8.836 4.053 10.337 8.733-3.502 4.395-6.145 8.211-6.314 13.788-1.875.436-3.379 1.902-4.472 4.159-2.116 4.368-1.435 8.676-5.816 11.543-2.475 1.62-4.542 2.341-6.559 4.728-.148.176-.305.372-.464.57a9.148 9.148 0 0 0-.744-2.024c-1.061-2.048-4.319-1.524-4.873.636-.364 1.412-1.91 7.836-3.568 11.731-.178.16-.356.32-.528.496.006-1.013.044-1.968.002-2.528-.196-2.632-3.48-3.636-4.968-1.347-1.49 2.292-2.622 4.658-3.37 7.29-.467 1.644-.76 3.328-1.284 4.91a227.752 227.752 0 0 1-1.911 3.495c-.061.068-.109.144-.173.213a2.597 2.597 0 0 0-.699 1.36l-.001.003c-1.31 2.295-3.046 6.835-5.246 8.357-2.478 1.715-5.644-.568-8.109-.828-1.753-.185-3.123.176-4.772.678-1.239.377-4.427 2.76-5.237 2.59.042.01-2.183-3.252-2.212-3.278-1.403-1.312-2.978-1.98-4.654-2.252.411-2.29.412-4.51.047-6.882 7.008-4.646 15.775-9.525 15.44-18.897-.036-1.023-.644-1.977-1.54-2.413a12.223 12.223 0 0 0-2.225-.2c-1.456.101-2.871.3-4.299.424-1.551.24-3.119.494-4.743.525-1.453.028-2.858.044-4.24.095-3.389.765-6.98 1.561-10.622 2.192a1.985 1.985 0 0 1-.656.108c-4.124.69-8.299 1.154-12.31 1.056a2.109 2.109 0 0 0-.51 1.154c.441.018.878.042 1.342.024 1.064-.038 1.671.64 1.832 1.44 8.258.239 16.978-1.936 24.94-3.245 2.718-.447 7.064-1.459 7.68 2.339.883 5.441-9.02 9.264-11.862 12.069-1.063 1.048-1.663 2.225-2.016 3.48.481 1.631 1.009 3.227.83 5.089-.321 3.328-1.262 4.11 1.343 6.786.02.02.036.038.055.06 3.225.65 4.38 5.838 8.476 5.513 2.124-.167 3.648-1.572 5.586-2.157 4.971-1.496 5.364.202 9.552.686a7.507 7.507 0 0 0 2.582-.16c1.901-1.208 3.305-2.717 4.434-4.421 2.838-6.189 4.914-12.676 6.706-19.84.473-1.896 1.249-4.729 3.789-4.493.877.082 1.385 1.097 2.077 1.265.926.224 1.716.107 2.414-.229.32-.583.636-1.166.961-1.742.125-.381.233-.744.372-1.138.712-2.043 1.555-4.406 3.497-5.583.872-.529 1.664-.521 2.624-.811 2.999-.906 5.907-1.897 8.416-4.114 3.091-2.731 5.556-6.275 7.934-9.75.589-1.373 1.26-2.684 2.182-3.596.722-.713 1.631-1.268 2.599-1.75.935-1.235 1.684-2.582 2.373-3.967.236-2.973 1.287-5.665 3.36-8.187 1.059-1.286 2.812-2.32 3.106-4.086.624-3.744-3.624-9.307-6.099-11.732m-112.878 48.366a20.833 20.833 0 0 1-3.603-2.272c-1.987-.896-4-1.036-5.424 1.556-.515.936-.656 1.977-.617 3.025-3.112-2.996-5.896-6.313-7.567-10.341-3.055-7.363-1.484-15.35.025-22.891a2.79 2.79 0 0 0 .019-1.007c-.441 0-.893-.158-1.299-.557-.029-.029-.05-.059-.078-.088.157.359.193.785.002 1.284-1.2 3.143-3.256 5.752-4.184 9.019-1.196 4.205-.836 8.365.094 12.577 1.934 8.761 6.906 14.169 13.414 19.216 3.943-.149 1.311-4.92 2.934-7.177 1.337-1.862 3.532-1.851 5.549-1.45.447.09.873.198 1.301.304a2.443 2.443 0 0 0-.566-1.198m-8.635-66.304c-.015.04-.035.076-.047.118.01.028.022.05.03.08.128.51.233 1.022.326 1.532 2.318 3.816 3.566 8.298-.686 11.54-2.539 1.936-5.976 2.482-8.678 4.194-2.028 1.286-3.513 2.694-4.618 4.327-1.866 3.485-2.448 7.799 1.205 10.576.135.104.248.216.348.333a2.294 2.294 0 0 1 1.544.288c-3.249-4.077-.985-8.9 2.968-12.149 4.313-3.545 10.644-4.037 11.337-11.02.383-3.861-.35-8.232-3.729-9.819m238.376-74.84c-.445-.921-.578-1.893-.518-2.892-.498-2.536-.922-5.097-.398-7.577.158-.744.324-1.448.49-2.139l.004.002c.689-2.852 1.332-5.368.874-8.668-.438-3.159-1.313-6.456-2.325-9.48-.933-2.791-2.357-5.106-2.748-8.04-.485-3.647.531-6.927-.495-10.542-1.016-3.581-2.537-6.581-3.621-9.826l-.057-.011a22.62 22.62 0 0 0-.392 3.495c-.068 2.152.466 4.237.717 6.346.044.362.077.724.099 1.088.021.375.032.751.021 1.128-.031 1.215-.208 2.411-.401 3.606-.062 2.172-.318 4.358.173 6.482.684 2.963 2.323 4.91 3.428 7.658.251.621.464 1.281.663 1.954-.928 2.767.49 6.506 1.368 9.562 1.626 5.66-2.448 10.588-2.487 16.046-2.803.195-5.411 1.655-7.268 4.087-2.613 3.424-2.701 7.707-2.197 11.845-3.418-.26-6.636.487-8.818 3.811-2.752 4.195-3.297 9.599-2.745 14.64.359.493.505 1.161.351 1.723-.02.069-.067.116-.092.18.002.013.002.025.005.038-.011.003-.02.007-.029.011a1.824 1.824 0 0 1-1.09 1.016c-.104.091-.22.176-.357.252-4.845 2.693-2.16 8.765-6.479 11.639-1.508 1.004-3.104.886-4.837.738-2.76-.237-4.86-.389-7.2.967a9.31 9.31 0 0 0-1.887 2.363c-7.933-4.13-16.845 10.226-16.173 19.481-7.925 2.52-11.304 17.425-11.932 24.087-.111 1.162.296 4.542-.157 5.37.23.148.462.3.693.448a4.769 4.769 0 0 0-1.564-.428c-1.707.656-2.869.638-4.277 1.988-3.747 3.596-5.72 10.186-6.823 15.73-2.051-.771-4.223-.912-6.292-.404.255-3.142-.013-6.27-.768-9.482 7.836-12.062 8.807-30.278-3.603-39.602-7.164-5.384-15.34-9.663-23.724-12.803a17.022 17.022 0 0 0-.894-.299c-.146.444-.304.887-.475 1.327 4.633 3.365 9.539 6.657 13.629 10.623 3.735 2.038 7.671 4.37 10.567 7.229 8.481 8.375 5.245 23.295-.825 31.9-.775 1.096-.536 2.168.152 2.905 1.045 4.4.942 8.368-.282 12.735-.7 2.499 2.63 4.589 4.458 2.595 2.173-2.371 5.453-2.983 8.122-.611 1.338 1.187 4.126.955 4.458-1.177.7-4.504 2.07-14.831 6.722-17.083.683-.329 2.26.419 3.262-.012.96-.413 1.554-1.073 2.068-1.909 1.97-3.198.713-9.027 1.43-12.583.586-2.908 4.148-16.449 8.586-15.623 1.758.328 4.116-1.214 3.281-3.28-1.369-3.385-.432-6.13.908-9.3.384-.908 1.588-3.538 3.136-5.368.775-1.128 1.753-2.044 3.017-2.566 1.272-.526 2.692-.376 4.062-.422.046-.022.09-.049.14-.068.06-.024.113-.058.172-.084 1.417-1.208 2.68-2.594 4.44-3.744 3.198-2.089 7.6-.301 10.298-2.952.927-.912 1.67-1.841 2.351-2.736.976-3.208 2.923-5.804 6.839-6.201 1.736-.176 3.018-1.56 2.572-3.377-1.363-5.551-1.916-18.222 8.07-15.907 2.107.488 3.631-1.269 3.282-3.28-.691-3.968-1.907-15.845 6.31-12.701 1.799.686 3.116-.834 3.26-2.428a28.144 28.144 0 0 0-.193-1.351c-.02-.047-.032-.095-.055-.139" fill="#030404" fill-rule="nonzero"/><path d="M259.836 13.808c-22.578 21.064-30.904 51.332-35.904 80.819-5.925 34.942-10.904 70.068-16.317 105.093 1.401-.635 2.841-1.312 4.313-1.917 4.999-32.408 9.83-64.848 15.055-97.219 4.908-30.4 12.305-62.139 35.681-83.948 1.887-1.76-.946-4.583-2.828-2.828m315.414 246.22c-4.257-15.803-19.222-26.227-35.601-24.301-11.323 1.332-19.672 7.74-26.715 15.81-3.201 4.334-6.321 8.696-8.848 13.523a90.109 90.109 0 0 0-5.272 12.165c2.408-3.516 5.163-6.769 7.924-10.133 3.532-4.301 6.884-8.517 10.644-12.521 8.124-9.127 17.962-15.775 31.227-13.33 24.972 4.602 23.528 32.13 23.036 51.71a675.256 675.256 0 0 1-1.581 32.434c-.439 5.971-1.274 11.248-3.647 16.799-1.484 3.472-1.897 6.496-2.087 10.264-.51 10.064-5.253 18.488-11.097 26.456-2.721 3.711-5.496 7.853-8.916 10.956-5.273 4.784-11.989 4.133-18.541 3.435-1.266-.135-2.05.517-2.371 1.404 2.909 11.218 3.385 22.792 3.524 34.35.013.004.027.004.041.007 1.535-6.375 2.906-12.545 3.252-19.215-.182-3.642-.458-7.284-.673-10.894 6.749.406 13.285-.331 18.539-5.315 6.072-5.76 11.573-13.736 15.628-20.995 1.804-3.233 3.382-6.674 4.433-10.232 1.417-4.801.789-9.612 1.791-14.405.874-4.192 3.464-7.812 4.328-12.073 1.04-5.135 1.146-10.515 1.485-15.726a688.648 688.648 0 0 0 1.336-32.445c.163-9.2.579-18.753-1.839-27.728" fill="#21130d" fill-rule="nonzero"/><path d="M559.873 254.397c-1.243-1.812-2.85-3.291-4.638-4.526-2.806-1.544-5.633-1.877-8.646-2.036-1.987.066-4.031.303-6.111.68-11.333 2.056-18.729 10.478-24.915 19.663-5.708 8.473-7.969 18.613-5.473 28.629 2.572 10.318 19.161 24.118 12.476 34.718-1.403 2.224 1.412 5.098 3.648 3.648 2.101-1.364 4.368-2.856 6.749-3.732 1.972-.866 4.04-1.499 6.204-1.694 1.607-.145 2.991.111 4.327.543-3.46-2.756-7.881-4.163-12.359-3.732-.557.2-1.113.417-1.664.664.256-3.847-.952-7.74-2.937-11.411-4.685-8.665-11.609-15.505-12.116-25.914-.528-10.858 5.431-19.799 12.447-27.552 5.588-6.175 17.15-11.726 25.565-8.832 3.92 1.064 7.107 3.492 10.073 6.505-.736-1.943-1.448-3.897-2.63-5.621m7.48 56.84c.37-1.612.694-3.243.936-4.9.524-3.549.998-7.152 1.25-10.756-.052-2.381-.22-4.753-.603-7.095-.549-3.356-1.443-6.778-2.685-9.948-.282-.717-1.026-2.681-1.942-4.468.106 1.782.027 3.598.099 5.346.127 3.132.245 6.28.195 9.414-.028 1.859-.159 3.716-.34 5.571-.19 3.267-.588 6.539-1.031 9.788-.735 5.396-1.952 10.605-4.581 15.077a42.687 42.687 0 0 1-5.071 8.336c4.893-2.504 8.956-7.152 11.849-11.958a81.163 81.163 0 0 0 1.924-4.407" fill="#21130d" fill-rule="nonzero"/><path d="M533.9 291.456c-.697-1.305-2.301-3.128-4.053-4.401a12.242 12.242 0 0 0-3.336-.995c-4.202-.606-8.128 1.052-10.538 4.538-1.957 2.83 2.664 5.5 4.604 2.692.986-1.424 2.179-2.044 3.438-2.151 4.016-1.196 8.497 2.956 11.588 6.549-.186-2.149-.643-4.245-1.703-6.232m25.326-4.591c-1.17-4.192-3.272-8.124-6.203-11.23.525 4.578 1.413 8.689 3.651 12.889a59.574 59.574 0 0 1 2.712 5.781c.584-2.393.332-4.934-.16-7.44M214.94 325.056a1.372 1.372 0 0 0-.46-.547c-12.69-8.866-29.874-16.472-44.99-10.04.099-1.774.474-3.468 1.092-5.138 7.538-1.467 15.195-.771 22.498 1.412 4.996.953 10.448 2.596 15.016 5.086-.55-.646-1.1-1.292-1.676-1.917-.987-.925-1.991-1.837-3.076-2.684-1.04-.747-2.164-1.437-3.314-2.089a67.238 67.238 0 0 0-1.608-.814c-9.281-3.516-19.225-4.854-29.033-2.845a2.419 2.419 0 0 0-.397-.159c-.091-.025-.176-.03-.264-.045-.115-.097-.231-.195-.372-.28-3.948-2.412-5.491-7.609-6.536-11.88-1.352-5.519.849-10.439.493-15.848-.239-3.639-3.069-7.224-4.345-10.48-1.796-4.581-2.796-9.376-3.235-14.271-.303-3.392-5.64-3.424-5.333 0 .484 5.388 1.481 10.619 3.425 15.69.848 2.212 2.349 4.398 3.04 6.622 1.405 4.528.056 7.884-.016 12.239-.125 7.601 2.585 17.543 9.159 22.081a21.66 21.66 0 0 0-.9 6.26c0 .92.388 1.584.949 2.012-.057.943.908 1.938 1.959 1.3 14.024-8.504 30.564-2.058 43.236 6.154-7.823.132-11.943 7.674-20.13 8.748-3.588.47-6.982-.17-10.474-1.044-1.932-.484-4.368-1.88-6.35-1.607-.66.091-1.14.197-1.552.383-.669.177-1.221.61-1.484 1.281-.06.448-.122.889-.152 1.357.007.012.011.027.019.039.761 7.333 3.379 15.549 8.968 20.699-11.556 16.421-16.295 36.929-13.213 56.797 3.746 24.173 20.741 43.832 34.39 63.236 1.96 2.787 6.586.125 4.606-2.692-12.538-17.821-28.539-36.132-33.13-57.963-4.228-20.105.636-41.232 12.69-57.753.894-1.225.492-2.427-.41-3.152.058-.661-.174-1.353-.846-1.945-4.712-4.156-7.098-11.218-7.728-17.283 2.896.544 6.936 1.992 7.832 2.131 2.44.376 4.928.554 7.385.234 8.276-1.073 13.444-10.45 22.021-8.572 1.027.31 2.58-.008 2.808-1.141.128-.636-.141-1.153-.562-1.572" fill="#21130d" fill-rule="nonzero"/><path d="M179.547 333.786c.922.259 1.849.523 2.778.777a2.893 2.893 0 0 0-.292-.568c-3.973-5.996-7.489-13.321-4.536-20.546.076-.183.123-.358.158-.527-.974.139-1.948.26-2.907.501-1.067.27-2.063.634-3.115.827-1.689 6.456.454 13.156 3.664 18.936 1.434-.14 2.848.208 4.25.6m3.666 17.24c-.876-.864-1.886-2.26-3.081-2.867-.164-.261-.339-.515-.476-.792-.425-.747-1.577-.076-1.152.673.1.176.212.323.316.49a.741.741 0 0 0 .152.537c.429.597.917 1.143 1.464 1.635.265.264.579.233.809.072.015.013.03.028.044.044-.704.206-.673 1.372.131 1.292.196-.018 1.271 1.356 1.331 1.488.504 1.089-.583 1.844-1.146 2.476-.72.812-1.204 1.738-1.668 2.713-.213.453.095.865.46.979-.782.945-1.549 1.901-2.212 2.95-.461.727.692 1.395 1.151.672 1.579-2.493 5.927-5.818 5.949-9.066.011-1.53-1.077-2.316-2.072-3.296m-14.855-35.07c-.502.384-1 .769-1.504 1.15-.484.367-.848.644-1.111.084a.574.574 0 0 0 .037-.297 23.724 23.724 0 0 1-.16-1.577c.043-.576.136-1.144.046-1.73a5.9 5.9 0 0 1 .204-.944c.258-.82-1.028-1.17-1.287-.354a6.646 6.646 0 0 0-.197.893.733.733 0 0 0-.091.268c-.201 1.596-.452 3.717.657 5.073 1.172 1.434 3.146-.701 4.079-1.414.672-.515.009-1.674-.673-1.152m37.079 30.988c-.012.014-.014.029-.028.044-1.5 1.61-3.266 2.985-5.297 3.862-.852.367-2.364.618-3.911.963-1.041.279-2.082.552-3.092.955a7.75 7.75 0 0 0-.353.178c-.027.022-.061.034-.084.058-.06.021-.111.058-.169.082-.723.435-1.242.983-1.387 1.704.007.411.201.792.677.987.922.373 2.327-.057 3.231-.305.021-.006.04-.015.06-.022a10.251 10.251 0 0 0 1.656-.44c2.259-.829 4.42-2.189 6.247-3.744 2.12-1.805 3.306-3.832 4.364-6.017-.622.584-1.274 1.132-1.914 1.695m16.786 103.985a41 41 0 0 0 4.027.548c6.898.545 12.376-1.301 17.89-4.797-15.358 4.757-31.681-.287-39.11-15.338-7.407-15.004-3.783-29.188 1.733-43.912-2.971 4.258-5.589 8.87-7.317 13.659-1.231 3.411-1.878 6.973-2.362 10.555-.078.586-.158 1.168-.234 1.749-.11 8.081 1.782 16.077 6.942 23.855 4.63 6.978 11.148 11.494 18.431 13.681m78.544-47.946c-1.85-4.37-4.413-8.188-7.949-10.863 5.892 5.64 8.055 14.435 6.237 22.573-2.309 10.339-11.473 14.406-21.31 14.592-12.898.244-25.643 1.124-34.588 11.648-1.658 1.951 1.158 4.795 2.829 2.828 7.971-9.376 19.148-10.301 30.667-10.464 7.644-.109 15.4-1.542 20.965-7.254 2.797-2.871 4.593-6.37 5.509-10.119.268-4.436-.72-9.068-2.36-12.941m73.499 34.209c-8.997-4.804-18.687-8.544-28.12-12.398a88.19 88.19 0 0 1-5.624-2.552c-3.539-1.462-7.081-2.999-10.301-4.994-5.295-3.282-10.318-7.264-14.867-11.684 3.008 4.407 6.44 8.45 10.536 12.088a91.146 91.146 0 0 0 5.883 4.776c.18.108.352.227.532.331 7.446 4.315 15.822 7.009 23.684 10.435 8.586 3.744 19.628 7.118 25.338 14.982 6.216 8.56 5.766 19.51 1.215 28.663-1.143 2.299 2.307 4.327 3.453 2.02 7.595-15.279 3.871-33.34-11.729-41.667m163.286-59.862c-.929-1.816-1.498-3.736-1.804-5.749-.161-1.069-1.506-1.66-2.46-1.397-1.144.313-1.558 1.388-1.397 2.458.356 2.359 1.123 4.586 2.207 6.707 1.174 2.292 4.626.271 3.454-2.019m-205.541-54.583c-12.106 1.953-22.806 1.639-34.079-2.909 8.725-12.031 20.484-15.087 34.924-14.214 6.167.372 11.315 2.408 17.096 4.288 3.901 1.27 7.869 2.256 11.873 3.091-8.197 5.871-20.132 8.181-29.814 9.744m37.905-10.939c-14.787-2.394-28.339-9.312-43.469-8.94-13.579.334-23.278 4.914-31.14 16.054a1.25 1.25 0 0 0-.18.365c-.836.485-1.184 1.737-.084 2.216 11.75 5.124 22.718 6.057 35.389 4.172 11.367-1.692 24.923-4.232 34.217-11.468.219-.169.343-.36.408-.555 1.38.256 2.762.504 4.148.728 1.679.272 2.402-2.297.711-2.572" fill="#21130d" fill-rule="nonzero"/><path d="M387.896 308.043c-7.856-.236-14.9-2.775-22.635-5.125a159.962 159.962 0 0 0-26.36-5.622c-11.808-1.5-23.421-1.876-34.532.808-1.946.646-3.848 1.446-5.677 2.591-2.752 1.721-5.209 4.023-7.201 6.655 16.716-9.327 36.004-8.224 54.348-4.982 10.92 1.931 21.581 6.55 32.501 8.646a28.663 28.663 0 0 0 9.453-.89c1.8-.474 3.334-1.216 4.791-2.062-1.567.086-3.129.07-4.688-.019m-53.642 34.716a50.08 50.08 0 0 1-7.488.449c-3.372.3-6.84.115-10.177-.031a21.034 21.034 0 0 1-6.359-1.274c2.063 1.528 4.244 2.772 7.027 3.685a41.07 41.07 0 0 0 6.24 1.509c3.546.258 7.152.152 10.697-.318 4.873-1.223 10.14-3.527 13.551-6.938-4.372 1.45-8.936 2.464-13.491 2.918m-.342 123.596c-8.618 4.619-17.683 8.171-27.21 10.405-9.95 2.332-19.958 2.295-30.034 3.528-4.423.54-8.524 1.54-12.671 3.167-5.053 1.983-9.52 4.111-15.033 2.315-7.428-2.423-12.427-7.674-20.774-6.03-3.364.663-1.94 5.806 1.418 5.143 9.332-1.839 16.461 8.271 26.272 6.835 3.702-.54 7.04-2.212 10.509-3.512 5.416-2.031 10.895-2.763 16.66-3.15 19.021-1.274 36.616-5.017 53.556-14.097 3.025-1.621.335-6.228-2.693-4.604m-54.23 49.116c-.027-.065-.061-.125-.092-.188-5.219 1.577-11.465 1.528-16.727 1.491-4.03-.03-7.717-.526-11.469-1.226-.975-.433-2.339-1.117-3.189-.822-.667.23-.799.622-.646 1.062a.656.656 0 0 0 .168.466c.102.113.22.204.327.312.64.736 1.655 1.433 2.016 1.617.02.011.04.009.06.019 2.524 1.508 5.671 2.158 8.472 2.614 2.779.452 5.311.003 7.82-.729a30.468 30.468 0 0 0 4.115-.911c2.914-.872 6.657-1.67 9.145-3.705" fill="#21130d" fill-rule="nonzero"/><path d="M205.181 320.46a109.432 109.432 0 0 1-3.617-2.42c-.337-.14-.671-.282-1.011-.417-2.336-.696-4.633-1.621-6.921-2.551a143.733 143.733 0 0 1-3.344-1.24 20.877 20.877 0 0 0-1.32 7.27c0 4.929 1.711 9.452 4.553 13.034 3.679-1.869 6.995-4.22 10.819-5.822.216-.092.46-.163.697-.239 1.222-.725 2.55-1.233 3.912-1.385a19.502 19.502 0 0 1 4.138-1.006c-2.544-1.862-5.238-3.529-7.906-5.224zm159.018-9.057c-1.861-.276-3.709-.691-5.548-1.185-7.261-1.69-14.416-3.927-21.672-5.754-2.03-.23-4.066-.38-6.094-.41-3.102-.046-6.639-.527-9.856.004-.299.097-.592.209-.888.316a23.442 23.442 0 0 0-.423 4.366c0 6.23 2.457 11.872 6.435 16.056 5.849-.697 11.78-1.368 17.565-2.561 6.921-2.096 13.489-5.029 19.607-9.047a48.425 48.425 0 0 0 1.692-1.501l-.818-.284z" fill="none" stroke="#21130d" stroke-width="1.33" stroke-linecap="butt" stroke-linejoin="miter" stroke-miterlimit="10"/><path d="M467.707 67.844c-.117-1.074-.834-2-2-2-.989 0-2.117.919-2 2l.639 5.836c.116 1.075.835 2 2 2 .991 0 2.117-.92 2-2l-.639-5.836m2.236 16.85c-.763-2.45-4.627-1.404-3.857 1.062.48 1.538.684 3.126.44 4.73-.164 1.066.269 2.15 1.396 2.458.945.262 2.297-.321 2.46-1.396.354-2.326.265-4.594-.439-6.854m1.194 16.466c-.133-2.561-4.133-2.577-4 0 .164 3.18.865 6.128.617 9.355-.197 2.567 3.804 2.553 4 0 .248-3.228-.453-6.175-.617-9.355m-2.927 19.356l-.243 8.003c-.077 2.575 3.923 2.572 4 0l.243-8.003c.077-2.574-3.923-2.572-4 0m2.445 20.838c.104-1.077-.992-2-2-2-1.166 0-1.896.92-2 2a44.874 44.874 0 0 0-.178 5.831c.089 2.567 4.089 2.579 4 0a44.874 44.874 0 0 1 .178-5.831m-4.989 16.333c-.078 2.055-.152 4.109-.23 6.164-.094 2.575 3.906 2.571 4 0 .078-2.055.152-4.109.23-6.164.094-2.575-3.906-2.571-4 0m-2.008 17.956a46.637 46.637 0 0 0-1.052 7.874c-.123 2.574 3.879 2.568 4 0 .109-2.304.411-4.558.909-6.81.556-2.508-3.3-3.58-3.857-1.064m-.565 14.537c-1.19-.012-1.868.932-2 2l-.862 6.998c-.132 1.081 1.015 1.989 2 2 1.191.012 1.87-.934 2-2l.862-6.998c.134-1.081-1.015-1.989-2-2m-4.233 16.803c-.816 2.46-1.322 4.957-1.62 7.529-.127 1.083 1.009 1.991 2 2 1.184.013 1.876-.931 2-2 .256-2.204.778-4.361 1.477-6.465.811-2.45-3.051-3.5-3.857-1.064M237.143 34.458c-.944-.552-2.178-.21-2.736.719l-.5.833c-.556.926-.206 2.195.718 2.735.944.553 2.178.212 2.737-.717l.5-.834c.555-.925.205-2.194-.719-2.736m-3.84 8.496c-.975-.571-2.141-.188-2.736.717-.917 1.396-1.624 2.914-2.153 4.496-.343 1.024.394 2.186 1.396 2.46 1.092.3 2.116-.368 2.461-1.396.423-1.265 1.017-2.426 1.749-3.541.594-.903.18-2.211-.717-2.736m-6.104 12.405c-1.189 0-1.869.923-2 2-.145 1.201-.656 2.305-1.317 3.3-.599.9-.177 2.213.717 2.736.98.573 2.136.185 2.738-.717 1.074-1.618 1.63-3.404 1.862-5.319.13-1.073-1.012-2-2-2M221.933 70a49.343 49.343 0 0 1-1.439 5.305c-.812 2.449 3.049 3.5 3.857 1.064a49.174 49.174 0 0 0 1.439-5.305c.532-2.511-3.323-3.584-3.857-1.064m-.463 12.917c-1.004-.276-2.224.338-2.46 1.396-.262 1.171-.522 2.342-.785 3.512-.235 1.054.32 2.164 1.397 2.46 1.004.276 2.224-.338 2.46-1.397.262-1.169.524-2.34.784-3.511.236-1.053-.318-2.164-1.396-2.46m-3.161 12.668c-.997-.226-2.239.302-2.46 1.398l-.643 3.17c-.206 1.023.295 2.21 1.398 2.46.996.228 2.237-.3 2.458-1.396l.643-3.172c.208-1.021-.293-2.209-1.396-2.46m-2.516 12.601c-1.028.047-2.069.882-2 2 .055.868.026 1.924-.094 2.634-.174 1.028.27 2.202 1.397 2.46.968.22 2.275-.294 2.46-1.398.208-1.229.316-2.449.237-3.696-.064-1.042-.873-2.05-2-2m-1.802 10.903c-.982-.223-2.256.297-2.46 1.397l-.494 2.668c-.189 1.025.282 2.207 1.398 2.46.98.224 2.256-.297 2.46-1.397l.493-2.668c.189-1.026-.283-2.207-1.397-2.46m-1.123 11.506c-.933-.256-2.313.32-2.46 1.397-.159 1.167-.319 2.335-.477 3.503-.146 1.069.257 2.148 1.397 2.46.932.256 2.313-.319 2.46-1.396l.476-3.504c.147-1.069-.257-2.147-1.396-2.46m-.969 14.084c.092-1.077-.985-2-2-2-1.16 0-1.908.919-2 2-.129 1.501-.156 3-.081 4.505.053 1.079.881 2 2 2 1.041 0 2.053-.916 2-2a33.204 33.204 0 0 1 .081-4.505m-4.913 12.507c-1.141.052-1.927.88-2 2-.035.547-.18 1.312-.4 1.83-.421.993-.297 2.142.717 2.736.84.49 2.312.281 2.738-.718.536-1.265.857-2.468.945-3.848.068-1.046-.968-2.046-2-2m-1.808 11.172c-1.184.053-1.873.882-2 2l-.337 3c-.118 1.042 1.004 2.044 2 2 1.184-.055 1.873-.883 2-2l.337-3c.117-1.044-1.003-2.046-2-2m.676 12.332c-.041-1.08-.889-2-2-2-1.052 0-2.041.916-2 2l.135 3.495c.041 1.08.889 2 2 2 1.05 0 2.041-.916 2-2l-.135-3.495m-2.052 8.56c-.997-.227-2.237.301-2.46 1.397-.193.95-.288 1.904-.194 2.871.1 1.037.848 2.051 2 2 .997-.045 2.108-.885 2-2-.067-.697-.059-1.267.05-1.808.21-1.021-.294-2.209-1.396-2.46m330.978 52.522c2.202-.651 4.599-1.11 6.834-1.027.093-.039.197-.063.294-.099-.834-.254-1.672-.504-2.512-.744-1.896.423-4.122 1.084-4.616 1.87" fill="#21130d" fill-rule="nonzero"/><path d="M473.693 232.674a6.57 6.57 0 0 1-.424.673c-33.527 26.462-72.945 47.874-115.864 52.898-23.444 2.742-46.733-.32-69.755-4.848-24.046-4.73-47.953-10.24-71.694-16.311-23.53-6.016-46.707-13.303-70.22-19.349-21.7-5.579-44.102-9.408-66.55-7.03-20.392 2.163-41.378 8.604-58.642 19.892-8.188 5.354-14.77 13.984-14.54 22.526-5.288-17.014 11.694-30.431 25.525-35.818 15.811-6.158 32.845-9.774 49.165-14.344 17.864-5.001 35.708-10.093 53.652-14.808 35.647-9.365 71.991-17.182 108.966-18.121 37.65-.956 74.984 6.052 112.05 11.723l62.855 9.614 30.117 4.607 15.715 2.404c1.215.185 2.617.265 3.967.44 1.145-.216 2.48-.033 3.482.176 1.116.233 1.868.684 2.33 1.321.258.131.482.354.606.694.52 1.429.111 2.629-.741 3.661M167.825 132.085c7.199-23.738 16.917-47.875 33.247-66.874 14.977-17.424 34.021-32.684 53.97-44.03C277.688 8.302 301.774 4.29 327.585 5.414c14.067.612 28.061 2.244 42.109 3.113 7.008.432 14.027.675 21.05.522 1.748-.039 3.57-.147 5.404-.196.226.058.466.098.737.097 12.292-.095 21.985 5.019 30.611 12.947 18.805 18.988 25.034 52.118 25.752 76.849.582 20.076-1.408 40.236-3.496 60.181-1.264 12.088-2.979 24.118-5.715 35.911a.639.639 0 0 1 .451-.284 664.966 664.966 0 0 0-3.518 23.129c-1.193-.177-2.38-.441-3.494-.83l-.036.098c-28.632-4.38-57.266-8.76-85.898-13.138-40.093-6.135-80.273-13.214-120.99-10.528-25.214 1.664-50.059 6.197-74.626 11.981.774-24.815 4.69-49.405 11.899-73.181m364.72 110.424a1.34 1.34 0 0 1-.049-.688c.226-1.275 2.016-2.156 3.938-2.743-18.352-4.869-37.937-6.767-56.434-9.823.057-1.22-.04-2.414-.395-3.364a4.196 4.196 0 0 0-.479-.914l-.013-.072c-.169-.815-1.016-1.734-1.863-1.863l-31.029-4.747a633.185 633.185 0 0 1 4.46-28.374c.049-.271.049-.524.029-.768 2.124-10.764 3.515-21.69 4.622-32.635 2.269-22.424 4.5-45.155 2.729-67.695-1.727-21.985-8.377-48.776-23.443-66.817-.005-.028-.021-.056-.028-.084-1.128-1.277-2.269-2.545-3.376-3.837a74.673 74.673 0 0 0-1.77-1.586 58.752 58.752 0 0 0-4.591-3.914 57.37 57.37 0 0 1 3.161.89c6.407 2.022 12.8 6.722 16.898 11.931a76.523 76.523 0 0 1 9.204 14.964c.985 1.748 1.81 3.557 2.554 5.429 2.128 5.343 5.026 10.584 8.112 15.57-.092-1.423-.202-2.843-.417-4.248-.352-2.306-.531-4.975-1.007-7.504a89.328 89.328 0 0 0-1.476-4.644c-.05-.102-.09-.211-.145-.308a.677.677 0 0 1-.081-.359 79.343 79.343 0 0 0-1.11-2.923c15.012 7.374 29.646 15.835 41.928 27.286 14.4 13.422 23.523 30.528 28.936 49.316 5.655 19.625 8.138 40.2 10.134 60.469 1.95 19.812 2.86 39.701 2.873 59.604 1.879.16 3.652.675 5.336 1.505.035-22.154-1.055-44.292-3.413-66.325-2.19-20.455-4.799-41.281-11.083-60.943-5.763-18.033-15.108-34.41-29.011-47.398-13.964-13.043-30.845-22.39-48-30.531a2.822 2.822 0 0 0-1.077-.275c-2.789-5.312-6.195-10.27-10.281-14.585-4.332-4.575-9.931-8.161-15.764-10.496-5.77-2.309-13.479-3.915-19.695-3.171-.052.006-.097.024-.148.032a44.286 44.286 0 0 0-6.987-1.7l-.097-.03a.65.65 0 0 1-.332-.03 9.449 9.449 0 0 0-1.043-.29c-.249-.015-.497-.024-.741-.062-5.332-.606-11.036.02-16.281.007-14.091-.035-28.119-1.515-42.15-2.639-26.306-2.105-52.469-2.234-77.136 8.38-22.88 9.844-43.96 26.007-61.469 43.587-17.907 17.977-29.169 39.937-37.727 63.612-10.42 28.827-15.945 59.221-16.765 89.841-12.145 2.951-24.225 6.179-36.249 9.492-20.132 5.55-40.226 11.236-60.335 16.867-15.255 4.271-32.889 7.872-44.276 19.843-10.152 10.672-14.077 27.982-3.127 39.576 10.831 11.466 26.668 11.196 41.25 8.736a242.007 242.007 0 0 0 35.646-3.695 236.01 236.01 0 0 0 36.74-9.687c13.063-4.597 25.706-10.757 39.703-11.837.024-.001.045-.008.069-.011-.242-1.042-.381-2.106-.629-3.156-.163-.69-.347-1.372-.529-2.052-20.379 1.892-39.124 12.523-58.8 17.651-13.439 3.504-27.506 6.08-41.596 7.159-.01-.018-.026-.031-.036-.047-3.615.536-7.275.844-10.912.701a3.186 3.186 0 0 1-.756-.048c-.343-.02-.684-.037-1.024-.065a.735.735 0 0 1-.042.007c-3.91.033-7.809-.056-11.681-.296-11.413-.706-29.276-8.328-20.859-22.771 5.028-8.631 16.238-13.716 24.971-17.661 19.969-9.019 41.937-12.982 63.796-11.712 22.804 1.325 44.899 7.797 66.723 14.105 21.881 6.327 43.87 12.247 66.021 17.559 41.36 9.92 85.123 21.9 127.917 15.701 37.815-5.477 72.579-22.928 103.272-45.26.011-.003.02-.009.03-.011a27.59 27.59 0 0 1 2.062-1.63c1.074-.776 2.243-1.679 3.418-2.278.053-.028.102-.034.154-.053 2.09-1.405 4.178-2.797 5.754-4.712.164-.155.332-.304.492-.463.426-.596.836-1.201 1.168-1.86.008-.062.024-.124.034-.185 17.007 2.795 34.92 4.629 51.942 8.711a41.12 41.12 0 0 1 1.681-.656M189.7 624.78c12.56-16.786 25.558-33.314 33.676-52.819 1.303-3.127 6.46-1.747 5.144 1.419-8.36 20.086-21.567 37.031-34.403 54.301a310.896 310.896 0 0 1-4.417-2.901zm392.887-38.733a313.162 313.162 0 0 1-12.16 11.511 311.424 311.424 0 0 1-9.899 6.077c-22.262 13.1-46.386 21.257-71.402 27.324-49.116 11.909-102.378 16.469-149.042-6.658-1.54-.762-.186-3.062 1.346-2.302 24.478 12.132 51.74 16.809 78.924 16.258 24.69-.501 49.118-5.044 73.002-11.093 23.062-5.841 45.267-13.715 65.826-25.831a307.991 307.991 0 0 0 23.405-15.286zm57.675-79.28a105.168 105.168 0 0 0-8.036-6.088c-2.439-1.67-5.251-3.148-7.132-5.492-2.906-3.619-2.199-7.874-5.827-11.26-2.975-2.779-6.681-4.498-9.544-7.462-2.524-2.613-4.599-5.644-6.492-8.732-3.353-5.465-5.561-9.209-12.733-9.508-4.671-.193-9.298.007-13.796 1.112a287.727 287.727 0 0 0 2.553 3.407c6.953-4.996 15.507-1.22 16.955 7.584.741 4.504.506 5.868 4.57 8.148 1.672.939 3.484 1.616 5.066 2.72 2.629 1.839 4.081 3.919 4.252 7.167.045.873-.528 1.913-1.322 2.304-10.314 5.078-15.09 15.656-21.557 24.542-6.327 8.695-13.917 16.331-22.109 23.271-17.418 14.76-36.706 28.153-56.166 40.053-20.526 12.552-42.273 21.292-65.781 26.408-11.961 2.602-24.065 4.476-36.164 6.306-12.252 1.852-24.393 3.65-36.663.962-3.357-.737-1.928-5.876 1.418-5.144 13.989 3.067 28.39-.085 42.294-2.258 11.68-1.827 23.348-3.839 34.835-6.655 41.255-10.115 78.327-35.151 110.721-61.991 7.988-6.62 15.571-13.842 21.856-22.124 5.027-6.625 8.908-14.126 14.518-20.306.28-.308.942-.87 1.776-1.546-13.499-13.505-25.23-28.59-35.672-44.56-5.327-8.144-10.326-16.497-15.114-24.968-4.684-8.281-9.18-15.956-10.493-25.51-.464-3.363 4.675-4.803 5.141-1.419 1.351 9.807 6.283 17.811 11.11 26.268 4.436 7.776 9.061 15.445 13.961 22.939a317.544 317.544 0 0 0 6.671 9.777c7.664-2.452 19.569-3.969 26.585.256 3.199 1.927 5.004 5.209 6.856 8.312 3.156 5.288 6.463 9.796 11.541 13.389 3.23 2.286 6.818 4.444 8.57 8.18.593 1.267.614 2.646 1.077 3.887 1.399 3.744 3.739 5.155 6.931 7.337a113.945 113.945 0 0 1 7.772 5.822 315.551 315.551 0 0 1-2.428 4.872zm-43.328-24.299c1.13.665 7.101 2.741 7.246 4.197.022.236-.956 1.108-2.25 2.171-.011-.011-.018-.024-.028-.036a230.918 230.918 0 0 1-8.48-8.927c1.036 1.02 2.26 1.858 3.512 2.595zm-10.987-14.604c3.383-1.139 4.893-.28 4.528 2.577.508 1.563.059 3.099.421 4.63.247 1.044.486 1.996 1.026 2.934.214.372.478.699.741 1.027a257.1 257.1 0 0 1-9.587-11.373l2.871.205z" fill="#21130d" fill-rule="nonzero"/></svg>