<svg viewBox="0 0 580 581" xmlns="http://www.w3.org/2000/svg" fill-rule="evenodd" clip-rule="evenodd" stroke-linejoin="round" stroke-miterlimit="1.414"><ellipse cx="290.013" cy="290.997" rx="280.643" ry="282.086" fill="#fff"/><g fill="#0c759c" fill-rule="nonzero"><path d="M41.223 290.984c0 98.482 57.228 183.577 140.213 223.911L62.761 189.738c-13.804 30.941-21.538 65.183-21.538 101.246zm416.732-12.551c0-30.747-11.044-52.04-20.521-68.613-12.605-20.493-24.423-37.848-24.423-58.341 0-22.87 17.341-44.158 41.77-44.158 1.104 0 2.148.139 3.23.199-44.27-40.548-103.238-65.308-168.006-65.308-86.916 0-163.379 44.593-207.865 112.138 5.84.175 11.345.291 16.009.291 26.022 0 66.308-3.157 66.308-3.157 13.411-.791 14.992 18.908 1.6 20.493 0 0-13.484 1.586-28.481 2.372l90.6 269.475 54.448-163.288-38.77-106.192c-13.397-.787-26.088-2.372-26.088-2.372-13.406-.786-11.835-21.284 1.572-20.493 0 0 41.084 3.157 65.53 3.157 26.018 0 66.301-3.157 66.301-3.157 13.421-.791 14.997 18.907 1.596 20.493 0 0-13.504 1.585-28.473 2.372l89.906 267.436 24.807-82.922c10.763-34.413 18.95-59.128 18.95-80.425z"/><path d="M294.369 312.749l-74.643 216.894a248.43 248.43 0 0 0 70.278 10.143c28.972 0 56.755-5.016 82.616-14.105a20.478 20.478 0 0 1-1.771-3.424l-76.48-209.508zm213.934-141.124c1.068 7.924 1.674 16.439 1.674 25.583 0 25.246-4.715 53.626-18.917 89.111l-75.99 219.712c73.962-43.131 123.709-123.26 123.709-215.047.003-43.247-11.046-83.92-30.476-119.359z"/><path d="M290.005 567.703c-152.57 0-276.71-124.137-276.71-276.719 0-152.565 124.131-276.691 276.71-276.691 152.569 0 276.695 124.125 276.695 276.691 0 152.584-124.13 276.719-276.695 276.719zm0-566.714C130.098.989 0 131.083 0 290.985 0 450.91 130.093 581.004 290.005 581.004c159.901 0 290.02-130.09 290.02-290.019C580.02 131.082 449.906.989 290.005.989z"/></g></svg>