<?xml version="1.0" encoding="UTF-8" standalone="no"?><!DOCTYPE svg PUBLIC "-//W3C//DTD SVG 1.1//EN" "http://www.w3.org/Graphics/SVG/1.1/DTD/svg11.dtd"><svg width="100%" height="100%" viewBox="0 0 63 71" version="1.1" xmlns="http://www.w3.org/2000/svg" xmlns:xlink="http://www.w3.org/1999/xlink" xml:space="preserve" xmlns:serif="http://www.serif.com/" style="fill-rule:evenodd;clip-rule:evenodd;stroke-linejoin:round;stroke-miterlimit:1.41421;"><g><path d="M0,0l5.9,64l25.6,6.9l25.6,-6.9l5.9,-64l-63,0Z" style="fill:#1758a7;fill-rule:nonzero;"/><path d="M31.5,5.2l0,60.2l0.1,0l20.7,-5.6l4.8,-54.6l-25.6,0Z" style="fill:#379ad6;fill-rule:nonzero;"/><path d="M31.4,49l-8.5,-2.2l-0.6,-6.3l-7.9,0l1,12.2l16.1,4.8l0,-8.5l-0.1,0Z" style="fill:#e8e8e7;fill-rule:nonzero;"/><path d="M31.5,28.7l0,7.7l9.5,0l-0.6,10.1l-8.9,2.5l0,8.5l16.1,-4.7l2.1,-24.1l-18.2,0Z" style="fill:#fbfbfa;fill-rule:nonzero;"/><path d="M13.3,28.7l0.6,7.7l17.6,0l0,-7.7l-18.2,0Z" style="fill:#e5e4e2;fill-rule:nonzero;"/><path d="M13.3,28.7l18.2,0l0,-7.7l-18.2,7.7Z" style="fill:#eee;fill-rule:nonzero;"/><path d="M32.6,20.6l-1.1,0.5l0,7.6l18.8,-8.1l-17.7,0Z" style="fill:#fff;fill-rule:nonzero;"/><path d="M11.6,12.9l0.9,7.7l19,0l0,-7.7l-19.9,0Z" style="fill:#e7e7e6;fill-rule:nonzero;"/><path d="M31.5,20.6l18.8,0l0.8,-7.7l-19.6,7.7Zm0,0l19.5,-7.7l-19.5,0l0,7.7Z" style="fill:#f8f8f7;fill-rule:nonzero;"/></g></svg>