<?xml version="1.0" encoding="UTF-8" standalone="no"?><!DOCTYPE svg PUBLIC "-//W3C//DTD SVG 1.1//EN" "http://www.w3.org/Graphics/SVG/1.1/DTD/svg11.dtd"><svg width="100%" height="100%" viewBox="0 0 283 354" version="1.1" xmlns="http://www.w3.org/2000/svg" xmlns:xlink="http://www.w3.org/1999/xlink" xml:space="preserve" xmlns:serif="http://www.serif.com/" style="fill-rule:evenodd;clip-rule:evenodd;stroke-linejoin:round;stroke-miterlimit:1.41421;"><rect x="0" y="0" width="282.007" height="353.46" style="fill:#ebebeb;"/><clipPath id="_clip1"><rect x="10.49" y="12.766" width="256" height="329"/></clipPath><g clip-path="url(#_clip1)"><g><path d="M86.991,216.117c-9.749,-7.67 -20.153,-15.021 -27.261,-25.378c-14.96,-18.263 -26.476,-39.404 -34.348,-61.625c-4.761,-14.45 -6.39,-29.941 -12.53,-43.83c-6.415,-10.091 1.105,-21.114 12.156,-24.32c4.917,-0.947 13.568,-5.589 3.126,-2.268c-9.365,6.867 -10.267,-6.239 -0.667,-7.069c6.552,-0.869 8.965,-6.231 6.721,-11.057c-7.035,-4.59 17.055,-9.625 4.932,-16.472c-12.62,-13.621 17.661,-16.243 10.188,-0.772c-1.786,11.896 21.166,-2.184 15.836,11.554c5.415,6.599 20.272,1.505 19.899,10.757c7.886,0.543 10.593,7.173 17.989,7.684c7.676,3.465 21.579,6.192 24.187,14.836c-7.61,6.024 -25.227,-12.442 -26.077,4.232c2.301,24.638 1.714,50.018 10.725,73.479c4.262,14.204 14.6,25.384 23.931,36.449c8.933,10.834 21.031,18.466 33.363,24.888c10.816,5.1 22.475,8.48 34.265,10.606c4.779,-3.656 13.221,-17.251 20.676,-11.522c0.359,6.448 -14.797,13.47 -0.712,12.757c8.278,-2.497 14.013,6.395 20.826,-1.628c6.278,7.435 26.091,-4.748 21.625,10.45c-6.042,3.897 -14.85,1.542 -20.898,6.906c-9.972,-4.984 -17.912,4.452 -28.955,3.262c-12.261,2.196 -24.739,3.08 -37.168,3.099c-20.396,-1.609 -41.222,-2.289 -60.624,-9.39c-10.933,-3.177 -21.598,-9.403 -31.205,-15.628Zm17.224,7.468c10.672,4.61 21.109,9.474 32.807,10.946c18.558,2.576 37.723,6.552 56.347,2.929c-8.429,-3.805 -17.145,1.478 -25.542,-2.72c-10.069,2.165 -20.878,-0.556 -31.12,-1.897c-11.639,-5.184 -24.206,-8.748 -35.107,-15.484c-13.628,-4.975 7.043,6.383 10.724,7.305c8.514,4.831 -9.364,-2.479 -11.889,-4.486c-7.133,-4.003 -8.042,-3.166 -0.705,0.896c1.477,0.863 2.937,1.772 4.485,2.511Zm-20.311,-14.353c10.346,3.831 -0.045,-7.272 -4.779,-6.631c-2.099,-3.643 -8.023,-5.944 -3.845,-7.9c-7.513,2.61 -7.873,-9.92 -11.403,-8.127c-7.952,-2.511 -3.094,-11.405 -12.569,-16.87c-0.863,-5.756 -9.409,-10.744 -12.129,-19.422c-1.204,-4.446 -9.659,-17.204 -4.467,-5.33c4.42,11.43 12.196,21.226 18.669,31.002c5.022,9.311 10.959,19.049 20.108,24.856c3.087,2.961 6.061,7.493 10.415,8.422Zm-29.79,-32.715c0.358,-1.564 1.89,3.38 0,0Zm42.183,37.305c2.288,-1.026 -3.296,-1.294 0,0Zm5.61,2.047c-0.581,-2.826 -2.563,1.582 0,0Zm7.03,2.93c3.342,-3.186 -5.159,-2.009 0,0Zm12.045,6.714c2.034,-3.001 -6.507,-1.13 0,0Zm-23.128,-16.124c5.191,-3.361 -6.716,-0.047 0,0Zm5.27,2.628c-0.151,-1.773 -1.877,0.797 0,0Zm26.345,16.446c4.237,2.675 24.738,5.859 11.902,1.098c-2.153,0.452 -23.802,-6.127 -11.902,-1.098Zm-41.823,-32.578c-0.412,-1.778 -6.579,-1.969 0,0Zm12.26,7.155c3.198,-2.23 -6.624,-1.721 0,0Zm10.319,6.322c4.583,-1.726 -7.428,-1.732 0,0Zm-27.576,-18.911c4.97,3.812 20.049,0.491 7.612,-2.275c-5.657,-3.015 -18.408,-5.08 -9.716,1.818l2.104,0.457Zm34.566,21.096c2.073,-3.526 -8.684,-2.016 0,0Zm-10.502,-8.345c12.15,3.433 -10.22,-7.69 -3,-1.269l1.602,0.727l1.398,0.542Zm21.057,12.17c11.509,0.11 -10.397,-1.589 0,0Zm-49.547,-31.578c-0.452,-2.145 -2.837,0.177 0,0Zm69.014,42.497c0.306,-3.87 -3.755,2.885 0,0Zm-49.371,-30.471c-0.7,-2.041 -3.596,-0.086 0,0Zm-18.552,-13.372c6.606,-0.399 -9.049,-2.91 0,0Zm-21.978,-14.204c-0.823,-3.171 -7.186,-5.695 0,0Zm57.695,36.614c-1.209,-1.381 -0.569,0.299 0,0Zm35.905,22.036c-0.11,-2.113 -1.955,0.797 0,0Zm-39.083,-25.319c0.648,-2.72 -5.636,-0.825 0,0Zm-26.752,-16.956c4.919,-0.524 -7.879,-3.323 0,0Zm45.252,28.118c7.663,-3.035 -7.468,-1.478 0,0Zm-23.535,-15.975c8.827,1.137 -10.508,-6.01 -1.942,-0.641l1.942,0.641Zm30.681,18.864c8.246,-4.923 5.526,11.543 13.988,1.393c8.343,-6.093 -7.207,7.533 3.073,1.087c7.441,-4.977 18.426,2.36 25.365,4.747c4.988,-0.243 9.841,4.316 14.96,1.542c9.848,-2.655 -19.262,-3.936 -11.632,-8.638c-9.011,2.623 -15.667,-3.125 -20.102,-8.899c-10.109,-2.335 -21.793,-7.501 -26.842,-16.452c-2.059,-3.355 2.97,0.477 -1.778,-5.015c-6.088,-5.416 -9.128,-11.569 -13.216,-18.153c-4.885,-2.603 -5.461,-10.273 -5.951,-0.255c0.04,-6.324 -5.898,-10.581 -7.349,-8.815c-0.027,-6.088 6.356,-3.035 1.89,-7.539c-0.961,-6.311 -4.126,-12.889 -5.076,-20.016c-1.476,-3.434 -0.209,-10.789 -5.047,-3.015c-1.759,8.219 -0.582,-10.096 2.158,-4.061c3.596,-6.159 -1.296,-5.434 -1.491,-4.584c2.341,-5.198 1.484,-12.575 -0.615,-9.763c1.249,-5.512 1.976,-20.283 -1.863,-17.662c2.327,-5.767 4.414,-26.379 -5.697,-18.518c-4.092,0.059 -11.187,1.485 -14.535,3.153c10.508,5.793 -1.059,2.092 -5.343,1.17c-0.556,5.361 -4.793,3.046 -10.089,3.098c8.462,1.046 -4.12,8.651 -8.965,5.697c-6.304,3.008 5.434,10.528 0.124,12.854c0.655,3.499 -9.652,-1.267 -8.847,6.829c-6.115,-2.578 -0.837,9.598 2.223,5.479c10.404,2.819 7.324,9.233 7.585,15.333c-1.694,3.551 -8.37,-8.349 -1.485,-7.8c-5.434,-8.822 -6.008,-3.191 -10.521,0.909c-1.046,0.294 11.509,5.832 3.629,8.565c6.932,1.073 7.135,7.142 8.548,10.98c4.165,4.341 3.308,-4.794 8.298,0.425c-3.159,-4.65 -16.715,-13.099 -5.801,-10.39c-0.058,-4.676 -1.975,-8.449 1.373,-8.358c3.316,-5.997 -3.472,14.791 3.996,7.168c2.066,-0.903 2.583,-6.003 6.298,0.483c5.393,5.31 1.948,9.154 -5.664,4.289c1.36,4.624 10.182,6.271 8.521,13.498c1.758,6.356 4.217,4.014 6.361,3.647c1.681,6.174 2.637,1.636 2.715,-1.307c7.696,1.649 5.891,6.199 8.303,9.378c5.304,2.392 -7.591,-16.225 1.512,-5.598c9.579,8.651 3.596,12.26 -5.002,10.874c5.441,-0.439 7.192,7.357 14,7.083c6.205,2.954 10.41,14.294 -0.288,9.572c-3.708,-3.348 -16.846,-7.475 -6.114,-1.112c9.9,4.59 17.773,7.33 27.327,13.092c6.833,4.878 9.788,10.468 12.377,11.574c-5.747,2.746 -17.314,-2.191 -8.723,-3.701c-5.362,-0.974 -11.39,-3.688 -6.257,2.988c4.367,3.65 15.464,3.263 17.459,3.675c-1.687,3.714 -4.583,4.009 0.066,4.297c-5.186,2.765 1.667,3.197 2.144,4.772Zm-10.606,-29.954c-3.159,-3.303 -3.976,-9.482 -0.563,-4.108c1.753,0.706 5.605,10.104 0.563,4.108Zm34.546,21.944c1.969,-0.13 0.058,1.497 0,0Zm-39.528,-30.04c-0.126,-4.99 1.136,3.851 0,0Zm-3.434,-4.616c-3.975,-7.671 5.002,2.171 0,0Zm-41.615,-28.719c2.335,-0.623 1.152,3.987 0,0Zm33.122,17.948c1.431,-5.382 1.68,4.513 0,0Zm-23.398,-16.269c-1.647,-2.968 3.447,2.787 0,0Zm20.075,6.434c-3.76,-8.421 2.668,-4.603 0.837,1.38l-0.837,-1.38Zm-34.623,-23.089c-1.681,-2.765 -4.46,-10.874 -3.564,-13.352c0.803,4.035 8.572,17.355 3.805,5.519c-5.263,-9.92 6.297,3.216 7.487,5.695c0.556,2.459 -3.251,-0.673 -0.674,5.101c-4.701,-6.572 -2.772,3.629 -7.054,-2.963Zm-10.699,-7.376c0.439,-6.428 2.446,4.408 0,0Zm4.813,1.661c2.295,-4.851 3.89,6.761 0,0Zm-11.581,-8.958c-3.982,-3.964 -6.867,-7.611 0.189,-2.459c2.714,0.104 -6.041,-8.298 0.655,-2.668c7.036,1.282 3.472,11.542 -0.844,5.127Zm6.082,-0.157c2.315,-2.295 1.228,2.257 0,0Zm3.746,1.197c-3.512,-6.572 4.257,2.759 0,0Zm-7.441,-7.108c-11.581,-10.313 14.549,5.387 1.89,1.909l-1.89,-1.909Zm33.185,19.276c-5.015,-3.001 -1.334,-21.152 0.38,-8.741c4.872,-1.577 -0.269,6.414 3.36,6.336c-0.567,5.04 -2.196,6.853 -3.74,2.405Zm12.274,7.259c0.491,-5.473 1.033,3.741 0,0Zm-2.131,-2.113c0.549,-2.333 0.052,2.754 0,0Zm-41.06,-27.81c-7.44,-10.267 21.625,10.384 4.768,2.603c-1.759,-0.464 -3.884,-0.628 -4.768,-2.603Zm23.639,12.53c-0.705,-8.645 1.57,1.431 0,0Zm17.943,11.514c1.387,-4.924 0.106,3.257 0,0Zm-40.437,-27.961c4.421,-0.948 18.322,7.762 5.558,2.486c-1.418,-1.57 -4.446,-0.857 -5.558,-2.486Zm37.972,18.924c0.472,-8.84 2.643,-5.276 0.02,1.269l-0.02,-1.269Zm-34.682,-22.003c1.804,-2.643 -4.788,-11.947 0.947,-3.336c2.48,1.969 7.173,3.296 3.029,4.127c6.518,5.748 -1.589,1.556 -3.976,-0.791Zm32.805,19.245c1.244,-10.071 1.1,5.897 0,0Zm-36.572,-28.544c1.38,-0.589 0.732,1.837 0,0Zm8.559,5.094c2.203,-4.623 4.062,5.153 0,0Zm24.136,13.424c-0.02,-1.771 0.457,2.583 0,0Zm-1.399,-3.092c-3.348,-8.266 3.118,4.374 0,0Zm-2.054,-5.422c-0.561,-3.413 1.91,4.291 0,0Zm3.348,-5.44c-2.302,-4.048 2.904,-17.852 3.487,-9.291c-2.428,6.669 -0.7,10.397 0.986,1.451c3.127,-7.035 -0.673,13.896 -4.473,7.84Zm3.44,-20.525c1.001,-1.231 0.222,1.483 0,0Zm-5.747,113.21c-1.361,-1.19 0.176,0.752 0,0Zm11.835,5.983c6.584,1.694 6.552,-1.021 0.601,-1.831c-3.197,-2.975 -13.3,-6.134 -4.257,-0.367c0.596,1.519 2.486,1.478 3.656,2.198Zm-23.371,-15.524c3.623,2.708 13.66,7.663 5.166,1.034c2.865,-3.329 -5.48,-5.1 -2.713,-7.33c-7.043,-4.311 -5.56,-3.924 -0.621,-3.787c-8.462,-3.786 1.222,-3.498 0.765,-5.44c-3.263,-0.641 -16.211,-5.755 -8.593,0.418c-7.742,-3.944 -1.845,1.472 -4.185,0.902c-7.919,-2.157 7.049,6.03 -1.255,3.996c4.538,3.596 12.222,9.221 1.915,3.805c-1.353,1.956 7.377,4.918 9.521,6.402Zm12.378,7.114c15.047,4.846 -7.382,-5.931 0,0Zm63.364,38.385c0.196,-2.988 -2.054,2.549 0,0Zm6.514,2.74c3.471,-3.361 0.143,5.362 5.753,-0.823c0.059,-4.428 -0.169,-7.043 -6.447,-1.663c-1.734,0.963 -2.504,5.036 0.694,2.486Zm-103.383,-64.926c-1.066,-4.191 -7.474,-4.173 0,0Zm6.95,4.557c-2.583,-4.282 -9.213,-3.877 0,0Zm39.569,23.861c3.865,3.433 17.741,2.518 4.688,0.425c-1.93,-2.857 -12.267,-2.171 -4.688,-0.425Zm54.384,33.592c5.945,-4.99 -5.76,2.223 0,0Zm12.366,8.494c0.039,-1.602 -2.563,0.7 0,0Zm0.02,-2.243c6.584,-6.971 -6.376,0.412 0,0Zm-130.396,-82.582c-5.609,-8.003 -3.485,-11.601 -8.899,-18.139c-1.027,-5.002 -9.285,-16.342 -4.27,-4.329c4.59,7.029 5.951,17.91 13.169,22.468Zm128.329,80.365c12.118,-7.827 -4.969,-3.406 0,0Zm9.247,3.623c6.068,-5.206 -3.838,-1.087 0,0Zm-122.53,-78.515c1.735,-2.583 -4.484,-0.334 0,0Zm120.6,76.042c5.872,-3.784 -1.353,-3.204 -1.065,0.347l1.065,-0.347Zm-79.697,-50.233c-0.203,-2.563 -3.106,0.216 0,0Zm4.923,2.833c-1.569,-3.166 -2.406,0.497 0,0Zm84.197,49.958c7.526,-5.428 -4.557,-1.041 -1.575,1.033l1.575,-1.033Zm-2.883,-1.392c6.134,-5.135 -6.468,2.274 0,0Zm14.725,9.801c4.114,-2.754 -5.002,-0.889 0,0Zm-138.092,-88.873c5.513,1.236 22.044,13.581 12.294,0.857c-4.995,-1.478 -2,-13.686 -7.094,-11.528c3.42,5.715 2.811,8.14 -4.369,4.545c-9.016,-4.408 -5.067,2.177 -3.301,3.995c-2.408,0.549 3.177,2.086 2.47,2.131Zm-25.128,-19.845c0.986,-4.088 -9.096,-22.468 -4.761,-9.213c1.562,2.778 1.4,8.041 4.761,9.213Zm46.125,28.438c-2.844,-2.374 -0.137,-0.34 0,0Zm6.991,1.629c0,-4.329 -7.729,-1.76 0,0Zm60.617,38.207c-1.157,-2.956 -4.57,-0.065 0,0Zm2.909,2.124c-0.432,-1.654 -1.68,0.322 0,0Zm24.026,15.138c2.308,-1.706 -2.885,-0.221 0,0Zm-128.12,-82.332c6.611,-2.558 -7.082,-1.824 0,0Zm95.848,60.381c-0.077,-4.277 -4.217,1.067 0,0Zm-98.457,-66.469c4.243,-1.431 -3.931,-0.941 0,0Zm12.319,5.969c-0.072,-1.404 -1.301,0.538 0,0Zm150.301,92.169c5.459,-1.105 17.903,2.779 19.91,-1.445c-6.63,-0.164 -22.932,-4.682 -23.703,1.072l1.451,0.229l2.342,0.144Zm-146.384,-91.181c0.098,-4.336 -3.38,-0.162 0,0Zm-32.394,-22.473c-1.471,-8.26 -5.598,-1.251 0,0Zm7.722,1.941c0.099,-2.655 -7.069,-2.387 0,0Zm4.415,2.172c-1.276,-1.035 -0.995,1.3 0,0Zm27.783,17.818c1.309,-1.204 -3.099,-0.889 0,0Zm-30.72,-22.71c-0.751,-6.239 -8.952,-0.936 0,0Zm-15.844,-10.28c-0.223,-2.877 -1.543,1.085 0,0Zm2.36,-1.778c-0.385,-3.415 -2.027,0.431 0,0Zm13.014,7.768c5.506,-2.158 -10.025,-4.473 -1.125,-0.405l1.125,0.405Zm174.226,107.619c3.524,-3.229 -4.473,-0.999 0,0Zm21.049,10.908c1.413,-4.172 -3.557,0.549 0,0Zm-193.942,-125.347c0.582,-4.041 -4.368,0.803 0,0Zm-18.525,-12.411c-0.994,-5.702 -0.857,-15.714 8.658,-12.332c-12.699,2.524 8.795,15.79 6.082,5.315c5.341,0.262 10.449,-3.158 7.643,2.027c10.528,-1.157 17.82,-10.285 27.988,-9.003c7.918,-1.053 16.576,-1.845 25.11,-5.035c7.015,-0.504 13.77,-8.057 9.926,-12.537c-9.566,-0.81 -19.585,0.387 -30.158,2.493c-11.718,2.432 -22.363,7.061 -34.187,9.049c-11.528,1.55 2.316,4.264 -0.987,4.872c-6.01,2.085 7.173,3.492 -0.779,5.695c-4.91,-0.935 -10.024,-2.622 -7.924,-7.801c-11.039,1.439 -20.743,6.016 -12.02,17.25l0.648,0.007Zm26.608,-13.549c2.583,-9.534 13.863,7.847 4.237,1.268c-1.145,-0.863 -3.041,-1.563 -4.237,-1.268Zm0.503,-4.624c3.734,-2.779 1.982,1.564 0,0Zm4.74,0.079c0.342,-4.388 10.863,2.322 1.735,1.577l-1.735,-1.577Zm6.487,-2.608c2.374,-2.774 0.688,2.457 0,0Zm1.662,-1.112c3.949,-4.741 22.343,-3.028 8.879,-0.465c-3.609,-2.721 -6.374,1.602 -8.879,0.465Zm24.01,-3.701c-0.594,-12.955 11.934,4.597 0,0Zm6.815,-0.04c2.491,-6.526 9.671,-2.622 1.157,-1.314c0.182,0.699 -0.255,3.374 -1.157,1.314Zm-54.987,34.618c7.441,-4.558 -7.9,-3.956 0,0Zm5.506,1.523c2.609,-2.772 -5.677,-1.125 0,0Zm-16.216,-11.502c4.25,-3.269 -5.036,-1.242 0,0Zm219.763,137.484c0.124,-3.794 -3.251,1.706 0,0Zm-22.331,-15.244c0.635,-4.36 -2.871,0.38 0,0Zm28.472,16.715c5.944,0.02 18.013,-1.851 5.08,-1.845c-2.034,0.315 -11.828,0.25 -5.08,1.845Zm-204.849,-130.128c4.813,-0.326 7.526,-5.303 -0.936,-5.022c-13.11,-1.352 11.568,4.493 -1.68,2.819c-1.778,1.177 2.511,2.531 2.616,2.203Zm4.237,2.146c-0.504,-3.087 -1.492,1.641 0,0Zm5.029,-13.405c2.085,-2.59 -2.891,-0.693 0,0Zm-16.009,-26.752c8.593,-2.916 20.338,-6.199 24.392,1.439c-4.126,-4.963 -1.667,-9.854 2.23,-2.589c5.512,7.344 8.271,-3.342 4.687,-5.807c4.088,5.074 8.73,7.474 2.734,0.321c6.52,-7.841 -13.046,1.026 -17.492,0.934c-2.138,0.961 -22.088,5.087 -16.551,5.702Zm5.036,-9.637c4.898,-3.695 16.942,2.203 9.213,-3.676c-0.758,-0.667 -16.922,4.459 -9.213,3.676Zm17.858,0.738c5.728,0.144 -2.471,-7.704 4.356,-4.147c-1.119,-3.661 -7.952,-4.347 -11.293,-5.812c-1.89,3.348 3.843,10.004 6.937,9.959Zm-14.726,-16.211c1.982,-2.687 -3.479,1.368 0,0Zm7.298,1.746c9.239,-1.222 -2.355,-3.976 -1.865,-0.097l1.865,0.097Zm-13.628,-10.658c-6.507,-8.494 12.236,1.426 5.623,-7.468c-5.564,-4.426 -10.906,4.99 -5.623,7.468Zm83.471,44.956c2.983,-5.284 -12.313,-7.128 -2.007,-1.871c0.947,0.315 0.733,2.236 2.007,1.871Z" style="fill-rule:nonzero;"/><g><path d="M63.598,264.26c-0.659,2.607 -1.069,6.979 -1.222,13.117c0,1.207 -0.543,1.81 -1.631,1.81c-1.09,0 -1.847,-0.527 -2.276,-1.576c-1.166,-2.837 -2.271,-4.817 -3.324,-5.947c-1.243,-1.319 -2.895,-2.117 -4.956,-2.389c-2.214,-0.351 -7.732,-0.525 -16.555,-0.525c-2.02,0 -3.343,0.214 -3.963,0.644c-0.389,0.27 -0.582,0.854 -0.582,1.748l0,26.41c0,0.894 0.562,1.319 1.687,1.283c3.462,-0.041 8.474,-0.276 15.041,-0.701c1.283,-0.158 2.149,-0.574 2.595,-1.255c0.45,-0.68 0.887,-2.437 1.312,-5.276c0.271,-1.554 1.186,-2.157 2.74,-1.805c1.321,0.271 1.888,0.875 1.693,1.805c-1.089,5.288 -1.442,12.167 -1.053,20.64c0.041,1.008 -0.599,1.555 -1.923,1.632c-1.089,0.118 -1.769,-0.466 -2.04,-1.749c-1.008,-4.858 -2.887,-7.453 -5.624,-7.786c-2.74,-0.327 -7.202,-0.493 -13.381,-0.493c-0.699,0 -1.047,0.251 -1.047,0.756l0,26.236c0,1.943 0.716,3.267 2.153,3.963c1.13,0.584 3.558,1.109 7.288,1.575c1.907,0.194 2.74,1.033 2.51,2.507c-0.235,1.283 -1.944,1.788 -5.134,1.517c-9.211,-0.74 -16.81,-0.7 -22.793,0.118c-1.673,0.23 -2.506,-0.45 -2.506,-2.041c0,-1.012 0.833,-1.595 2.506,-1.749c3.809,-0.429 5.712,-3.773 5.712,-10.028l0,-49.907c0,-2.562 -0.457,-4.535 -1.368,-5.915c-0.915,-1.381 -2.616,-2.636 -5.102,-3.761c-1.554,-0.7 -2.137,-1.651 -1.748,-2.858c0.194,-0.737 0.506,-1.146 0.931,-1.223c0.388,-0.117 1.421,-0.04 3.088,0.234c2.45,0.389 8.223,0.584 17.316,0.584c10.729,0 19.996,-0.235 27.811,-0.701c2.602,-0.157 3.906,0.057 3.906,0.64c0,0.158 -0.02,0.312 -0.061,0.466Z" style="fill-rule:nonzero;"/><path d="M101.405,338.268c0,1.554 -0.874,2.234 -2.623,2.04c-5.36,-0.506 -12.008,-0.43 -19.936,0.231c-1.595,0.157 -2.574,0.117 -2.946,-0.113c-0.369,-0.236 -0.552,-0.875 -0.552,-1.928c0,-0.931 1.058,-1.716 3.175,-2.36c2.122,-0.64 3.178,-2.555 3.178,-5.741l0,-52.761c0,-3.149 -0.457,-5.462 -1.368,-6.94c-0.916,-1.477 -2.519,-2.623 -4.81,-3.437c-1.207,-0.429 -1.81,-1.032 -1.81,-1.809c0,-1.166 0.875,-2.041 2.623,-2.623c2.644,-0.855 5.385,-2.175 8.223,-3.965c2.332,-1.4 3.81,-2.096 4.429,-2.096c1.437,0 2.159,0.987 2.159,2.971c0,-0.153 -0.078,1.79 -0.235,5.83c-0.113,3.846 -0.154,7.635 -0.113,11.369l0.23,52.06c0,2.372 0.583,4.094 1.749,5.162c1.166,1.069 3.17,1.778 6.004,2.126c1.749,0.194 2.623,0.854 2.623,1.984Z" style="fill-rule:nonzero;"/><path d="M154.134,334.83c0,0.818 -1.486,2.049 -4.458,3.7c-2.975,1.652 -5.356,2.478 -7.142,2.478c-1.518,0 -2.857,-0.737 -4.023,-2.215c-1.166,-1.477 -1.985,-2.214 -2.45,-2.214c-0.348,0 -2.194,0.798 -5.539,2.388c-3.339,1.596 -6.704,2.394 -10.084,2.394c-3.186,0 -5.851,-0.935 -7.988,-2.798c-2.332,-2.061 -3.498,-4.859 -3.498,-8.397c0,-6.724 7.696,-11.543 23.088,-14.457c2.64,-0.506 3.985,-1.576 4.021,-3.207l0.118,-3.732c0.234,-6.373 -2.584,-9.559 -8.454,-9.559c-1.672,0 -3.255,1.493 -4.753,4.485c-1.494,2.997 -3.643,4.607 -6.442,4.843c-3.186,0.307 -4.781,-1.033 -4.781,-4.025c0,-1.866 2.373,-4.04 7.113,-6.53c4.976,-2.603 9.758,-3.907 14.344,-3.907c7.888,0 11.794,3.753 11.717,11.255l-0.235,24.016c-0.036,2.527 1.033,3.789 3.207,3.789c0.429,0 1.247,-0.096 2.449,-0.291c1.207,-0.194 1.907,-0.291 2.102,-0.291c1.125,0 1.688,0.761 1.688,2.275Zm-17.955,-13.291c0.04,-0.972 -0.187,-1.616 -0.673,-1.924c-0.486,-0.311 -1.251,-0.372 -2.3,-0.177c-9.368,1.672 -14.052,4.724 -14.052,9.154c0,4.469 2.429,6.703 7.288,6.703c1.943,0 3.947,-0.368 6.004,-1.105c2.413,-0.858 3.615,-1.886 3.615,-3.092l0.118,-9.559Z" style="fill-rule:nonzero;"/><path d="M197.478,328.122c0,4.121 -1.588,7.397 -4.753,9.826c-3.166,2.429 -7.49,3.644 -12.972,3.644c-3.652,0 -7.308,-0.389 -10.959,-1.166c-3.15,-0.701 -4.976,-1.34 -5.482,-1.924c-0.312,-0.546 -0.466,-3.206 -0.466,-7.988c0,-2.06 0.466,-3.129 1.401,-3.205c0.931,-0.119 1.728,0.388 2.389,1.514c2.914,5.093 7.619,7.639 14.109,7.639c5.477,0 8.219,-1.907 8.219,-5.717c0,-1.667 -0.62,-3.069 -1.867,-4.194c-1.361,-1.283 -4,-2.781 -7.927,-4.49c-5.676,-2.526 -9.465,-4.741 -11.368,-6.648c-2.062,-2.02 -3.09,-4.74 -3.09,-8.162c0,-4.198 1.612,-7.461 4.838,-9.793c2.992,-2.255 6.996,-3.381 12.008,-3.381c3.15,0 6.025,0.251 8.632,0.758c2.798,0.506 4.255,1.125 4.373,1.865c0.307,2.175 0.951,5.325 1.923,9.447c0.117,0.501 -0.43,0.911 -1.632,1.222c-1.283,0.271 -2.137,0.057 -2.566,-0.64c-3.069,-5.016 -6.956,-7.522 -11.66,-7.522c-5.325,0 -7.988,1.709 -7.988,5.13c0,1.906 0.72,3.42 2.158,4.546c1.283,0.972 4.295,2.49 9.036,4.551c4.975,2.137 8.356,4.061 10.146,5.769c2.332,2.214 3.498,5.19 3.498,8.919Z" style="fill-rule:nonzero;"/><path d="M266.065,338.325c0,1.36 -0.915,2.081 -2.741,2.158c-2.721,0.04 -6.28,0.234 -10.668,0.582c-2.178,0.429 -3.732,0.159 -4.664,-0.813c-6.142,-6.608 -11.352,-13.527 -15.628,-20.757c-0.348,-0.62 -0.793,-0.932 -1.34,-0.932c-0.66,0 -1.805,0.584 -3.436,1.75c-1.831,1.008 -2.742,2.449 -2.742,4.311c0,1.324 0.036,3.227 0.117,5.717c0.078,2.486 0.697,4.117 1.863,4.894c0.818,0.547 2.705,0.972 5.656,1.284c1.826,0.235 2.741,0.915 2.741,2.04c0,0.896 -0.146,1.45 -0.437,1.66c-0.292,0.215 -1.062,0.264 -2.304,0.147c-3.887,-0.349 -10.454,-0.155 -19.704,0.582c-2.332,0.195 -3.596,-0.097 -3.79,-0.875c-0.077,-0.27 -0.117,-0.659 -0.117,-1.166c0,-1.202 1.186,-2.117 3.559,-2.736c2.137,-0.547 3.205,-3.053 3.205,-7.522l0,-50.956c0,-3.186 -0.311,-5.401 -0.935,-6.643c-0.854,-1.595 -2.643,-2.839 -5.364,-3.734c-1.279,-0.424 -1.923,-1.028 -1.923,-1.805c0,-1.13 0.915,-2.004 2.741,-2.623c2.915,-0.972 5.692,-2.313 8.336,-4.025c2.138,-1.397 3.461,-2.097 3.963,-2.097c1.596,0 2.393,1.008 2.393,3.032c0,-0.275 -0.02,1.652 -0.061,5.77c-0.036,2.838 -0.056,6.648 -0.056,11.429l0.117,36.494c0,1.011 0.272,1.514 0.814,1.514c0.583,0 1.478,-0.503 2.684,-1.514c3.227,-2.527 7.191,-5.83 11.891,-9.912c0.935,-0.971 1.4,-1.748 1.4,-2.332c0,-1.047 -1.574,-1.789 -4.72,-2.213c-1.36,-0.159 -2.004,-0.916 -1.927,-2.277c0.117,-1.359 0.798,-1.943 2.04,-1.748c2.802,0.389 6.883,0.603 12.243,0.644c3.733,0.036 7.446,0.057 11.138,0.057c1.203,0.04 1.806,0.756 1.806,2.158c0,1.319 -0.952,2.039 -2.854,2.157c-2.997,0.113 -5.815,0.793 -8.454,2.04c-3.692,1.669 -7.64,4.604 -11.838,8.803c-0.308,0.234 -0.466,0.525 -0.466,0.873c0,0.543 0.66,1.847 1.985,3.908c4.857,7.384 9.445,12.959 13.756,16.732c2.761,2.369 5.344,3.555 7.753,3.555c1.79,0 2.899,0.125 3.324,0.38c0.43,0.252 0.644,0.924 0.644,2.009Z" style="fill-rule:nonzero;"/></g></g></g></svg>