<?xml version="1.0" encoding="UTF-8" standalone="no"?><!DOCTYPE svg PUBLIC "-//W3C//DTD SVG 1.1//EN" "http://www.w3.org/Graphics/SVG/1.1/DTD/svg11.dtd"><svg width="100%" height="100%" viewBox="0 0 210 238" version="1.1" xmlns="http://www.w3.org/2000/svg" xmlns:xlink="http://www.w3.org/1999/xlink" xml:space="preserve" xmlns:serif="http://www.serif.com/" style="fill-rule:evenodd;clip-rule:evenodd;stroke-linejoin:round;stroke-miterlimit:1.41421;"><g><path d="M0,0l19.061,214.015l85.606,23.742l85.605,-24.077l19.061,-213.68l-209.333,0Z" style="fill:#e44d26;fill-rule:nonzero;"/><path d="M75.24,157.167l-2.007,-21.067l-26.417,0l3.678,41.131l53.838,15.048l0,-27.421l-29.092,-7.691Zm29.427,-113.361l-65.877,0l0.669,7.022l6.354,72.23l58.519,0l0,-26.083l-34.777,0l-2.341,-26.751l37.118,0l0,-26.418l0.335,0Z" style="fill:#ebebeb;fill-rule:nonzero;"/><path d="M104.668,17.722l0,201.642l69.22,-19.06l16.385,-182.582l-85.605,0Z" style="fill:#f16529;fill-rule:nonzero;"/><path d="M104.668,43.806l0,26.084l63.201,0l0.669,-6.02l1.337,-13.376l0.669,-7.022l-65.876,0l0,0.334Zm0,79.253l32.436,0l-3.009,34.108l-29.093,8.026l0,27.421l53.838,-15.048l0.334,-4.348l6.02,-68.886l0.668,-7.022l-60.86,0l0,25.749l-0.334,0Z" style="fill:#fff;fill-rule:nonzero;"/></g></svg>