<?xml version="1.0" encoding="UTF-8" standalone="no"?><!DOCTYPE svg PUBLIC "-//W3C//DTD SVG 1.1//EN" "http://www.w3.org/Graphics/SVG/1.1/DTD/svg11.dtd"><svg width="100%" height="100%" viewBox="0 0 678 681" version="1.1" xmlns="http://www.w3.org/2000/svg" xmlns:xlink="http://www.w3.org/1999/xlink" xml:space="preserve" xmlns:serif="http://www.serif.com/" style="fill-rule:evenodd;clip-rule:evenodd;stroke-linecap:round;stroke-linejoin:round;stroke-miterlimit:1.5;"><circle cx="362.542" cy="365.688" r="311.474" style="fill:#fff;stroke:#ff9d00;stroke-width:6.67px;"/><g><path d="M191.87,626.219c4.516,-6.057 9.207,-11.985 14.068,-17.783c0.574,-0.686 1.234,-1.115 1.926,-1.372c0.794,-1.056 1.58,-2.116 2.382,-3.166c0.046,-0.78 0.282,-1.569 0.781,-2.32c4.395,-6.625 8.152,-13.558 11.089,-20.954c1.831,-4.606 9.328,-4.996 10.366,-0.314c1.702,1.163 2.712,3.13 1.786,5.448c-0.689,1.73 -1.154,3.422 -1.424,5.098c0.19,0.126 0.376,0.26 0.552,0.412c3.691,3.209 8.598,6.442 11.598,10.342c0.508,0.66 0.878,1.364 1.168,2.096c2.746,1.699 3.878,4.855 6.944,6.676c4.882,2.903 11.398,1.692 16.721,1.036c2.191,-0.269 4.012,1.362 4.845,3.287c1.787,0.197 7.382,-2.897 9.107,-3.083c1.775,-0.193 3.385,-0.101 5.064,0.568c1.208,0.483 2.84,2.186 4.443,2.847c1.286,-0.376 2.589,-0.627 3.917,-0.711c1.376,-0.445 2.579,-0.322 3.543,0.203c0.2,0.036 0.397,0.055 0.601,0.101c4.671,1.035 9.273,7.102 13.991,4.643c1.912,-0.997 4.985,-1.069 6.462,0.835c5.816,7.498 12.874,5.436 19.231,0.241c3.271,-2.672 11.841,-7.483 15.591,-3.925c0.71,-1.167 1.534,-2.266 2.568,-3.394c1.445,-1.576 3.268,-1.877 4.92,-1.376c4.385,-1.777 9.362,-1.81 14.112,0.139c0.862,-0.815 2,-1.329 3.388,-1.271c4.989,0.207 9.978,0.414 14.968,0.62c9.713,-0.684 19.313,-3.205 28.774,-5.516c12.407,-3.03 24.911,-5.616 37.396,-8.308c5.978,-1.288 11.956,-2.616 17.907,-4.05l1.82,-0.715c10.221,-5.8 20.552,-11.401 30.985,-16.813c0.29,-0.154 0.578,-0.303 0.868,-0.454c19.023,-16.19 38.526,-31.806 58.487,-46.826c4.995,-6.898 10.217,-13.623 15.676,-20.158c0.249,-0.404 0.541,-0.804 0.941,-1.185l0.359,-0.343c3.711,-4.394 7.508,-8.717 11.424,-12.937c0.456,-0.547 0.944,-1.067 1.416,-1.599c-0.529,0.023 -1.061,-0.001 -1.584,-0.077c-3.075,-0.447 -5.653,-3.973 -7.403,-6.419c-0.464,-0.52 -0.918,-1.049 -1.345,-1.602c-1.072,-1.388 -0.969,-3.178 -0.267,-4.704c-0.829,0.348 -1.796,0.454 -2.75,0.337c-1.503,0.055 -3.06,-0.504 -4.07,-1.544c-1.717,-1.769 -3.104,-3.925 -3.865,-6.28c-0.479,-0.7 -0.955,-1.399 -1.433,-2.097c-0.876,-1.275 -0.932,-2.79 -0.476,-4.162c-5.776,-1.032 -5.414,-10.541 1.069,-10.564c5.988,-0.022 15.084,-0.19 20.092,3.651c1.263,0.968 1.912,2.215 2.281,3.565c0.432,0.268 0.852,0.599 1.238,1.058c5.042,6.001 9.902,12.142 14.62,18.394c0.529,0.111 1.037,0.294 1.506,0.54c2.118,0.278 4.228,1.644 5,3.738c0.799,2.168 1.214,4.261 1.278,6.352c0.464,0.654 0.944,1.301 1.405,1.96c0.113,0.161 0.191,0.322 0.281,0.485c1.55,-0.419 3.327,-0.107 4.928,1.356c2.871,2.626 5.649,5.334 8.348,8.115c-51.046,102.406 -156.835,172.822 -278.942,172.822c-62.991,0 -121.64,-18.739 -170.672,-50.943Zm159.79,0.891c-0.922,0.042 -1.712,0.284 -2.388,0.648c-0.162,0.01 -0.326,0.016 -0.489,0.026c1.189,-0.826 2.477,-1.428 4.055,-1.474c0.028,0.255 0.078,0.503 0.144,0.75c-0.44,0.016 -0.88,0.037 -1.322,0.05Zm156.118,-26.726c-0.468,0.249 -0.938,0.493 -1.403,0.749c0.441,-0.297 0.879,-0.601 1.32,-0.896l3.633,-2.172c-1.197,0.793 -2.382,1.571 -3.55,2.319Zm84.972,-132.143c-0.46,-0.772 -0.96,-1.515 -1.53,-2.209c0.912,0.188 1.687,0.454 2.199,0.842c-0.464,-0.26 -0.643,0.39 -0.669,1.367Z" style="fill:#f15f77;fill-rule:nonzero;"/><path d="M529.645,396.337c-0.091,0.009 -0.183,0.001 -0.272,0.014c0.242,-0.46 0.506,-0.929 0.701,-1.225c0.447,0.117 0.912,0.215 1.387,0.296c-0.646,0.171 -1.26,0.493 -1.816,0.915m-6.843,71.282c0.475,-1.909 0.883,-3.862 1.213,-5.882c-0.116,2.02 -0.448,3.982 -1.213,5.882m-34.387,47.483c-1.248,1.229 -1.654,2.701 -1.504,4.099c-0.202,0.353 -0.421,0.689 -0.614,1.053c-0.119,0.223 -0.198,0.444 -0.284,0.667c-1.044,1.173 -2.074,2.357 -3.084,3.562c-0.898,-0.012 -1.795,0.236 -2.595,0.828c-0.175,0.13 -0.337,0.262 -0.508,0.391c1.361,-2.057 3.037,-3.833 4.652,-5.783c0.255,-0.308 0.499,-0.616 0.745,-0.924c0.023,-0.042 0.035,-0.084 0.062,-0.126c1.436,-2.226 3.182,-4.142 5.022,-5.975c0.03,-0.047 0.06,-0.089 0.088,-0.137c0.206,-0.332 0.468,-0.535 0.747,-0.683c1.724,-1.677 3.5,-3.312 5.164,-5.073c1.591,-1.686 3.187,-3.352 4.913,-4.838c0.052,0.283 0.124,0.559 0.223,0.827c-4.445,3.919 -8.797,7.944 -13.027,12.112m-14.38,16.164c-0.328,0.124 -0.652,0.279 -0.965,0.495c-4.971,3.446 -9.644,7.214 -14.052,11.332c-0.501,-0.218 -1.04,-0.36 -1.601,-0.415c5.797,-4.192 11.666,-8.208 17.418,-12.369c-0.273,0.31 -0.537,0.632 -0.8,0.957m-41.588,34.156c-0.862,0.499 -1.709,1.012 -2.541,1.543c0.057,-0.048 0.121,-0.09 0.177,-0.138c0.77,-0.866 1.583,-1.7 2.42,-2.521c0.031,-0.043 0.056,-0.084 0.086,-0.125c-0.102,0.414 -0.15,0.829 -0.142,1.241m-9.804,6.913c-0.174,-0.752 0.054,-1.546 0.924,-1.916c0.152,-0.064 0.311,-0.128 0.467,-0.193l-0.001,-0.003c0.014,-0.004 0.028,-0.01 0.042,-0.014c0.8,-0.33 1.652,-0.663 2.528,-1.015c0.04,-0.02 0.076,-0.049 0.118,-0.069c-1.404,1.016 -2.764,2.082 -4.078,3.21m-20.688,15.832c0.282,-0.368 0.562,-0.737 0.83,-1.132c0.936,-1.38 2.684,-1.002 3.362,0.052c-1.432,0.308 -2.84,0.658 -4.192,1.08m-6.998,21.988c-1.48,0.003 -3.01,-0.265 -4.52,-0.457c0.469,-0.184 0.938,-0.375 1.408,-0.557c1.373,0.448 2.729,0.756 4.078,0.965c-0.312,0.031 -0.633,0.048 -0.966,0.049m0.414,-16.054c0.006,0.166 0.022,0.332 0.058,0.493c-0.23,0.444 -0.447,0.892 -0.652,1.347c-0.439,-0.16 -0.938,-0.226 -1.498,-0.135c-0.642,0.104 -1.268,0.233 -1.885,0.373c1.373,-0.614 2.705,-1.292 3.977,-2.078m-12.869,5.733c-0.757,0.327 -1.513,0.652 -2.267,0.996c-0.734,0.336 -1.105,0.915 -1.236,1.552c-0.208,0.173 -0.412,0.353 -0.618,0.528c-0.095,-0.028 -0.188,-0.035 -0.286,-0.04c0.12,-0.104 0.222,-0.225 0.344,-0.325c-0.096,-0.899 0.351,-1.906 1.344,-2.238c1.478,-0.497 2.942,-0.964 4.386,-1.438c-0.564,0.302 -1.12,0.622 -1.667,0.965m209.589,-114.157c-0.201,-0.4 -0.444,-0.796 -0.768,-1.176c-16.072,-18.886 -30.593,-38.952 -43.606,-60.047c-1.176,-3.069 -2.315,-6.153 -3.378,-9.263c-2.218,-6.493 -3.916,-12.704 -8.322,-18.102c-0.522,-0.639 -1.091,-1.083 -1.678,-1.376c2.292,0.082 4.632,-0.163 6.563,-0.694c6.925,-1.901 11.311,-7.43 14.219,-13.622c5.382,-11.452 9.457,-22.491 10.728,-35.14c5.333,-10.148 7.762,-21.472 8.31,-33.103c0.592,-12.557 1.56,-26.901 -1.012,-39.547c0.37,-2.046 0.398,-4.274 -0.022,-6.66c-0.451,-2.554 -1.244,-5.148 -2.338,-7.62c-0.069,-0.466 -0.14,-0.933 -0.226,-1.408c-0.771,-4.186 -3.743,-7.508 -7.45,-9.51c-4.757,-5.454 -11.178,-8.756 -18.528,-9.415c-5.557,-0.499 -10.794,0.359 -15.708,2.124c-1.046,-0.541 -2.172,-0.955 -3.378,-1.195c-12.25,-2.426 -24.498,-4.853 -36.746,-7.281c-7.85,-1.555 -14.276,1.508 -17.696,7.341c-0.913,0.734 -1.716,1.606 -2.412,2.575c-11.074,5.657 -21.242,12.741 -31.313,19.985c-0.324,0.22 -0.644,0.444 -0.965,0.666c-8.176,3.762 -16.567,7.098 -25.099,10.126c-1.459,0.519 -2.933,1.038 -4.4,1.558c-4.123,2.768 -9.681,4.416 -13.396,5.664c-7.464,2.504 -15.219,3.24 -23.016,3.724c-5.131,1.273 -10.395,2.149 -15.676,2.79c-8.408,1.02 -16.888,1.444 -25.333,2.024c-9.636,0.662 -17.416,-1.078 -26.498,-3.772c-2.321,-0.246 -4.434,-0.733 -6.01,-1.606c-1.178,-0.067 -2.355,-0.124 -3.532,-0.199c-32.578,-2.092 -65.494,-8.395 -95.336,-21.985c-3.512,-0.268 -6.899,-1.2 -10.444,-2.263c-7.306,-2.189 -14.655,-4.296 -22.068,-6.092c-1.012,-0.244 -1.658,-0.783 -2.006,-1.443c-4.498,-1.434 -8.898,-3.242 -13.421,-4.912c-0.048,0.468 -0.073,0.938 -0.113,1.407c2.225,5.775 3.569,11.847 5.054,17.877c0.368,1.495 -0.262,2.655 -1.244,3.335c2.331,6.839 3.566,13.945 3.902,21.203c0.002,0.02 0.006,0.04 0.01,0.06c0.682,1.688 1.33,3.389 1.962,5.1c0.605,1.49 1.166,2.994 1.657,4.521c1.62,4.436 3.276,8.86 5.341,13.099c0.3,0.614 -0.168,1.181 -0.676,1.273c0.934,0.579 1.906,1.083 2.892,1.557c0.094,-0.058 0.186,-0.118 0.308,-0.157c1.716,-0.541 3.455,-0.952 5.208,-1.251c0.046,2.028 0.175,4.074 0.428,6.156c0.51,4.188 1.992,8.055 4.531,10.924c0.377,0.946 0.783,1.878 1.215,2.795c-1.932,-0.369 -3.823,-0.887 -5.604,-1.448c-0.747,-0.236 -0.903,-0.965 -0.679,-1.525c-0.173,0.097 -0.34,0.214 -0.524,0.293c-0.593,0.396 -1.181,0.8 -1.761,1.229c-0.375,0.278 -0.735,0.248 -1.026,0.076c0.218,1.611 0.387,3.227 0.626,4.832c0.821,3.104 2.146,6.228 2.585,7.651c0.072,0.236 0.041,0.467 -0.047,0.675c1.471,2.994 3.396,5.708 5.479,8.382c0.835,1.072 -0.339,2.395 -1.42,1.702c-2.263,5.158 -4.871,10.248 -7.328,15.352c-1.908,5.516 -3.34,11.16 -4.395,16.9c-0.521,2.84 -0.769,5.772 -1.08,8.688c0.407,0.136 0.762,0.464 0.831,0.99c0.417,3.112 0.8,6.211 1.179,9.302c0.24,1.784 0.505,3.58 0.802,5.377c1.566,5.112 3.11,10.221 5.06,15.232c1.17,3.003 2.412,5.983 3.77,8.907c1.017,1.712 2.052,3.413 3.098,5.105c1.392,2.256 3.98,4.929 4.44,7.611c0.118,0.692 -0.334,1.324 -0.946,1.414c0.393,0.563 0.764,1.14 1.145,1.711c1.787,1.072 3.453,2.5 5.011,4.165c0.528,0.235 1.024,0.624 1.426,1.218c4.356,6.422 9.472,12.048 12.564,19.249c0.968,2.259 2.016,4.304 3.127,6.26c-0.827,0.863 -1.141,2.309 -0.471,3.301c1.868,2.767 4.252,5.002 6.151,7.643c-1.74,1.321 -1.22,4.839 1.572,4.839c0.365,0 0.683,-0.071 0.969,-0.179c0.119,0.179 0.243,0.365 0.398,0.601c1.886,2.886 0.666,4.528 -0.668,6.908c-1.904,2.655 -2.89,5.707 -2.518,9.466c-0.002,0.032 -0.005,0.061 -0.008,0.093c0.006,-0.001 0.012,-0.001 0.018,-0.003c0.025,0.236 0.042,0.468 0.077,0.711c0.063,0.424 0.207,0.765 0.4,1.043c-0.036,0.614 -0.045,1.237 -0.04,1.864c-0.951,2.053 -1.921,4.1 -2.905,6.134c-0.002,0.027 -0.006,0.051 -0.008,0.078c-0.07,0.758 -0.104,1.502 -0.119,2.237c-2.86,1.16 -3.728,5.525 -3.384,8.247c0.164,1.296 0.585,2.446 1.195,3.452c-0.147,0.716 -0.034,1.474 0.476,2.166c0.824,1.12 1.72,2.076 2.997,2.679c0.479,0.225 0.984,0.359 1.487,0.397c0.421,0.212 0.86,0.315 1.288,0.299c0.092,0.048 0.182,0.093 0.274,0.128c2.254,4.64 5.06,9.128 7.612,13.879c0.62,1.154 1.194,2.333 1.739,3.529c1.279,1.376 2.289,3.085 3.208,4.835c-0.317,0.34 -0.553,0.765 -0.693,1.182c-1.055,3.152 0.396,5.822 3.058,7.67c1.286,0.892 2.419,1.128 3.331,1.668c0.608,1.1 1.219,2.19 1.837,3.269c0.158,2.421 -1.416,4.852 -1.341,7.329c0.081,2.651 1.42,5.402 4.031,6.368c0.094,0.035 0.19,0.047 0.286,0.072c0.407,0.727 1.13,1.288 2.17,1.378c2.252,0.156 3.889,0.953 5.246,2.057c0.652,0.605 1.232,1.331 1.722,2.203c0.346,0.497 0.778,0.817 1.241,1.001c1.708,2.195 3.353,4.519 6.125,5.783c0.186,0.146 0.359,0.301 0.555,0.442c3.877,2.775 9.001,3.314 12.371,-0.162c8.822,2.784 18.286,3.857 28.142,4.588c7.351,0.545 14.036,2.978 20.738,5.908c7.969,3.484 15.421,7.465 24.293,4.933c0.08,-0.021 0.156,-0.051 0.235,-0.075c-0.25,-1.06 0.264,-2.489 2.126,-4.028c3.319,-2.745 7.588,-2.961 11.806,-3.244c2.348,-1.388 4.749,-2.666 7.338,-3.552c3.291,-1.124 6.684,-1.936 10.058,-2.8c1.069,-0.454 2.008,-0.966 2.846,-1.537c0.43,-1.413 1.119,-2.723 1.987,-3.907c-2.919,6.192 3.131,7.19 9.037,7.224c1.583,0.01 3.18,0.151 4.779,0.288c3.564,-0.444 6.924,-1.617 10.455,-2.389c3.761,-0.824 7.574,-1.308 11.322,-2.197c0.336,-0.927 -0.317,-2.106 -1.525,-1.764c-3.168,0.894 -6.204,1.51 -9.252,1.62c6.007,-1.084 12.013,-2.166 18.021,-3.25c2.03,-0.292 4.059,-0.585 6.088,-0.877c8.302,-1.013 16.535,-2.464 24.635,-4.657c1.528,-0.276 3.056,-0.551 4.585,-0.827c0.416,-0.075 0.752,-0.251 1.027,-0.483c10.691,-2.52 20.924,-6.393 30.896,-10.961c4.041,-1.62 7.983,-3.419 11.752,-5.491c0.127,-0.069 0.241,-0.152 0.349,-0.24c5.284,-2.561 10.472,-5.345 15.523,-8.408c0.921,-0.558 1.296,-1.381 1.285,-2.196c2.095,-1.305 4.183,-2.62 6.266,-3.936c0.74,-0.468 1.104,-1.217 1.177,-1.996c3.237,-2 6.437,-4.069 9.588,-6.225c0.208,-0.143 0.379,-0.303 0.532,-0.469c11.067,-6.856 21.675,-14.271 31.351,-23.218c13.072,-12.088 25.361,-24.414 33.14,-40.646c1.87,-3.906 -1.516,-8.431 -5.126,-8.188" style="fill:#6d382f;fill-rule:nonzero;"/><path d="M361.939,311.71c-7.047,-0.767 -13.729,-2.336 -20.473,-4.47c-5.59,-1.766 -10.571,-3.145 -16.482,-2.402c-0.082,0.01 -0.165,0.024 -0.248,0.034c-0.836,-0.269 -1.77,-0.336 -2.76,-0.192c-0.578,0.086 -1.124,0.25 -1.648,0.466c-3.374,0.112 -6.636,0.862 -9.216,3.005c-0.172,0.012 -0.346,0.056 -0.517,0.151c-3.533,1.952 -6.483,4.172 -9.255,6.98c-1.408,0.96 -2.77,2.006 -4.141,3.11c-0.456,0.368 -0.477,1.142 -0.208,1.616c1.728,3.04 7.424,3.563 12.315,3.488c5.081,2.54 16.42,0.738 19.729,0.288c11.032,-1.496 24.211,-3.056 33.577,-9.589c1.131,-0.789 0.651,-2.341 -0.673,-2.485" style="fill:#fff;fill-rule:nonzero;"/><path d="M213.347,324.83c-0.631,-0.578 -1.364,-1.08 -2.163,-1.529c-0.043,-0.036 -0.069,-0.081 -0.119,-0.113l-1.246,-0.774c-0.266,-0.165 -0.552,-0.205 -0.823,-0.162c-0.264,-0.107 -0.533,-0.208 -0.804,-0.308c-1.576,-0.724 -3.095,-1.5 -4.648,-2.379c-0.273,-0.153 -0.556,-0.175 -0.823,-0.129c-5.792,-3.487 -11.872,-5.312 -18.664,-5.63c-0.138,-0.005 -0.254,0.019 -0.37,0.046c-0.146,-0.139 -0.32,-0.248 -0.546,-0.284c-2.105,-0.336 -3.558,-0.248 -5.47,0.498c-0.358,-0.02 -0.699,-0.037 -0.994,-0.037c-0.273,0 -0.486,0.083 -0.672,0.196c-0.432,0.056 -0.821,0.345 -0.98,0.948c-0.19,0.721 -0.38,1.441 -0.57,2.163c-0.078,0.294 -0.039,0.552 0.046,0.784c-0.012,0.093 -0.034,0.181 -0.025,0.288c0.1,1.105 0.299,2.32 0.619,3.53c-0.382,0.24 -0.662,0.628 -0.626,1.092c0.215,2.818 1.871,5.079 3.636,7.227c0.244,0.365 0.528,0.705 0.846,1.021c0.185,0.223 0.37,0.446 0.553,0.668c0.205,0.251 0.468,0.356 0.737,0.383c0.623,0.409 1.303,0.748 2.022,1.005c1.002,0.508 2.142,0.862 3.457,1.008c5.516,0.612 12.573,-1.685 16.668,-5.697c3.343,-0.348 6.551,-1.457 10.016,-1.537c1.107,-0.027 1.821,-1.471 0.943,-2.278" style="fill:#fff;fill-rule:nonzero;"/><path d="M360.706,312.492c-0.256,-0.452 -0.869,-0.73 -1.389,-0.614c-0.448,-0.95 -1.918,-1.024 -2.402,0.036c-0.037,-0.02 -0.061,-0.05 -0.101,-0.066c-2.54,-1.064 -8.868,-5.259 -12.74,-5.182c-1.94,-1.01 -4.309,-1.961 -5.487,-0.564c-0.033,0.04 -0.046,0.084 -0.076,0.124c-2.865,-1.416 -5.874,-2.385 -8.909,-1.906c-0.337,0.053 -0.597,0.277 -0.765,0.565c-0.451,-0.153 -0.868,-0.073 -1.195,0.149c-0.088,-0.206 -0.187,-0.406 -0.264,-0.621c-0.599,-1.319 -2.8,-0.444 -2.456,0.899c-0.001,0.006 -0.005,0.01 -0.007,0.016c-0.325,-0.086 -0.674,-0.075 -0.969,0.078c-0.276,-0.096 -0.568,-0.101 -0.839,-0.016c-0.021,-0.06 -0.033,-0.118 -0.056,-0.177c-0.426,-1.12 -1.914,-1.287 -2.454,-0.237c-0.287,0.149 -0.506,0.405 -0.559,0.792c-0.072,0.516 -0.144,1.032 -0.216,1.548c-0.032,0.232 -0.007,0.44 0.048,0.632c-0.037,2.176 0.324,4.36 1.027,6.441c0.5,1.835 1.16,3.497 2.032,5.032c0.665,1.891 1.885,3.297 3.888,4.945c0.63,0.519 1.381,0.372 1.852,-0.049c2.334,1.137 5.666,-0.516 8.224,-1.103c0.589,-0.134 0.878,-0.578 0.932,-1.061c4.773,-0.464 9.794,-1.987 14.297,-2.871c0.723,-0.142 1.011,-0.836 0.931,-1.474c0.118,-0.039 0.237,-0.079 0.356,-0.118c0.081,0.047 0.172,0.095 0.248,0.138c1.06,0.617 1.938,-0.272 1.918,-1.2c0.17,-0.014 0.335,-0.051 0.487,-0.119c0.005,0.017 0.016,0.033 0.024,0.051c0.479,1.017 2.22,0.773 2.436,-0.318c0.013,-0.088 0.039,-0.172 0.051,-0.258c0.042,-0.048 0.09,-0.075 0.128,-0.132c0.07,-0.15 0.128,-0.274 0.185,-0.398c0.429,0.352 1.103,0.448 1.593,0.18c0.035,-0.02 0.072,-0.04 0.108,-0.058c0.218,-0.006 0.447,-0.076 0.68,-0.246c0.23,-0.168 0.46,-0.336 0.688,-0.504c1.332,-0.973 0.24,-3.033 -1.249,-2.334" style="fill:#392822;fill-rule:nonzero;"/><path d="M210.464,323.362c-0.905,-0.387 -1.805,-0.777 -2.701,-1.175c-0.024,-0.016 -0.035,-0.037 -0.059,-0.05c-2.633,-1.474 -5.309,-2.831 -8.055,-4.082c-0.333,-0.152 -0.649,-0.153 -0.934,-0.082c-0.7,-0.319 -1.416,-0.607 -2.142,-0.871c-0.333,-0.461 -0.942,-0.62 -1.478,-0.459c-0.042,-0.06 -0.072,-0.128 -0.114,-0.188c-0.134,-0.198 -0.304,-0.336 -0.482,-0.44c-0.296,-0.826 -1.335,-1.273 -2.003,-0.882c-0.508,-0.435 -1.367,-0.494 -1.893,0.024c-0.656,0.006 -1.327,0.437 -1.383,1.284c-0.067,0.456 -0.059,0.909 0.001,1.364c0.018,1.042 0.08,2.042 0.199,3.018c-0.611,2.786 0.565,6.832 2.293,9.652c0.27,0.675 0.583,1.315 0.958,1.88c0.046,0.134 0.094,0.267 0.141,0.399c0.2,0.565 0.743,0.856 1.284,0.897c0.936,0.22 2.137,-0.452 1.673,-1.557c-0.009,-0.021 -0.017,-0.037 -0.026,-0.06c0.378,0.087 0.772,0.011 1.082,-0.24c0.13,0.041 0.263,0.068 0.391,0.069c1.761,0.022 3.353,-1.55 4.791,-2.902c0.872,-0.49 1.601,-1.082 2.026,-1.82c0.046,-0.031 0.09,-0.074 0.135,-0.104c0.28,-0.074 0.527,-0.138 0.727,-0.194c0.382,-0.106 0.626,-0.322 0.776,-0.577c0.101,-0.041 0.21,-0.065 0.314,-0.103c0.026,-0.004 0.051,-0.006 0.078,-0.01c0.144,-0.024 0.25,-0.08 0.36,-0.132c0.476,-0.144 0.978,-0.252 1.506,-0.326c0.61,0.1 1.224,0.17 1.862,0.151c1.204,-0.035 1.968,-1.929 0.673,-2.484" style="fill:#392822;fill-rule:nonzero;"/><path d="M200.218,329.893c0.815,-0.686 1.663,-1.327 2.592,-1.836c0.439,-0.24 0.896,-0.442 1.358,-0.631c1.348,-2.411 1.34,-6.057 -0.031,-8.451c-1.919,-0.702 -3.813,-1.388 -5.757,-2c-4.67,2.234 -4.067,12.907 1.838,12.918" style="fill:#251916;fill-rule:nonzero;"/><path d="M340.078,305.186c-8.58,0 -8.593,13.333 0,13.333c8.58,0 8.594,-13.333 0,-13.333" style="fill:#251916;fill-rule:nonzero;"/><path d="M331.468,308.186c-6.863,0 -6.875,10.666 0,10.666c6.862,0 6.874,-10.666 0,-10.666" style="fill:#fff;fill-rule:nonzero;"/><path d="M195.634,319.852c-6.005,0 -6.016,9.334 0,9.334c6.006,0 6.016,-9.334 0,-9.334" style="fill:#fff;fill-rule:nonzero;"/><path d="M164.515,252.155c1.592,0.217 3.181,0.447 4.772,0.677c0.762,0.43 1.552,0.824 2.354,1.202c-2.388,-0.574 -4.764,-1.198 -7.126,-1.879m381.23,-47.415c-0.086,-1.932 -0.358,-3.822 -0.773,-5.662c0.831,-1.464 1.52,-3.003 2.069,-4.595c-0.101,-0.809 -0.19,-1.62 -0.27,-2.432c-1.614,-7.479 -3.987,-14.811 -3.174,-22.391c-0.597,-0.957 -1.225,-1.892 -1.921,-2.772c-0.539,-1.514 -1.179,-2.982 -1.929,-4.38c1.81,-3.722 2.814,-7.916 2.756,-12.434c-0.479,-37.075 -20.467,-72.568 -52.411,-91.515c-3.763,-4.121 -7.883,-7.867 -12.957,-11.023c-4.715,-2.933 -9.852,-4.925 -15.164,-6.018l-5.547,-6.842c-5.743,-7.084 -10.921,-14.31 -18.763,-19.3c-8.55,-5.442 -18.745,-7.516 -28.378,-5.398c-11.724,-5.744 -24.752,-7.628 -39.034,-3.244c-1.496,0.458 -2.969,0.99 -4.449,1.496c-2.529,-0.475 -5.071,-0.883 -7.62,-1.16c-0.151,-0.05 -0.307,-0.098 -0.457,-0.147c-7.126,-2.321 -15.048,-3.372 -22.668,-2.529c-3.346,-0.914 -6.718,-1.696 -10.119,-2.318c-5.717,-1.042 -11.807,-0.82 -17.351,0.876c-4.998,-1.021 -10.249,-0.436 -15.097,1.356c-11.123,0.232 -21.393,4.618 -30.332,11.047c-2.44,0.668 -4.859,1.411 -7.265,2.191c-2.527,2.505 -6.01,3.814 -9.079,5.598c-3.336,1.94 -6.648,3.9 -9.905,5.955c-0.643,0.553 -1.272,1.085 -1.88,1.572c-6.971,5.579 -13.935,11.14 -21.298,16.197c-0.261,0.179 -0.521,0.275 -0.774,0.312c-2.458,2.166 -4.867,4.374 -7.208,6.622c-4.087,3.922 -7.907,8.257 -11.4,12.844c-0.591,0.88 -1.174,1.765 -1.738,2.658c-4.268,6.762 -8.28,13.686 -12.068,20.728c-0.877,1.96 -1.804,3.912 -2.658,5.892c-2.196,5.092 -4.044,10.384 -5.783,15.712c0.171,0.778 0.347,1.555 0.556,2.34c0.027,0.102 0.064,0.199 0.092,0.3c-1.483,2.999 -2.933,6.014 -4.372,9.032c-0.167,0.52 -0.333,1.044 -0.5,1.563c-3.068,9.479 -5.895,19.024 -8.639,28.601c-1.258,4.388 -2.458,8.791 -3.556,13.222c-0.237,3.477 -0.468,6.956 -0.877,10.418c-0.229,1.94 -0.408,3.874 -0.941,5.672c0.673,3.258 1.532,6.488 2.524,9.675c0.206,0.661 0.45,1.299 0.694,1.937c-0.681,2.174 -1.393,4.338 -2.161,6.486c-0.568,1.592 -0.939,3.229 -1.132,4.886c-0.273,0.027 -0.545,0.066 -0.819,0.095c-0.136,0.515 -0.434,0.989 -0.94,1.259c-0.288,0.697 -0.893,1.285 -1.728,1.345c-1.377,0.101 -1.653,0.149 -2.408,-0.119c-1.954,0.368 -3.91,0.718 -5.868,1.064c-1.941,0.55 -3.844,1.183 -5.45,1.631c-0.167,0.531 -0.582,0.976 -1.311,1.133c-1.644,0.352 -3.284,0.715 -4.92,1.09c-5.667,2.293 -11.384,4.389 -17.599,4.98c-0.405,0.038 -0.738,-0.035 -1.009,-0.178c-1.145,0.782 -2.255,1.608 -3.309,2.502c-6.742,1.974 -13.483,3.948 -20.224,5.922c-1.962,0.21 -3.922,0.419 -5.882,0.675c-0.828,0.109 -1.265,0.811 -1.273,1.467c-2.811,0.917 -5.6,1.918 -8.368,3.022c-0.008,0.003 -0.012,0.01 -0.02,0.012c-0.348,0.027 -0.697,0.06 -1.045,0.086c-1.08,0.076 -1.482,1.146 -1.184,1.906c-0.09,0.015 -0.179,0.032 -0.268,0.047c-0.555,-0.04 -1.11,-0.069 -1.663,-0.115c-0.569,-0.046 -0.929,0.23 -1.119,0.606c-0.621,0.118 -1.242,0.234 -1.861,0.368c-11.596,0.565 -22.551,3.87 -32.395,9.832c-3.104,1.397 -6.146,2.964 -9.133,4.678c-0.295,-0.81 -1.491,-1.326 -2.243,-0.58c-1.993,1.983 -3.866,4.04 -5.646,6.162c-0.551,-0.215 -1.231,-0.123 -1.648,0.501c-1.083,1.616 -2.059,3.259 -2.955,4.929c0.176,-0.653 0.363,-1.3 0.528,-1.958c0.355,-1.414 -1.743,-2.427 -2.436,-1.028c-0.523,1.054 -0.987,2.116 -1.42,3.181c-0.137,0.147 -0.248,0.321 -0.284,0.563c-0.015,0.096 -0.029,0.193 -0.043,0.288c-1.085,2.829 -1.858,5.704 -2.313,8.644c-0.311,0.805 -0.615,1.61 -0.944,2.412c-0.247,0.597 0.051,1.101 0.512,1.396c-0.116,1.9 -0.108,3.832 0.028,5.802c0.085,1.239 1.899,1.795 2.464,0.791c0.445,-0.096 0.844,-0.383 0.977,-0.893c0.856,-3.292 1.712,-6.583 2.567,-9.874c0.212,-0.001 0.425,-0.042 0.62,-0.185c7.561,-5.507 14.903,-11.276 22.048,-17.299c0.741,-0.317 1.481,-0.637 2.223,-0.952c9.404,-2.19 18.885,-4.509 27.622,-8.422c9.251,0.454 18.483,-0.007 27.715,-1.01c4.372,-0.476 8.732,-1.054 13.087,-1.662c0.588,-0.083 1.213,-0.142 1.849,-0.198c4.333,0.771 8.679,1.415 13.064,1.682c6.369,1.45 12.745,2.872 19.139,4.218c4.433,0.935 8.876,1.987 13.357,2.68c-0.547,0.623 -0.311,1.915 0.612,2.28c11.735,4.662 23.947,7.386 36.316,9.38c8.153,2.77 16.42,4.91 25.023,5.856c0.877,0.098 1.298,-0.622 1.262,-1.34c3.044,0.842 6.102,1.626 9.174,2.355c0.133,0.137 0.289,0.256 0.486,0.327c0.94,0.332 1.888,0.636 2.831,0.956c0.099,0.392 0.367,0.734 0.895,0.857c1.93,0.411 3.854,0.844 5.772,1.296c4.369,1.337 8.776,2.544 13.225,3.621c2.384,1.556 5.043,2.807 7.976,3.656c23.536,6.814 47.369,9.848 71.376,9.766c3.928,2.064 8.411,3.245 13.271,3.245c3.688,0 7.336,-0.787 10.744,-2.191c5.094,0.608 10.41,0.215 15.896,-1.265c2.522,-0.68 5.028,-1.487 7.522,-2.348c2.951,0.149 5.896,-0.227 8.688,-1.268c6.499,-2.424 12.924,-5.065 19.2,-8.017c18.284,-2.842 35.403,-12.606 50.18,-24.414c0.463,-0.148 0.924,-0.309 1.383,-0.494c9.869,-4.002 16.689,-8.732 21.151,-18.276c0.937,-1.443 1.81,-2.904 2.648,-4.376c4.23,2.52 9.176,3.982 14.588,3.982c0.522,0 1.045,-0.018 1.566,-0.049c3.67,1.735 7.784,2.716 12.212,2.716c2.122,0 4.226,-0.273 6.284,-0.76c2.487,1.961 6.652,2.257 10.599,2.157c4.692,1.044 9.411,1.876 14.187,2.503l0.018,0.005l0,-0.002c0.119,0.014 0.236,0.034 0.355,0.05c0.707,0.091 1.132,-0.41 1.248,-1c1.776,-0.226 3.407,-0.594 5.185,-1.208c0.748,0.392 1.81,0.032 1.938,-1.116c0.05,-0.445 0.081,-0.885 0.12,-1.326c0.576,-0.115 1.084,-0.547 1.065,-1.262c-0.152,-6.101 -0.695,-12.125 -1.617,-18.124c1.104,-3.054 1.657,-6.32 1.506,-9.696" style="fill:#2f353f;fill-rule:nonzero;"/><path d="M154.489,266.141c-2.601,-4.59 -1.892,-11.441 -5.326,-15.314c-3.822,-4.314 -12.668,-4.076 -17.896,-4.916c-15.108,-2.427 -30.418,-4.143 -45.74,-3.558c-18.347,0.703 -41.204,4.494 -57.419,15.786c-1.385,-0.692 -3.048,-0.715 -4.663,0.446c-2.961,2.132 -6.712,5.566 -8.456,9.426c-0.058,0.076 -0.125,0.136 -0.181,0.214c-4.391,6.231 -8.837,18.928 0.648,23.258c1.163,1.858 2.555,3.421 4.116,4.426c5.121,3.294 11.611,2.888 17.441,2.682c8.084,-0.287 16.14,-1.123 24.162,-2.139c15.158,-1.92 30.581,-3.669 45.405,-7.468c15.201,-3.895 29.94,-9.789 44.721,-15.008c3.244,-1.145 4.982,-4.671 3.188,-7.835" style="fill:#ddb4b1;fill-rule:nonzero;"/><path d="M316.808,607.966c-1.107,-0.471 -2.208,-0.91 -3.252,-1.355c-0.554,0.267 -1.054,0.625 -1.487,1.071c1.473,0.338 2.949,0.646 4.425,0.95c0.076,-0.233 0.184,-0.454 0.314,-0.666" style="fill:#030404;fill-rule:nonzero;"/><clipPath id="_clip1"><rect x="310.88" y="535.199" width="298.708" height="131.253" clip-rule="nonzero"/></clipPath><g clip-path="url(#_clip1)"><path d="M601.882,551.687c-34.948,25.264 -72.766,46.033 -110.739,66.325c-7.055,3.771 -14.107,7.602 -21.211,11.334c5.814,-5.951 11.756,-11.771 18.088,-17.076c7.288,-6.108 15.47,-10.879 23.892,-15.218c3.674,-1.496 7.3,-3.19 10.88,-5.176c0.387,-0.216 0.723,-0.456 1.018,-0.716c1.26,-0.612 2.518,-1.222 3.772,-1.836c24.301,-11.896 48.845,-24.461 67.188,-44.88c4.577,-5.093 -2.943,-12.661 -7.543,-7.542c-18.739,20.858 -44.159,32.994 -68.935,45.122c-3.469,1.698 -6.925,3.406 -10.345,5.166c-8.745,3.569 -17.812,5.689 -27.396,7.134c-5.061,0.762 -9.835,2.059 -14.481,3.65c-0.131,0.008 -0.251,-0.004 -0.386,0.014c-8.446,1.134 -16.388,3.199 -24.178,6.33c-16.643,2.892 -33.388,4.992 -50.218,6.318c-5.369,-0.626 -10.762,-1.045 -16.182,-1.248c-0.9,-0.033 -1.68,0.13 -2.347,0.434c-0.221,0.176 -0.471,0.333 -0.763,0.454c-0.678,0.495 -1.196,1.158 -1.532,1.918c-0.024,-0.032 -0.054,-0.058 -0.078,-0.09c-0.223,0.302 -0.51,0.579 -0.887,0.811c-0.328,0.201 -0.661,0.368 -0.989,0.559c-1.751,-1.114 -3.664,-2.054 -5.487,-2.155c-2.741,-0.155 -4.744,1.933 -4.703,4.659c0.006,0.316 0.04,0.625 0.094,0.925c-0.355,0.14 -0.712,0.259 -1.066,0.419c-0.24,0.106 -0.44,0.261 -0.613,0.441c-0.047,0.025 -0.085,0.06 -0.129,0.087c-2.206,0.309 -4.419,0.536 -6.638,0.708c-1.733,-0.242 -3.492,-0.323 -4.628,0.766c-0.228,-0.176 -0.45,-0.357 -0.678,-0.532c-0.01,-0.01 -0.02,-0.018 -0.03,-0.028c0,0.002 -0.001,0.003 -0.001,0.004c-0.181,-0.138 -0.356,-0.284 -0.539,-0.421c-1.044,-0.792 -2.725,-0.269 -3.44,0.687c-0.816,1.093 -0.702,2.49 0.21,3.501c0.618,0.685 1.306,1.312 2.038,1.883c0.015,0.09 0.019,0.18 0.042,0.272c-5.81,1.892 -11.779,2.688 -17.566,0.848c-0.489,-0.784 -1.15,-1.484 -1.858,-2.079c-1.339,-2.412 -4.304,-3.953 -6.544,-1.679c-0.128,-0.138 -0.263,-0.268 -0.388,-0.412c-1.467,-1.686 -3.55,-0.68 -4.227,0.938c-0.771,-0.963 -0.944,-2.45 -0.369,-3.539c-0.371,-0.073 -0.742,-0.163 -1.111,-0.239c4.685,40.562 63.764,52.298 96.948,46.555c23.041,-3.987 44.799,-14.783 65.365,-25.477c21.774,-11.322 43.427,-22.951 64.804,-35.006c23.8,-13.42 47.118,-27.689 69.27,-43.704c5.51,-3.982 0.193,-13.24 -5.384,-9.209" style="fill:#030404;fill-rule:nonzero;"/></g><clipPath id="_clip2"><rect x="2.113" y="49.428" width="544.301" height="247.833" clip-rule="nonzero"/></clipPath><g clip-path="url(#_clip2)"><path d="M546.228,217.299c0.377,-6.697 -0.16,-13.451 -0.995,-20.164c-0.045,-0.533 -0.084,-1.069 -0.132,-1.604c-0.194,-2.133 -0.329,-4.321 -0.661,-6.453c-0.073,-11.491 -0.207,-23.159 -2.569,-34.158c-1.744,-8.118 -4.004,-16.153 -6.026,-24.208c-1.918,-7.646 -3.158,-16.025 -6.22,-23.309c-2.33,-5.544 -6.681,-9.397 -11.01,-13.395c-6.08,-5.612 -12.167,-11.216 -18.25,-16.824c-10.902,-10.049 -21.814,-20.121 -34.833,-27.396c-1.127,-0.628 -2.211,-0.372 -2.964,0.283c-1.105,0.475 -1.975,1.585 -1.689,3.085c4.064,21.386 6.194,43.035 6.47,64.692c-1.428,8.951 -3.132,17.888 -6.208,26.424c-2.908,8.067 -7.121,15.506 -11.896,22.583c0.234,-1.249 0.471,-2.493 0.716,-3.727c3.062,-15.398 8.12,-32.848 5.935,-48.688c0.087,-0.857 0.163,-1.718 0.221,-2.585c0.039,-0.585 -0.073,-1.153 -0.29,-1.683c1.788,-1.152 1.276,-4.769 -1.514,-4.988c-7.286,-0.572 -14.349,1.318 -20.128,5.887c-4.834,3.821 -3.696,6.229 -0.06,10.237c4.627,5.1 6.862,11.067 1.482,16.508c-2.978,3.011 -6.839,5.407 -10.351,7.763c-7.987,5.355 -16.599,9.459 -25.669,12.621c-16.862,5.88 -34.531,8.87 -51.72,13.583c-17.97,4.927 -34.935,12.328 -50.634,22.379c-2.881,1.845 -0.209,6.464 2.691,4.606c0.384,-0.245 0.776,-0.466 1.159,-0.708c0.737,1.506 2.164,2.736 4.042,2.928c9.502,0.976 18.899,2.584 28.276,4.326c0.37,-0.431 0.847,-0.759 1.427,-0.886c5.24,-1.144 10.979,0.336 16.289,2.282c6.324,0.201 12.84,1.97 19.175,3.685c6.764,0.612 13.892,2.593 20.009,3.501c7.952,1.18 15.931,2.203 23.894,3.332c1.449,-0.058 2.905,-0.181 4.312,-0.445c0.273,0.469 0.654,0.876 1.094,1.236c2.616,0.395 5.232,0.797 7.839,1.243c0.287,0.048 0.533,0.133 0.76,0.234c2.34,0.08 4.689,0.095 7.041,0.066c0.546,0.717 1.372,1.27 2.558,1.497c7.244,1.379 14.516,2.568 21.829,3.527c3.944,0.516 8.704,1.993 12.555,0.7c0.545,0.385 1.097,0.76 1.654,1.124c-13.34,13.99 -29.804,24.177 -47.386,32.309c-20.639,9.545 -42.971,17.924 -64.974,23.681c-25.757,6.739 -52.665,1.395 -78.232,-3.857c-25.806,-5.3 -51.197,-12.408 -76.496,-19.707c-28.118,-8.112 -56.212,-17.47 -85.382,-20.928c-2.92,-0.346 -4.567,1.427 -4.972,3.623c-4.272,-0.884 -8.547,-1.748 -12.88,-2.307c-1.76,-0.226 -3.539,-0.426 -5.326,-0.614c-7.105,-0.24 -14.213,-0.254 -21.333,0.274c-0.56,0.043 -1.031,-0.058 -1.429,-0.244c-5.642,0.816 -11.254,1.824 -16.85,2.907c-14.364,2.779 -29.065,7.816 -41.512,15.74c-9.19,5.851 -19.05,18.253 -13.185,29.703c5.941,11.597 25.867,10.744 37.711,9.724c5.094,0.286 10.174,0.209 15.232,-0.182c8.525,-0.524 17.005,-1.741 25.384,-3.554c5.446,-1.179 10.834,-2.607 16.17,-4.21c9.471,-1.697 18.792,-4.113 27.94,-7.308c1.48,-0.516 2.438,-1.54 2.919,-2.718c0.343,0.044 0.707,0.06 1.105,0.03c3.442,-0.254 6.694,-0.841 9.883,-1.75c1.457,-0.204 2.907,-0.404 4.343,-0.587c1.94,-0.249 3.913,-0.881 5.641,-1.805c2.325,0.073 4.471,-1.671 4.663,-4.468c1.117,-2.34 0.838,-5.148 -1.886,-8.122c-0.065,-0.072 -0.134,-0.121 -0.201,-0.186c0.053,-0.554 0.027,-1.146 -0.137,-1.794c-0.643,-1.854 -0.762,-3.741 -0.359,-5.66c16.557,4.076 32.896,9.31 49.173,14.014c26.522,7.665 53.127,15.166 80.196,20.668c24.912,5.064 51.452,10.33 76.73,5.008c22.662,-4.772 45.461,-14.003 66.698,-23.152c21.459,-9.246 41.962,-21.259 57.8,-38.583c5.086,2.845 11.378,2.415 17.638,1.895c10.51,3.849 21.489,8.19 32.589,9.198c1.983,0.18 3.329,-0.818 4.003,-2.222c0.576,0.1 1.146,0.21 1.729,0.297c3.736,0.565 6.436,-2.42 5.696,-5.559c0.439,-1.06 0.876,-2.12 1.312,-3.18c0.439,-1.064 0.285,-2.193 -0.223,-3.177c1.051,-3.769 0.816,-8.477 0.599,-12.308" style="fill:#030404;fill-rule:nonzero;"/></g><clipPath id="_clip3"><rect x="26.906" y="235.804" width="121.132" height="25.495" clip-rule="nonzero"/></clipPath><g clip-path="url(#_clip3)"><path d="M144.286,242.216c-32.199,-9.298 -66.177,-8.378 -97.696,2.078c-0.717,-0.093 -1.491,-0.02 -2.32,0.319c-2.679,1.091 -5.316,2.239 -7.924,3.452c-1.489,0.604 -2.976,1.221 -4.452,1.869c-0.669,0.294 -1.192,0.679 -1.604,1.116c-0.239,0.126 -0.481,0.243 -0.72,0.368c-6.071,3.212 -0.687,12.422 5.383,9.211c0.905,-0.479 1.813,-0.945 2.724,-1.407c2.876,-0.869 5.56,-2.104 8.209,-3.504c6.644,-2.436 13.429,-4.39 20.308,-5.865c1.171,1.283 2.917,2.06 5.068,1.645c10.591,-2.042 20.448,-2.77 31.225,-2.962c8.798,-0.155 17.399,1.006 26.148,1.438c0.646,0.032 1.21,-0.06 1.734,-0.204c3.717,0.782 7.417,1.672 11.081,2.731c6.608,1.908 9.429,-8.381 2.836,-10.285" style="fill:#030404;fill-rule:nonzero;"/></g><path d="M593.68,469.644c-1.101,-1.317 -2.203,-2.637 -3.304,-3.955c-0.831,-0.993 -2.527,-1.562 -3.772,-1.562c-1.307,0 -2.869,0.581 -3.771,1.562c-0.933,1.016 -1.625,2.351 -1.562,3.771c0.066,1.485 0.61,2.633 1.562,3.771c1.102,1.32 2.203,2.637 3.304,3.956c0.83,0.993 2.526,1.562 3.771,1.562c1.308,0 2.871,-0.581 3.772,-1.562c0.932,-1.016 1.625,-2.351 1.561,-3.771c-0.066,-1.485 -0.61,-2.633 -1.561,-3.772" style="fill:#030404;fill-rule:nonzero;"/><clipPath id="_clip4"><rect x="592.754" y="479.007" width="12.799" height="10.501" clip-rule="nonzero"/></clipPath><g clip-path="url(#_clip4)"><path d="M605.343,486.47c-0.134,-0.211 -0.282,-0.398 -0.439,-0.567c-0.092,-0.447 -0.3,-0.849 -0.699,-1.308c-0.574,-0.664 -1.41,-0.465 -1.889,0.072c-1.724,-1.723 -3.831,-3.225 -5.675,-4.78c-0.006,-0.015 -0.014,-0.029 -0.021,-0.045c-0.296,-0.678 -1.011,-0.775 -1.6,-0.532c-0.88,-0.786 -2.699,0.064 -2.172,1.338c0.045,0.111 0.101,0.207 0.149,0.312c-0.005,0.002 -0.01,0.004 -0.016,0.007c0.034,0.06 0.071,0.116 0.104,0.176c0.283,0.576 0.615,1.093 0.99,1.561c0.098,0.138 0.186,0.28 0.292,0.416c0.108,0.143 0.241,0.252 0.386,0.343c0.392,0.392 0.815,0.756 1.266,1.097c1.658,2.863 4.144,5.988 6.549,4.614c0.425,-0.242 0.719,-0.574 0.913,-0.943c1.084,0.656 2.64,-0.524 1.862,-1.761" style="fill:#030404;fill-rule:nonzero;"/></g><path d="M517.171,497.477c-11.578,21.66 -25.319,42.49 -43.554,59.154c-9.165,8.374 -19.4,15.418 -30.549,20.886c-6.532,3.204 -13.292,5.896 -20.12,8.394c-7.888,2.886 -16.067,6.192 -24.623,5.02c-3.354,-0.46 -4.808,4.678 -1.417,5.142c13.809,1.892 27.777,-4.75 40.233,-10.034c12.863,-5.458 24.771,-12.5 35.492,-21.475c20.899,-17.493 36.395,-40.543 49.142,-64.395c1.617,-3.026 -2.984,-5.722 -4.604,-2.692" style="fill:#21130d;fill-rule:nonzero;"/><clipPath id="_clip5"><rect x="151.792" y="252.891" width="28.187" height="26.984" clip-rule="nonzero"/></clipPath><g clip-path="url(#_clip5)"><path d="M178.642,269.675c-4.277,-8.971 -15.14,-14.61 -24.405,-16.746c-0.864,-0.198 -1.463,0.395 -1.616,1.067c-1.007,0.391 -1.233,2.135 0.1,2.532c0.493,0.147 0.977,0.319 1.465,0.476c-0.309,0.463 -0.365,1.084 0.144,1.612c0.232,0.241 0.476,0.472 0.71,0.711c-0.666,0.413 -0.928,1.466 -0.304,2.116c0.078,0.081 0.162,0.156 0.242,0.237c-0.645,0.445 -0.969,1.443 -0.268,2.079c0.45,0.406 0.906,0.804 1.363,1.202c-0.335,0.507 -0.397,1.175 0.161,1.61c0.09,0.07 0.182,0.136 0.271,0.206c0,0.002 -0.001,0.002 -0.001,0.003c0.05,0.036 0.1,0.073 0.15,0.109c0.802,0.62 1.61,1.231 2.423,1.832c-1.017,0.23 -1.596,1.768 -0.433,2.446c0.036,0.021 0.073,0.04 0.109,0.062c-1.372,-0.433 -2.464,1.602 -1.065,2.394c4.914,2.785 11.528,6.916 17.5,6.161c0.816,-0.104 1.489,-0.337 2.029,-0.672c0.297,-0.129 0.589,-0.28 0.867,-0.48c2.973,-2.147 1.874,-6.199 0.558,-8.957" style="fill:#030404;fill-rule:nonzero;"/></g><clipPath id="_clip6"><rect x="196.289" y="232.852" width="328.184" height="393.579" clip-rule="nonzero"/></clipPath><g clip-path="url(#_clip6)"><path d="M491.981,305.01c-0.411,-0.195 -0.875,-0.324 -1.43,-0.324c-0.01,0 -0.02,0.003 -0.03,0.003c0,-0.292 -0.044,-0.58 -0.11,-0.864c0.598,0.21 1.263,0.261 1.947,0.094c0.112,-0.028 0.223,-0.054 0.333,-0.081c0.103,-0.025 0.199,-0.072 0.298,-0.111c0.005,0.015 0.012,0.028 0.018,0.042c-0.486,0.292 -0.832,0.732 -1.026,1.241m-1.992,-27.428c0.246,-0.217 0.436,-0.484 0.578,-0.775c0.027,0.656 0.259,1.298 0.702,1.775c-0.338,0.395 -0.548,0.887 -0.62,1.405c-0.139,-0.225 -0.324,-0.417 -0.532,-0.588c0.144,-0.6 0.097,-1.249 -0.128,-1.817m-0.946,-13.008c-0.37,-0.315 -0.829,-0.548 -1.385,-0.653c0.088,-0.3 0.107,-0.61 0.092,-0.918c0.691,-0.417 1.233,-1.061 1.423,-1.893c0.086,-0.381 0.1,-0.771 0.062,-1.153c0.366,0.138 0.77,0.229 1.232,0.229c0.639,0 1.166,-0.165 1.612,-0.417c0.099,0.332 0.25,0.644 0.443,0.929c-2.161,0.061 -3.188,1.84 -3.089,3.548c-0.142,0.099 -0.27,0.208 -0.39,0.328m-0.9,36.063c-0.242,-0.428 -0.597,-0.78 -1.037,-1.043c0.539,-0.064 0.979,-0.265 1.32,-0.561c0.049,0.018 0.092,0.045 0.144,0.061c-0.267,0.473 -0.409,1.007 -0.427,1.543m-2.12,-30.243c0.288,0.079 0.6,0.125 0.944,0.125c0.307,0 0.583,-0.045 0.843,-0.11c-0.257,0.402 -0.436,0.854 -0.513,1.333c-0.236,-0.581 -0.646,-1.085 -1.274,-1.348m-0.944,8.553c-0.252,-0.385 -0.606,-0.704 -1.072,-0.894c-0.048,-0.304 -0.142,-0.599 -0.281,-0.871c0.467,-0.445 0.731,-1.064 0.795,-1.707c0.145,0.022 0.288,0.044 0.446,0.044c0.283,0 0.535,-0.048 0.77,-0.114c-0.014,0.416 0.052,0.836 0.205,1.218c-0.647,0.572 -0.935,1.464 -0.863,2.324m-2.664,-6.393c-0.129,-0.02 -0.266,-0.029 -0.408,-0.032c0.024,-0.553 -0.072,-1.107 -0.284,-1.612c2.412,-0.661 2.418,-4.451 0.002,-5.115c0.078,-0.241 0.116,-0.494 0.132,-0.749c0.306,-0.189 0.568,-0.421 0.78,-0.695c0.09,0.131 0.161,0.27 0.278,0.387c0.111,0.111 0.222,0.223 0.334,0.333c0.242,0.243 0.534,0.427 0.85,0.556c-0.798,1.711 -0.192,4.118 1.831,4.736c-0.285,-0.105 -0.6,-0.177 -0.963,-0.177c-1.586,0 -2.432,1.141 -2.552,2.368m2.584,-25.992c0.006,0.012 0.015,0.021 0.022,0.032c-0.242,0.443 -0.374,0.941 -0.415,1.449c-0.289,-0.192 -0.616,-0.346 -0.997,-0.432c0.554,-0.256 1.017,-0.617 1.39,-1.049m2.251,10.321c0.001,0.096 0.016,0.19 0.023,0.284c-0.14,-0.057 -0.276,-0.12 -0.43,-0.157c-0.221,-0.056 -0.444,-0.111 -0.666,-0.167c-0.823,-0.202 -1.716,-0.074 -2.467,0.311c0.417,-0.968 0.399,-2.131 -0.061,-3.077c0.449,-0.111 0.842,-0.298 1.164,-0.555c0,0.056 -0.015,0.108 -0.012,0.164c0.068,1.504 1.045,2.803 2.449,3.197m-3.24,42.507c-0.081,-0.109 -0.165,-0.217 -0.268,-0.312c-0.12,-0.109 -0.248,-0.204 -0.38,-0.291c0.095,-0.602 0.057,-1.23 -0.137,-1.805c0.22,0.233 0.489,0.425 0.809,0.557c-0.216,0.591 -0.032,1.338 0.561,1.655c-0.21,0.045 -0.402,0.116 -0.585,0.196m-1.38,-3.468c-0.227,-0.267 -0.497,-0.499 -0.82,-0.676c-0.169,-0.839 -0.696,-1.581 -1.579,-1.895c0.159,-0.161 0.286,-0.346 0.394,-0.542c0.402,0.301 0.924,0.488 1.565,0.488c0.132,0 0.249,-0.022 0.371,-0.038c0.053,0.212 0.11,0.422 0.201,0.618c-0.281,0.634 -0.327,1.376 -0.132,2.045m-2.788,11.483c0.257,-0.931 0.049,-1.992 -0.609,-2.691c0.088,0.02 0.185,0.027 0.281,0.035c0.055,0.277 0.255,0.52 0.62,0.52c0.483,0 0.684,-0.419 0.624,-0.788c0.223,-0.139 0.389,-0.33 0.528,-0.539c-0.185,0.677 -0.129,1.423 0.167,2.053c-0.735,0.272 -1.279,0.776 -1.611,1.41m-4.903,4.841c-0.332,-0.175 -0.706,-0.304 -1.137,-0.352c0.509,-0.183 0.915,-0.489 1.235,-0.863c-0.098,0.396 -0.131,0.807 -0.098,1.215m1.751,-63.736c-0.103,-0.224 -0.223,-0.441 -0.372,-0.639c0.559,-0.613 0.849,-1.445 0.864,-2.284c0.132,-0.045 0.276,-0.073 0.4,-0.129c0.311,0.696 0.785,1.305 1.421,1.757c-1.061,0.084 -1.832,0.588 -2.313,1.295m18.173,17.937c0.44,0.526 1.076,0.896 1.89,1.016c-0.015,0.968 0.341,1.931 1.05,2.584c-0.11,-0.01 -0.217,-0.028 -0.336,-0.028c-0.161,0 -0.308,0.023 -0.454,0.046c0.177,-1.434 -0.65,-3.008 -2.492,-3.04c0,-0.09 -0.015,-0.179 -0.02,-0.267c0.13,-0.095 0.245,-0.204 0.362,-0.311m4.772,-19.124c0.616,0.014 1.227,-0.144 1.762,-0.481c-0.346,1.248 -0.036,2.691 0.929,3.56c-0.487,-0.339 -1.103,-0.549 -1.859,-0.549c-0.861,0 -1.541,0.276 -2.058,0.706c0.229,-0.986 0.06,-2.082 -0.512,-2.909c0.596,-0.001 1.189,-0.103 1.738,-0.327m4.832,3.863c0.076,0 0.138,-0.021 0.21,-0.025c0.132,0.602 0.417,1.161 0.841,1.604c-0.513,0.208 -0.923,0.536 -1.232,0.94c-0.172,-0.242 -0.369,-0.464 -0.609,-0.643c-0.028,-0.925 -0.398,-1.827 -1.087,-2.441c0.492,0.348 1.113,0.565 1.877,0.565m19.954,209.627c-0.704,-3.798 -1.411,-7.594 -2.115,-11.39c0.352,-0.336 0.613,-0.781 0.727,-1.334c0.164,-0.268 0.288,-0.588 0.344,-0.98c0.892,-6.319 0.636,-12.484 -0.904,-18.574c-0.062,-4.169 -1.104,-8.213 -3,-12.018c-0.594,-1.19 -1.646,-1.507 -2.626,-1.28c-0.429,-0.755 -0.892,-1.528 -1.389,-2.364c0.039,-1.332 0.057,-2.664 0.064,-3.994c0.261,-4.244 0.192,-8.506 -0.232,-12.802c-0.035,-0.351 -0.133,-0.656 -0.263,-0.934c-0.33,-4.409 -0.818,-8.814 -1.48,-13.222c-0.27,-1.799 -1.846,-2.224 -3.19,-1.735c-0.063,-0.468 -0.11,-0.936 -0.175,-1.405c-0.157,-1.135 -0.844,-1.715 -1.664,-1.871c0.68,-8.965 0.029,-17.82 -1.888,-26.676c-0.253,-1.171 -1.047,-1.749 -1.939,-1.876c-0.762,-4.712 -1.562,-9.417 -2.441,-14.112c-0.155,-0.824 -0.58,-1.36 -1.127,-1.652c-0.066,-0.277 -0.12,-0.556 -0.19,-0.835c1.733,-7.606 3.029,-15.796 -0.507,-21.966c-0.231,-0.403 -0.523,-0.674 -0.836,-0.88c-0.021,-0.64 -0.265,-1.247 -0.684,-1.719c0.555,-1.285 0.151,-3.019 -1.231,-3.623c0.332,-0.873 0.231,-1.926 -0.306,-2.69c0.308,-1.13 -0.051,-2.47 -1.088,-3.102c1.012,-0.658 1.356,-2.006 1.017,-3.132c0.088,-0.332 0.14,-0.673 0.135,-1.018c0.781,-1.303 0.632,-3.15 -0.422,-4.252c1.079,-0.542 0.886,-2.524 -0.6,-2.524c-0.356,0 -0.622,0.132 -0.83,0.316c-0.174,-0.43 -0.562,-0.762 -1.17,-0.762c-0.756,0 -1.166,0.519 -1.253,1.099c-0.14,-0.303 -0.335,-0.575 -0.584,-0.801c0.451,-0.315 0.628,-0.895 0.511,-1.419c0.844,-0.033 1.47,-0.392 1.877,-0.915c-0.192,0.766 0.207,1.703 1.228,1.703c1.667,0 1.704,-2.499 0.127,-2.64c2.358,-0.572 2.514,-4.075 0.45,-5.016c1.568,-0.356 2.187,-1.971 1.838,-3.327c1.614,-0.754 1.856,-3.081 0.728,-4.302c0.201,0.036 0.408,0.064 0.634,0.064c3.978,0 4.266,-5.72 0.866,-6.556c0.117,-0.024 0.233,-0.034 0.35,-0.074c0.167,-0.056 0.334,-0.113 0.499,-0.169c0.169,-0.057 0.333,-0.129 0.493,-0.211c0.524,0.784 1.391,1.343 2.626,1.343c3.454,0 4.126,-4.317 2.017,-6.001c3.283,-0.014 4.033,-3.931 2.264,-5.751c0.483,-0.196 0.881,-0.489 1.184,-0.863c0.324,0.068 0.664,0.115 1.035,0.115c3.152,0 4.636,-2.565 4.476,-5.007c0.51,0.412 1.181,0.674 2.024,0.674c1.669,0 2.682,-1.014 3.052,-2.247c3.266,-2.201 2.43,-8.587 -2.552,-8.587c-0.087,0 -0.16,0.02 -0.244,0.024c-0.727,-0.621 -1.692,-1.024 -2.923,-1.024c-2.461,0 -3.905,1.566 -4.347,3.414c-0.668,-1.376 -1.988,-2.414 -3.986,-2.414c-0.744,0 -1.394,0.147 -1.952,0.399c-0.531,-0.725 -1.372,-1.232 -2.548,-1.232c-1.506,0 -2.471,0.827 -2.922,1.892c-0.234,-0.088 -0.476,-0.164 -0.721,-0.219c-0.399,-1.42 -1.617,-2.506 -3.191,-2.506l-0.333,0c-1.063,0 -2.092,0.573 -2.72,1.425c-0.159,-2.189 -1.613,-4.259 -4.447,-4.259c-1.57,0 -2.728,0.64 -3.474,1.583c-0.475,-0.996 -1.419,-1.749 -2.859,-1.749c-1.491,0 -2.452,0.81 -2.907,1.861c-1.264,0.136 -2.096,0.889 -2.505,1.845c-0.191,-0.021 -0.383,-0.04 -0.588,-0.04c-3.909,0 -5.26,3.947 -4.08,6.708c-1.036,1.206 -1.068,3.183 -0.107,4.443c-1.682,1.853 -0.904,5.683 2.354,5.683c0.002,0 0.005,-0.002 0.008,-0.002c0.249,1.418 1.298,2.668 3.158,2.668c0.226,0 0.435,-0.021 0.636,-0.056c0.094,1.299 0.844,2.528 2.247,2.918c-2.453,0.184 -3.376,2.64 -2.737,4.518c-0.8,1.387 -0.327,3.528 1.432,4.011c-0.174,0.524 -0.184,1.101 -0.058,1.64c-3.326,0.276 -3.788,4.752 -1.368,6.187c-2.902,0.512 -2.738,5.282 0.515,5.282c0.133,0 0.252,-0.021 0.375,-0.037c0.429,0.519 1.08,0.871 1.958,0.871c0.191,0 0.368,-0.02 0.536,-0.054c0.272,1.027 1.087,1.887 2.464,1.887c0.791,0 1.391,-0.291 1.819,-0.727c0.015,0.072 0.02,0.144 0.044,0.218c0.14,0.438 0.308,0.866 0.472,1.298c0,0.767 0.284,1.518 0.855,2.03c0.062,0.136 0.117,0.277 0.182,0.412c0.144,0.297 0.363,0.545 0.623,0.746c-0.583,0.352 -0.723,1.131 -0.456,1.726c0.001,0.089 0.012,0.177 0.021,0.265c-0.274,-0.077 -0.564,-0.135 -0.893,-0.135c-0.189,0 -0.361,0.024 -0.532,0.055c0.4,-0.811 0.417,-1.837 -0.059,-2.579c-0.324,-0.502 -0.753,-0.854 -1.233,-1.065c-0.423,-0.6 -1.105,-1.023 -2.065,-1.023c-0.098,0 -0.18,0.023 -0.274,0.031c-0.414,-0.355 -0.966,-0.585 -1.67,-0.585c-1.015,0 -1.723,0.472 -2.138,1.129c-0.141,-1.199 -0.969,-2.296 -2.529,-2.296c-3.089,0 -3.393,4.312 -0.915,5.173c-1.354,1.462 -0.762,4.498 1.803,4.543c0.081,0.224 0.18,0.44 0.315,0.635c-0.479,0.045 -0.802,0.308 -0.98,0.656c-0.19,-0.04 -0.394,-0.063 -0.612,-0.063c-0.463,0 -0.843,0.121 -1.182,0.289c-0.356,-0.585 -0.91,-1.048 -1.558,-1.196c-1.482,-0.337 -2.8,0.448 -3.282,1.863c-0.038,0.111 -0.076,0.221 -0.113,0.332c-0.449,1.323 0.515,2.975 1.863,3.281c0.802,0.182 1.55,0.027 2.15,-0.372c0.027,0.042 0.04,0.091 0.07,0.131c-0.555,0.301 -0.942,0.787 -1.138,1.355c-0.546,0.466 -0.601,1.386 -0.149,1.934c-0.172,-0.086 -0.368,-0.145 -0.605,-0.145c-1.687,0 -1.708,2.567 -0.075,2.652c0.003,0.703 0.251,1.4 0.731,1.905c-2.931,1.062 -2.687,6.019 0.76,6.402c-2.11,0.754 -2.552,3.494 -1.386,5.145c-0.165,0.932 0.111,1.944 0.814,2.577c0.009,0.079 0.009,0.154 0.025,0.234c0.349,1.834 0.68,3.67 1,5.508c0.079,0.598 0.179,1.198 0.3,1.797c0.912,5.416 1.7,10.848 2.335,16.308c0.168,1.444 1.246,2.272 2.39,2.483c0.652,3.602 1.294,7.206 1.942,10.809c-0.074,0.348 -0.167,0.695 -0.239,1.044c-1.193,4.999 -2.025,10.065 -2.517,15.223c-0.043,0.44 0.012,0.82 0.134,1.145c-0.009,0.121 -0.026,0.24 -0.037,0.36c-0.532,0.117 -1.043,0.285 -1.527,0.497c-0.125,0.006 -0.241,-0.008 -0.372,0.008c-0.766,0.09 -1.453,0.346 -2.07,0.727c-0.215,0.076 -0.43,0.176 -0.646,0.328c-2.953,2.056 -4.249,4.629 -5.429,7.977c-0.445,1.263 0.221,2.382 1.232,2.948c-0.057,0.61 -0.101,1.199 -0.12,1.748c-0.353,1.339 -0.593,2.682 -0.699,3.962c-0.854,-1.092 -1.777,-1.99 -2.641,-2.56c-0.805,-0.531 -1.88,-0.439 -2.693,0c-1.568,0.846 -2.63,2.726 -3.182,4.989c-0.352,0.281 -0.642,0.675 -0.834,1.185c-0.959,0.316 -1.76,1.123 -1.831,2.416c-0.077,2.671 -0.235,5.33 -0.431,7.986c-0.088,0.774 -0.15,1.562 -0.208,2.349c-4.181,4.484 -8.01,9.335 -11.884,14.064c-0.502,0.016 -1.03,-0.013 -1.616,-0.135c-2.612,-0.536 -5.224,0.375 -7.025,2.05c-3.688,0.232 -6.923,0.749 -10.408,3.933c-5.051,4.613 -6.559,10.972 -7.215,17.533c-0.028,0.276 -0.041,0.543 -0.044,0.8c-0.656,0.352 -1.298,0.816 -1.914,1.436c-1.426,1.444 -2.548,2.975 -3.44,4.572c-0.958,0.794 -1.756,1.867 -2.28,3.26c-0.758,2.015 -1.362,4.064 -1.707,6.111c-0.669,3.267 -0.884,6.685 0.189,9.321c-0.213,0.95 -0.473,1.879 -0.825,2.755c-0.988,2.465 -2.068,1.115 -4.916,2.775c-4.789,2.792 -6.651,10.074 -8.516,14.864c-0.251,0.642 -0.484,1.286 -0.723,1.932c-1.462,-0.628 -3.065,-0.987 -4.749,-1.019c-0.339,0.187 -0.705,0.349 -1.121,0.464c-0.75,0.205 -1.602,0.181 -2.436,0c-0.31,0.087 -0.619,0.173 -0.918,0.284c0.068,-0.161 0.135,-0.32 0.2,-0.48c-1.573,-0.552 -2.94,-1.739 -3.162,-3.391c-0.398,-2.945 -0.127,-5.417 1.273,-8.061c0.919,-1.731 2.259,-3.201 3.244,-4.895c0.144,-0.246 0.311,-0.446 0.475,-0.656c-0.346,-0.74 -0.758,-1.456 -1.255,-2.132c0.523,-2.222 0.719,-4.432 0.684,-6.628c2.163,-5.926 -0.191,-12.049 -2.375,-17.696c-0.609,-1.569 -1.937,-2.266 -3.24,-2.278c-0.596,-0.562 -1.345,-0.863 -2.108,-0.942c-1.666,-2.926 -4,-5.83 -6.897,-6.453c-1.257,-1.165 -2.564,-2.28 -3.903,-3.36c-0.132,-1.195 -0.812,-2.347 -2.213,-2.884c-2.235,-0.86 -4.011,-1.86 -5.973,-3.169c-1.271,-0.847 -2.547,-0.63 -3.484,0.1c-0.007,-0.003 -0.012,-0.006 -0.016,-0.008c-1.215,-0.67 -2.534,-0.767 -3.832,-0.48c-2.123,0.182 -4.152,1.122 -5.542,2.874c-0.902,-0.454 -1.801,-0.881 -2.693,-1.196c-1.82,-0.645 -3.36,0.527 -3.921,2.08c-1.286,-0.362 -2.684,-0.354 -4.226,-0.058c-1.802,-1.048 -3.83,0.038 -4.562,1.728c-3.216,-0.004 -6.268,0.444 -8.058,2.08c-1.638,0.369 -3.272,0.802 -4.902,1.301c-0.391,0.119 -0.739,0.32 -1.046,0.567c-0.618,0.07 -1.237,0.137 -1.852,0.198c-1.436,0.143 -2.377,0.884 -2.852,1.82c-2.721,0.26 -5.369,0.72 -7.88,1.459c-0.117,0.009 -0.236,0.008 -0.353,0.016c-1.117,0.093 -1.993,0.593 -2.553,1.303c-0.414,-0.184 -0.816,-0.387 -1.235,-0.564c-3.979,-1.678 -8.795,-4.296 -13.184,-3.138c-0.967,0.256 -1.627,0.894 -2.007,1.666c-1.093,-0.075 -2.182,-0.167 -3.284,-0.21c-0.548,-0.02 -1.036,0.107 -1.462,0.326c-0.53,-0.134 -1.063,-0.251 -1.6,-0.343c-2.244,-0.912 -4.788,-1.365 -6.843,-0.791c-2.071,-0.254 -3.961,-0.076 -5.605,1.128c-0.162,-0.374 -0.339,-0.745 -0.555,-1.113c-0.684,-1.159 -1.215,-2.115 -2.596,-2.637c-2.659,-1.004 -4.748,0.589 -5.628,2.926c-1.155,-0.216 -2.355,0.1 -3.056,1.068c-1.151,0.472 -2.084,1.502 -2.127,2.976c-0.028,0.979 -0.056,1.956 -0.085,2.936c-0.104,0.184 -0.212,0.368 -0.304,0.564c-0.491,0.828 -0.792,1.835 -0.923,2.93c-0.317,1.721 -0.302,3.486 0.016,4.892c0.354,1.561 1.159,2.897 2.203,3.909c1.019,1.385 2.336,2.324 3.872,2.457c0.293,0.22 0.609,0.411 0.961,0.527c1.875,0.615 3.726,1.041 5.575,1.324c1.596,0.691 3.524,0.795 5.307,0.399c1.258,-0.01 2.528,-0.096 3.808,-0.239c1.704,0.569 3.238,0.607 5.224,-0.148c0.154,-0.059 0.296,-0.131 0.434,-0.203c1.374,0.2 2.726,0.327 4.055,0.366c1.465,0.457 2.992,0.646 4.696,0.572c0.951,-0.043 1.776,-0.508 2.369,-1.176c0.232,-0.048 0.467,-0.087 0.698,-0.139c1.277,2.952 4.649,4.321 7.844,4.055c3.24,-0.272 6.372,-1.552 9.522,-2.811c7.162,5.415 15.871,5.72 24.414,3.792c0.518,1.488 1.929,2.632 3.884,2.055c5.297,-1.566 9.354,-4.775 13.394,-8.418c0.015,-0.012 0.023,-0.024 0.035,-0.036c2.5,0.864 5.093,1.187 7.689,1.498c3.111,1.734 6.08,3.776 8.368,6.514c-0.23,0.17 -0.442,0.363 -0.658,0.55c1.63,1.816 2.038,4.504 -0.408,6.505c-2.044,1.675 -2.406,6.237 -3.439,8.681c-1.865,4.414 -4.473,8.456 -8.228,11.486c-0.083,0.066 -0.169,0.106 -0.252,0.166c-0.763,1.874 -1.537,3.742 -2.293,5.618c-2.227,2.75 -7.476,8.257 -10.703,7.022c-0.992,-0.378 -2.575,0.022 -3.243,0.859c-0.585,0.731 -1.085,1.428 -1.522,2.133c-0.591,0.383 -1.075,0.992 -1.316,1.894c-0.372,1.721 -0.959,3.368 -1.762,4.942c-0.116,0.247 -0.2,0.49 -0.258,0.73c-0.226,0.049 -0.452,0.093 -0.674,0.158c-0.049,-2.625 -3.83,-4.626 -5.684,-2.297c-2.29,2.879 -3.309,5.291 -3.681,8.903c-0.804,2.35 -1.561,4.714 -2.227,7.12c-0.101,0.366 -0.12,0.72 -0.096,1.058c-1.521,2.339 -3.04,4.79 -4.378,7.303c-3.326,-0.973 -7.694,-0.759 -12.215,0.373c-2.573,0.356 -5.027,1.15 -7.185,2.535c-1.482,0.679 -2.912,1.452 -4.278,2.293c-1.6,-1.428 -3.153,-2.908 -4.662,-4.44c0.916,-0.486 1.566,-1.417 1.498,-2.806c-0.12,-2.442 -0.492,-4.67 -1.144,-6.83c-0.037,-0.72 -0.092,-1.438 -0.142,-2.157c0.432,-1.021 1.116,-1.875 1.974,-2.62c0.856,0.34 1.84,0.376 2.776,-0.1c2.298,-1.169 3.851,-2.455 5.544,-4.437c0.394,-0.464 0.623,-1.038 0.72,-1.642c2.106,0.151 4.348,-1.49 3.512,-4.07c-0.08,-0.25 -0.166,-0.507 -0.256,-0.766c0.054,-0.97 -0.422,-1.948 -1.164,-2.644c-0.861,-1.468 -2.076,-2.589 -3.921,-2.489c-1.344,-1.409 -3.224,-1.285 -4.952,-0.927c-5.339,1.106 -10.123,3.968 -15.653,4.863c-5.556,0.899 -11.195,0.76 -16.662,-0.588c-4.253,-1.048 -8.934,-3.917 -13.378,-3.527c-1.599,0.142 -2.658,0.962 -3.215,2.448c-0.325,0.868 -0.465,1.82 -0.463,2.799c-0.852,-0.211 -1.749,-0.071 -2.488,0.357c-0.312,-0.546 -0.622,-1.094 -0.933,-1.641c-0.263,-0.464 -0.633,-0.812 -1.057,-1.064c-0.475,-0.668 -0.95,-1.336 -1.424,-2.004c-0.692,-0.972 -1.644,-1.411 -2.602,-1.46c-0.185,-0.943 -0.465,-1.901 -0.865,-2.929c-0.201,-0.518 -0.52,-0.94 -0.899,-1.286c-0.344,-1.314 -0.709,-2.626 -1.118,-3.937c-0.316,-1.009 -1.056,-1.676 -1.93,-2.024c-0.62,-2.396 -0.926,-4.791 -0.945,-7.315c0.044,-0.178 0.071,-0.345 0.123,-0.53c0.986,-3.464 2.282,-6.78 3.844,-10.027c1.093,-2.271 -0.463,-4.367 -2.303,-4.92c-0.135,-3.571 -2.048,-6.661 -0.029,-10.216c2.618,-4.612 7.288,-5.777 11.536,-8.181c5.458,-3.09 5.332,-8.075 2.148,-13.014c-1.291,-2.002 -3.651,-1.85 -5.087,-0.7c-0.267,-0.192 -0.588,-0.366 -0.936,-0.53c-1.563,0.397 -3.177,0.568 -4.809,0.446c-0.438,0 -0.882,-0.033 -1.347,-0.152c-0.867,0.116 -1.709,0.114 -2.497,-0.076c-2.735,0.931 -5.383,1.748 -9.12,-0.922c-2.156,-1.54 -3.807,-3.916 -5.786,-5.683c-2.138,-1.908 -4.234,-3.176 -5.626,-5.803c-0.475,-0.898 -1.166,-1.385 -1.91,-1.569c0.25,-3.085 -4.362,-5.229 -6.198,-1.964c-2.627,4.671 -2.566,9.033 -1.532,13.351c-0.1,0.336 -0.163,0.7 -0.144,1.118c0.229,5.376 3.113,11.076 5.529,15.795c0.104,0.204 0.221,0.383 0.344,0.548c0.087,0.56 0.179,1.117 0.263,1.677c0.174,1.184 0.281,2.372 0.369,3.559c-0.507,0.712 -0.729,1.627 -0.413,2.667c0.36,1.184 0.684,2.35 0.98,3.525c0.181,1.209 0.429,2.409 0.81,3.589c0.428,1.327 1.339,2.043 2.346,2.271c0.121,1.519 -0.22,3.049 0.022,4.577c0.519,3.276 2.507,6.276 5.494,7.802c0.209,0.105 0.386,0.168 0.584,0.256c-0.147,0.38 -0.282,0.761 -0.36,1.161c-0.295,1.481 0.254,2.739 1.301,3.783c0.797,0.796 2.012,1.254 2.687,2.116c0.174,0.222 0.389,0.39 0.62,0.533c-0.008,0.024 -0.012,0.049 -0.019,0.073c-0.452,1.586 -0.848,2.93 -0.875,4.255c-0.741,0.181 -1.406,0.691 -1.821,1.649c-1.339,3.1 -2.533,4.05 -2.544,7.008c-1.332,3.726 -2.268,7.771 0.424,9.844c-0.019,0.166 -0.051,0.322 -0.069,0.487c-0.042,0.389 -0.007,0.729 0.06,1.047c-1.571,1.486 -3.119,3.074 -4.155,4.841c-1.153,1.967 -1.227,4.385 -0.853,6.667c-0.688,3.04 1.113,6.078 3.685,8.224c1.859,1.548 4.183,1.505 6.077,2.756c1.047,0.692 1.719,1.744 2.204,2.944c-0.514,0.897 -0.68,2.017 -0.185,3.181c1.423,3.056 1.844,6.404 3.965,9.111c1.43,1.825 2.52,3.172 3.411,4.76c-0.396,3.046 0.145,5.037 2.183,7.424c1.949,2.28 3.332,5.118 5.396,7.265c-0.727,3.08 -0.152,6.253 1.516,8.925c0.633,3.49 2.586,6.236 6.544,6.496c0.718,0.048 1.394,-0.06 2.032,-0.252c0.652,0.382 1.345,0.663 2.061,0.787c0.869,2.288 2.175,4.665 3.771,6.655c0.366,0.701 0.88,1.322 1.693,1.832c2.059,1.936 4.444,3.141 6.965,2.824c0.755,-0.095 1.419,-0.3 2.032,-0.562c1.62,0.212 4.223,-0.804 6.576,-1.674c5.75,4.908 15.511,4.729 19.696,-0.826c0.259,0.252 0.52,0.495 0.788,0.73c0.54,1.922 2.186,3.586 4.176,4.477c4.655,2.085 9.126,0.48 12.655,-2.645c0.673,1.334 1.46,2.582 2.352,3.69c0.049,1.096 0.545,2.196 1.508,2.846c1.235,0.832 1.809,1.188 2.616,1.476c0.765,0.522 1.729,0.79 2.869,0.676c0.528,-0.052 0.998,-0.224 1.414,-0.466c0.213,0.002 0.425,0.007 0.644,-0.005c1.928,-0.107 3.457,-0.791 4.674,-1.824c0.239,-0.081 0.479,-0.165 0.715,-0.268c0.388,-0.165 0.737,-0.364 1.081,-0.564c0.138,3.151 1.407,5.999 4.128,7.556c0.503,0.745 1.23,1.327 2.239,1.689c0.215,0.24 0.443,0.475 0.707,0.696c2.401,2.019 5.502,1.762 7.91,-0.033c2.618,-1.948 3.726,-4.895 3.954,-8.129c0.973,0.269 1.937,0.44 2.886,0.513c0.594,0.175 1.23,0.193 1.842,0.031c1.508,-0.091 2.926,-0.459 4.205,-1.08c1.491,0.972 3.617,0.894 4.599,-1.04c0.918,-1.814 1.757,-3.727 2.772,-5.511c1.006,0.459 1.972,1.219 3.06,1.38c0.208,0.029 0.393,0.044 0.577,0.057c1.02,0.751 2.503,0.898 3.796,0.344c2.177,-0.932 3.564,-2.362 4.685,-4.041c0.618,-0.116 1.215,-0.411 1.716,-0.892c1.262,-1.212 2.294,-2.656 2.738,-4.219c1.292,-1.064 2.51,-2.161 3.609,-3.342c3.756,1.513 9.16,-1.123 13.071,-3.951c1.377,-0.861 2.621,-1.887 3.64,-3.091c0.064,-0.066 0.133,-0.136 0.193,-0.2c0.163,-0.174 0.279,-0.362 0.397,-0.55c0.047,-0.064 0.095,-0.128 0.142,-0.194c0.002,-0.005 0.006,-0.01 0.009,-0.016c0.736,-1.062 1.307,-2.24 1.653,-3.545c0.02,-0.076 0.018,-0.165 0.032,-0.247c2.655,0.287 5.323,-0.089 7.867,-1.63c3.204,-1.94 5.583,-5.423 7.652,-9.027c0.005,0 0.012,0 0.017,-0.001c4.784,-0.687 7.904,-4.268 10.446,-8.248c1.409,0.106 2.876,-0.276 4.241,-1.304c1.915,-0.435 3.648,-1.567 4.524,-3.375c0.376,-0.772 0.751,-1.545 1.125,-2.317c4.876,-2.006 9.106,-5.046 13.195,-8.558c4.957,-4.256 9.557,-9.616 15.785,-12.038c2.954,-1.148 4.623,-3.767 4.998,-6.46c1.274,0.052 2.549,-0.18 3.68,-0.799c3.733,-2.04 6.053,-5.511 6.205,-9.664c0.164,-0.236 0.339,-0.46 0.511,-0.689c2.514,0.454 5.168,-0.508 6.8,-3.658c0.761,-1.47 1.478,-2.953 2.154,-4.445c0.655,-1.261 1.339,-2.513 2.019,-3.767c0.265,-0.045 0.531,-0.124 0.795,-0.252c6.58,-3.242 11.601,-7.88 15.802,-13.87c4.339,-6.184 8.963,-12.56 12.636,-19.16c2.61,-4.69 3.783,-9.286 4.062,-13.856c1.502,-0.103 3.06,-1.391 2.7,-3.328" style="fill:#030404;fill-rule:nonzero;"/></g><path d="M527.892,438.842c-0.054,-0.353 -0.098,-0.703 -0.189,-1.065c-0.668,-2.68 -2.185,-4.992 -3.072,-7.563c-0.119,-0.343 -0.217,-0.683 -0.303,-1.023c-0.828,-1.457 -1.09,-3.017 -1.141,-5.088c-0.084,-3.434 -1.012,-5.728 -2.319,-8.85c-0.66,-1.578 -1.4,-2.13 -1.533,-3.871c-0.113,-1.489 0.747,-2.649 0.92,-4.048c0.829,-6.637 -0.779,-5.113 -2.341,-9.145c-1.015,-2.615 -0.752,-5.746 -0.279,-8.764c0.111,-3.363 -0.3,-6.167 -3.459,-9.068c-6.22,-5.718 0.479,-18.592 -2.244,-26.376c-0.832,-2.382 -3.277,-3.319 -4.364,-5.32c-1.373,-2.53 0.539,-6.563 -0.493,-9.684c-1.588,-4.796 -3.843,-6.21 -2.976,-11.698c0.605,-3.826 1.205,-6.801 0.397,-10.722c-1.741,-8.466 -7.464,-15.658 -6.473,-24.627c0.015,-0.144 0.008,-0.272 0.004,-0.403c-0.797,2.932 -1.276,5.942 -1.215,9.012c0.107,5.239 2.247,9.127 3.48,14.018c1.358,5.394 -1.068,10.278 -2.03,15.274c-0.036,1.798 0.314,3.48 1.012,5.271c0.604,1.551 1.68,2.911 2.257,4.46c1.484,3.988 0.185,3.836 -0.139,6.941c-0.228,2.188 0.587,3.771 1.952,5.434c1.292,1.573 2.324,2.054 3.102,4.013c1.117,2.812 0.437,6.343 0.37,9.323c-0.098,4.458 -0.994,9.748 -0.244,14.16c0.352,2.076 1.171,2.941 2.61,4.357c1.752,1.724 3.06,1.927 3.378,4.515c0.178,1.436 -0.262,3.021 -0.382,4.462c-0.23,2.739 -0.414,5.564 0.814,8.119c0.43,0.893 1.608,1.803 1.94,2.659c0.918,2.374 -0.158,1.814 -0.846,3.972c-2.148,6.724 6.161,9.389 6.448,15.869c0.158,3.556 0.222,4.901 1.621,8.124c2.731,6.296 2.26,12.155 -1.633,17.813c-0.527,0.766 -0.462,1.923 0,2.694c2.669,4.465 -0.379,13.93 -1.631,18.721c-1.22,4.661 -4.303,7.168 -6.305,11.288c-2.475,5.087 -4.022,9.545 -8.191,13.637c-2.979,2.926 -5.163,4.464 -7.245,7.699c-2.146,3.332 -5.395,3.623 -8.023,6.517c-2.18,2.4 -2.861,5.867 -5.049,8.183c-1.418,1.499 -3.28,2.049 -5.086,2.743c-0.334,0.056 -0.681,0.19 -1.03,0.428c-0.007,0.004 -0.014,0.01 -0.02,0.014c-1.02,0.46 -1.991,1.03 -2.802,1.95c-1.254,1.421 -1.942,3.428 -2.674,5.313c-2.055,3.021 -4.41,5.425 -8.056,3.999c-1.094,-0.428 -2.45,0.288 -3.012,1.225c-0.536,0.895 -0.798,1.487 -0.923,2.224c-0.156,0.231 -0.281,0.497 -0.367,0.815c-0.28,1.061 -0.694,1.912 -1.216,2.597c-1.402,1.379 -3.293,2.165 -5.312,1.603c-1.05,-0.294 -1.908,0.026 -2.488,0.626c-0.449,0.311 -0.805,0.744 -0.981,1.288c0.077,0.138 0.139,0.282 0.191,0.427c-0.052,0.444 0.002,0.891 0.16,1.304c-0.06,0.739 -0.358,1.467 -0.878,2.028c-0.601,0.643 -1.396,0.975 -2.252,1.092c-0.361,0.049 -0.72,0.076 -1.084,0.092c-0.173,0.008 -0.348,0.011 -0.521,0.027c-0.016,0.001 -0.015,0.001 -0.02,0.001c-1.692,-0.997 -4.601,0.428 -4.067,3.008c0.082,0.397 0.134,0.771 0.168,1.127c-0.026,1.058 -0.134,1.978 -0.33,2.749c-0.814,1.94 -2.904,2.663 -5.435,2.713c-0.153,-0.05 -0.303,-0.097 -0.463,-0.157c-0.609,-0.203 -1.208,-0.117 -1.733,0.125c-1.223,0.183 -2.219,1.44 -2.204,2.643c0.059,4.484 -2.856,6.164 -6.66,7.032c-1.455,-0.421 -3.02,0.075 -3.489,1.735c-1.184,4.19 -2.784,5.702 -7.026,5.878c-1.661,0.07 -2.672,-0.37 -4.226,0.491c-4.939,2.733 -2.806,11.299 -11.42,9.152c-1.788,-0.445 -3.234,0.833 -3.375,2.572c-0.445,5.42 -4.849,10.108 -10.387,10.577c-3.105,0.263 -6.048,-1.686 -8.996,-0.04c-2.376,1.326 -2.474,3.338 -3.502,5.7c-2.247,5.155 -8.226,8.431 -13.552,5.61c-1.843,-0.976 -3.902,0.252 -4.014,2.302c-0.386,7.12 -9.364,4.183 -12.721,3.226c-1.687,-0.483 -3.355,0.856 -3.375,2.57c-0.11,8.942 -13.077,10.266 -13.614,0.399c-0.132,-2.425 -2.766,-3.361 -4.552,-1.885c-5.415,4.478 -12.379,1.909 -14.206,-4.467c-0.573,-2 -2.978,-2.512 -4.457,-1.177c-3.964,3.572 -10.195,2.972 -13.285,-1.508c-0.922,-1.336 -2.96,-1.902 -4.188,-0.54c-4.011,4.442 -8.24,3.592 -12.944,0.956c-1.87,-1.047 -2.844,-1.692 -4.995,-1.462c-2.42,0.259 -4.461,1.888 -6.897,2.228c-4.758,0.663 -8.363,-2.004 -9.987,-5.824c-1.303,-2.017 -2.259,-4.262 -3.816,-6.074c-0.707,-0.178 -1.496,-0.258 -2.733,-0.483c-2.194,-0.4 -4.287,-1.116 -5.859,-2.804c-1.64,-1.761 -1.995,-3.88 -2.227,-6.175c-0.236,-2.329 0.107,-4.989 -0.496,-7.241c-0.408,-1.523 -1.246,-2.953 -2.174,-4.304c-0.1,-0.064 -0.186,-0.129 -0.288,-0.195c-1.528,-0.952 -3.334,-1.784 -4.231,-3.48c-0.913,-1.725 -0.491,-2.846 -0.421,-4.614c0.044,-1.102 0.905,-2.659 -0.006,-3.728c-0.429,-0.503 -1.988,-0.172 -2.566,-0.658c-1.279,-1.074 -2.083,-1.032 -2.548,-2.898c-0.267,-1.063 0.669,-2.494 0.308,-3.37c-0.272,-0.657 -1.854,-1.21 -2.296,-2.086c-0.834,-1.65 -0.578,-4.088 -0.664,-6.054c-2.147,-3.276 -3.056,-2.12 -6.458,-3.696c-2.746,-1.273 -4.757,-3.265 -5.414,-6.29c-0.395,-1.812 -0.187,-3.724 0.353,-5.535c0.277,-2.217 1.132,-4.252 2.936,-6.335c0.867,-1.002 1.583,-1.792 2.127,-2.561c0.369,-0.973 0.57,-2.196 0.512,-4.02c-0.012,-0.393 -0.051,-0.761 -0.096,-1.12c-1.071,-2.568 -1.192,-5.283 -0.407,-7.98c0.943,-3.24 5.545,-7.797 5.06,-11.061c-0.368,-2.468 -2.035,-0.43 -3.767,-2.118c-1.292,-1.258 -0.416,-2.644 -0.849,-4.044c-0.913,-2.954 -4.185,-2.985 -5.123,-5.953c-0.626,-1.981 -0.358,-4.511 -0.21,-6.883c-0.096,-0.192 -0.188,-0.382 -0.327,-0.602c-1.653,-2.61 -3.149,-3.151 -2.94,-6.6c-1.221,0.158 -2.663,-0.826 -2.289,-2.406c2.405,-10.15 -4.203,-17.048 -5.29,-26.717c-0.672,-5.984 1.759,-11.26 4.558,-16.328c-0.363,-0.608 -0.704,-1.228 -0.98,-1.867c-3.404,4.106 -5.98,8.906 -6.459,14.319c-0.56,6.325 2.263,12.636 4.087,18.56c0.984,3.199 2.877,7.124 2.761,10.655c0.125,0.174 0.239,0.361 0.304,0.6c0.052,0.192 0.069,0.398 0.053,0.608c0.192,0.369 0.276,0.812 0.17,1.317c-0.387,1.833 -1.164,4.04 -0.359,5.871c0.567,1.286 2.068,1.925 2.868,3.01c1.199,1.623 1.061,3.016 1.244,4.971c0.393,4.171 3.028,4.64 4.985,7.452c0.575,0.827 0.755,1.537 0.658,2.3c0.098,0.051 0.197,0.104 0.297,0.153c0.116,2.442 1.444,4.362 3.349,5.203c-3.638,6.397 -8.533,14.927 -5.348,20.765c-7.404,8.99 -4.384,21.799 6.126,26.706c0.001,1.736 0.461,3.185 1.745,4.985c0.317,0.445 0.707,0.737 1.123,0.923c-1.616,4.548 1.794,8.248 5.845,10.689c-3.849,6.173 0.124,13.607 7.119,14.833c-0.859,5.466 -0.931,11.22 2.782,15.696c2.388,2.879 5.644,4.443 9.13,4.363c1.116,8.659 8.87,15.34 18.142,13.265c2.955,-0.66 5.024,-1.613 8.082,-0.584c2.168,0.73 3.538,1.983 5.997,2.311c3.855,0.513 7.483,-0.627 10.424,-2.907c4.492,4.248 11.035,5.147 16.472,2.28c3.62,6.678 11.253,8.943 18.031,5.831c3.944,10.945 20.344,10.432 23.06,-1.34c6.304,1.179 13.466,0.533 15.758,-5.464c3.346,0.903 6.8,0.559 10.124,-1.123c2.164,-1.093 4.126,-2.68 5.626,-4.582c1.586,-2.014 2.093,-5.083 4.238,-6.051c2.114,-0.953 5.142,0.085 7.492,-0.357c2.564,-0.484 4.999,-1.598 7.074,-3.18c3.248,-2.472 5.236,-5.699 6.132,-9.452c2.501,0.145 4.938,-0.384 7.189,-1.843c1.108,-0.717 2.163,-1.676 2.972,-2.705c0.62,-0.787 1.445,-3.688 2.084,-4.191c1.117,-0.88 2.493,-0.944 3.927,-0.943c3.693,-1.34 5.378,-4.653 8.044,-7.321c0.849,-1.024 1.814,-1.84 2.845,-2.592c0.759,-0.719 1.608,-1.381 2.539,-2.017c0.872,-0.871 1.728,-1.76 2.492,-2.762c1.026,-1.345 1.964,-2.777 3.237,-3.909c2.932,-2.601 6.372,-3.551 9.161,-6.195c0.198,-0.292 0.391,-0.57 0.594,-0.874c0.526,-0.79 1.113,-1.443 1.737,-2.031c0,-0.027 0.003,-0.051 0.003,-0.077c0.034,-0.028 0.06,-0.059 0.096,-0.086c0.202,-0.14 0.385,-0.3 0.581,-0.449c0.361,-0.303 0.737,-0.589 1.117,-0.871c1.551,-1.305 2.992,-2.741 4.615,-3.965c0.313,-0.236 0.636,-0.441 0.961,-0.633c4.784,0.174 9.284,-3.096 11.126,-7.566c0.925,-0.282 1.76,-0.512 2.537,-0.782c1.524,-0.311 2.997,-1.003 4.428,-2.002c1.273,-0.889 2.469,-1.97 3.415,-3.205c1.522,-1.988 2.108,-4.753 3.962,-6.497c0.47,-0.295 0.958,-0.594 1.48,-0.918c3.659,-2.276 4.992,-4.793 7.224,-8.258c3.282,-5.094 9.031,-7.802 12.702,-12.616c4.07,-5.34 8.521,-10.644 11.937,-16.432c1.629,-2.763 2.661,-5.81 4.261,-8.566c1.591,-2.738 3.928,-4.936 5.59,-7.624c0.597,-0.968 1.057,-1.93 1.429,-2.892c0.283,-1.317 0.541,-2.686 0.811,-4.142c0.13,-0.71 0.273,-1.419 0.418,-2.128c0.162,-3.819 -0.454,-7.707 -0.39,-11.842c0.033,-2.21 0.633,-4.054 1.32,-6.133c0.749,-2.275 1.073,-4.156 1.162,-6.028" style="fill:#030404;fill-rule:nonzero;"/><path d="M319.624,474.623c0.189,0.368 0.265,0.772 0.248,1.153c1.439,-0.117 2.872,-0.366 4.317,-0.713c1.067,-0.256 1.643,-0.959 1.831,-1.765c-2.016,0.749 -4.143,1.213 -6.396,1.325" style="fill:#030404;fill-rule:nonzero;"/><path d="M347.504,431.094c-2.252,-0.426 -5.253,-3.317 -7.999,-2.212c-0.884,0.356 -1.501,0.863 -2.088,1.66c-0.525,0.714 -0.537,2.724 -0.964,3.071c-1.606,1.307 -3.326,0.459 -5.077,-0.352c-0.137,0.004 -0.279,-0.005 -0.427,-0.029c-1.924,-0.326 -5.297,3.365 -7.513,3.812c-2.387,0.481 -4.681,0.672 -6.953,1.057c-2.096,1.321 -3.02,2.103 -6.612,2.539c-4.458,0.54 -7.594,2.522 -12.282,0.76c-2.713,-1.019 -4.11,-3.111 -7.285,-2.707c-3.897,0.497 -8.82,1.596 -12.779,0.919c-1.798,-0.308 -3.098,-1.695 -4.909,-1.719c-2.463,-0.033 -3.923,3.127 -6.389,2.867c-0.167,-0.019 -0.318,-0.012 -0.467,-0.004c-0.112,-0.351 -0.173,-0.836 -0.157,-1.52c0.032,-1.374 -1.248,-2.758 -2.667,-2.667c-3.183,0.205 -5.821,5.552 -8.468,4.98c-0.98,-0.212 -1.789,0.087 -2.368,0.623c-0.705,0.382 -1.169,1.116 -1.021,2.214c0.866,6.507 -4.698,14.956 0.677,20.686c1.443,1.537 3.721,2.624 5.845,2.61c0.8,-0.005 1.655,-0.222 2.395,-0.47c0.1,-0.034 0.215,-0.078 0.335,-0.127c1.944,3.027 5.57,4.185 9.526,3.04c2.392,-0.692 4.655,-2.712 7.378,-2.059c1.038,0.25 2.178,1.544 3.169,1.959c1.487,0.624 2.821,0.431 4.117,0.145c1.563,-0.961 3.232,-1.626 5.206,-1.232c2,0.4 3.4,1.695 5.574,2.007c3.099,0.444 6.308,-0.643 9.346,-1.096c5.109,-0.761 9.589,1.171 14.654,1.053c1.75,-0.04 3.396,-0.378 4.954,-0.928c-0.436,-0.145 -0.931,-0.186 -1.484,-0.054c-4.682,1.125 -8.763,0.39 -12.895,-2.114c-1.843,-1.117 -2.569,-1.878 -4.716,-1.902c-3.597,-0.04 -7.197,3.258 -10.975,1.494c-1.033,-0.484 -1.477,-2.294 -2.93,-2.889c-0.843,-0.347 -1.751,-0.391 -2.651,-0.331c-0.873,0.459 -1.784,0.823 -2.753,0.998c-3.25,0.584 -6.256,-1.154 -9.487,-1.195c-3.203,-0.04 -6.713,2.175 -9.804,1.635c-1.995,-0.348 -2.797,-1.982 -4.671,-2.23c-4.28,-0.569 -7.346,1.907 -9.694,-3.446c-1.928,-4.392 -0.398,-10.202 0.67,-14.606c0.307,-1.262 1.458,-1.588 2.416,-1.276c0.528,-0.416 1.15,-0.793 1.904,-1.122c0.851,-0.371 1.827,-0.83 2.808,-1.014c0.271,-0.193 0.531,-0.385 0.824,-0.585c0.872,-0.597 2.162,-0.163 2.667,0.699c2.559,4.369 6.593,0.304 9.664,0.312c3.191,0.01 5.889,1.704 9.217,1.528c3.406,-0.18 6.387,-1.176 9.812,-0.798c3.036,0.338 5.91,1.37 8.895,1.956c5.916,1.167 8.807,-0.876 13.555,-3.53c2.85,-1.596 5.688,-1.827 8.822,-2.531c2.814,-0.632 5.242,-2.319 8.019,-2.904c2.441,-0.513 4.881,0.115 7.331,0.413c0.089,-0.058 0.172,-0.106 0.264,-0.169c0.848,-0.581 1.417,-1.547 2.421,-1.961c1.499,-0.619 2.839,0.185 4.239,-0.174c2.222,-0.569 3.678,-1.881 4.701,-3.532c0.095,-0.44 0.319,-0.842 0.62,-1.14c0.12,-0.254 0.239,-0.51 0.344,-0.773c-1.835,0.059 -3.388,0.707 -3.884,2.361" style="fill:#030404;fill-rule:nonzero;"/><path d="M362.266,466.518c-2.861,-2.804 -7.011,-4.615 -11.047,-3.739c-7.338,1.595 -10.408,11.387 -19.154,7.573c-0.104,-0.045 -0.204,-0.068 -0.306,-0.098c-1.192,0.832 -2.426,1.56 -3.705,2.178c-0.232,0.97 0.095,1.991 1.319,2.524c4.866,2.124 9.768,2.292 14.384,-0.645c3.072,-1.955 4.94,-5.129 8.717,-5.728c5.001,-0.793 8.836,4.053 10.337,8.733c-3.502,4.395 -6.145,8.211 -6.314,13.788c-1.875,0.436 -3.379,1.902 -4.472,4.159c-2.116,4.368 -1.435,8.676 -5.816,11.543c-2.475,1.62 -4.542,2.341 -6.559,4.728c-0.148,0.176 -0.305,0.372 -0.464,0.57c-0.171,-0.689 -0.404,-1.368 -0.744,-2.024c-1.061,-2.048 -4.319,-1.524 -4.873,0.636c-0.364,1.412 -1.91,7.836 -3.568,11.731c-0.178,0.16 -0.356,0.32 -0.528,0.496c0.006,-1.013 0.044,-1.968 0.002,-2.528c-0.196,-2.632 -3.48,-3.636 -4.968,-1.347c-1.49,2.292 -2.622,4.658 -3.37,7.29c-0.467,1.644 -0.76,3.328 -1.284,4.91c-0.624,1.171 -1.266,2.334 -1.911,3.495c-0.061,0.068 -0.109,0.144 -0.173,0.213c-0.406,0.428 -0.618,0.895 -0.699,1.36c0,0.002 -0.001,0.002 -0.001,0.003c-1.31,2.295 -3.046,6.835 -5.246,8.357c-2.478,1.715 -5.644,-0.568 -8.109,-0.828c-1.753,-0.185 -3.123,0.176 -4.772,0.678c-1.239,0.377 -4.427,2.76 -5.237,2.59c0.042,0.01 -2.183,-3.252 -2.212,-3.278c-1.403,-1.312 -2.978,-1.98 -4.654,-2.252c0.411,-2.29 0.412,-4.51 0.047,-6.882c7.008,-4.646 15.775,-9.525 15.44,-18.897c-0.036,-1.023 -0.644,-1.977 -1.54,-2.413c-0.748,-0.139 -1.489,-0.199 -2.225,-0.2c-1.456,0.101 -2.871,0.3 -4.299,0.424c-1.551,0.24 -3.119,0.494 -4.743,0.525c-1.453,0.028 -2.858,0.044 -4.24,0.095c-3.389,0.765 -6.98,1.561 -10.622,2.192c-0.224,0.074 -0.446,0.112 -0.656,0.108c-4.124,0.69 -8.299,1.154 -12.31,1.056c-0.292,0.325 -0.454,0.726 -0.51,1.154c0.441,0.018 0.878,0.042 1.342,0.024c1.064,-0.038 1.671,0.64 1.832,1.44c8.258,0.239 16.978,-1.936 24.94,-3.245c2.718,-0.447 7.064,-1.459 7.68,2.339c0.883,5.441 -9.02,9.264 -11.862,12.069c-1.063,1.048 -1.663,2.225 -2.016,3.48c0.481,1.631 1.009,3.227 0.83,5.089c-0.321,3.328 -1.262,4.11 1.343,6.786c0.02,0.02 0.036,0.038 0.055,0.06c3.225,0.65 4.38,5.838 8.476,5.513c2.124,-0.167 3.648,-1.572 5.586,-2.157c4.971,-1.496 5.364,0.202 9.552,0.686c0.902,0.104 1.759,0.031 2.582,-0.16c1.901,-1.208 3.305,-2.717 4.434,-4.421c2.838,-6.189 4.914,-12.676 6.706,-19.84c0.473,-1.896 1.249,-4.729 3.789,-4.493c0.877,0.082 1.385,1.097 2.077,1.265c0.926,0.224 1.716,0.107 2.414,-0.229c0.32,-0.583 0.636,-1.166 0.961,-1.742c0.125,-0.381 0.233,-0.744 0.372,-1.138c0.712,-2.043 1.555,-4.406 3.497,-5.583c0.872,-0.529 1.664,-0.521 2.624,-0.811c2.999,-0.906 5.907,-1.897 8.416,-4.114c3.091,-2.731 5.556,-6.275 7.934,-9.75c0.589,-1.373 1.26,-2.684 2.182,-3.596c0.722,-0.713 1.631,-1.268 2.599,-1.75c0.935,-1.235 1.684,-2.582 2.373,-3.967c0.236,-2.973 1.287,-5.665 3.36,-8.187c1.059,-1.286 2.812,-2.32 3.106,-4.086c0.624,-3.744 -3.624,-9.307 -6.099,-11.732" style="fill:#030404;fill-rule:nonzero;"/><path d="M249.388,514.884c-1.262,-0.63 -2.468,-1.378 -3.603,-2.272c-1.987,-0.896 -4,-1.036 -5.424,1.556c-0.515,0.936 -0.656,1.977 -0.617,3.025c-3.112,-2.996 -5.896,-6.313 -7.567,-10.341c-3.055,-7.363 -1.484,-15.35 0.025,-22.891c0.074,-0.361 0.068,-0.695 0.019,-1.007c-0.441,0 -0.893,-0.158 -1.299,-0.557c-0.029,-0.029 -0.05,-0.059 -0.078,-0.088c0.157,0.359 0.193,0.785 0.002,1.284c-1.2,3.143 -3.256,5.752 -4.184,9.019c-1.196,4.205 -0.836,8.365 0.094,12.577c1.934,8.761 6.906,14.169 13.414,19.216c3.943,-0.149 1.311,-4.92 2.934,-7.177c1.337,-1.862 3.532,-1.851 5.549,-1.45c0.447,0.09 0.873,0.198 1.301,0.304c-0.074,-0.424 -0.252,-0.837 -0.566,-1.198" style="fill:#030404;fill-rule:nonzero;"/><path d="M240.753,448.58c-0.015,0.04 -0.035,0.076 -0.047,0.118c0.01,0.028 0.022,0.05 0.03,0.08c0.128,0.51 0.233,1.022 0.326,1.532c2.318,3.816 3.566,8.298 -0.686,11.54c-2.539,1.936 -5.976,2.482 -8.678,4.194c-2.028,1.286 -3.513,2.694 -4.618,4.327c-1.866,3.485 -2.448,7.799 1.205,10.576c0.135,0.104 0.248,0.216 0.348,0.333c0.539,-0.093 1.101,0.023 1.544,0.288c-3.249,-4.077 -0.985,-8.9 2.968,-12.149c4.313,-3.545 10.644,-4.037 11.337,-11.02c0.383,-3.861 -0.35,-8.232 -3.729,-9.819" style="fill:#030404;fill-rule:nonzero;"/><path d="M479.129,373.74c-0.445,-0.921 -0.578,-1.893 -0.518,-2.892c-0.498,-2.536 -0.922,-5.097 -0.398,-7.577c0.158,-0.744 0.324,-1.448 0.49,-2.139c0.001,0 0.002,0.002 0.004,0.002c0.689,-2.852 1.332,-5.368 0.874,-8.668c-0.438,-3.159 -1.313,-6.456 -2.325,-9.48c-0.933,-2.791 -2.357,-5.106 -2.748,-8.04c-0.485,-3.647 0.531,-6.927 -0.495,-10.542c-1.016,-3.581 -2.537,-6.581 -3.621,-9.826c-0.019,-0.003 -0.037,-0.008 -0.057,-0.011c-0.218,1.152 -0.355,2.319 -0.392,3.495c-0.068,2.152 0.466,4.237 0.717,6.346c0.044,0.362 0.077,0.724 0.099,1.088c0.021,0.375 0.032,0.751 0.021,1.128c-0.031,1.215 -0.208,2.411 -0.401,3.606c-0.062,2.172 -0.318,4.358 0.173,6.482c0.684,2.963 2.323,4.91 3.428,7.658c0.251,0.621 0.464,1.281 0.663,1.954c-0.928,2.767 0.49,6.506 1.368,9.562c1.626,5.66 -2.448,10.588 -2.487,16.046c-2.803,0.195 -5.411,1.655 -7.268,4.087c-2.613,3.424 -2.701,7.707 -2.197,11.845c-3.418,-0.26 -6.636,0.487 -8.818,3.811c-2.752,4.195 -3.297,9.599 -2.745,14.64c0.359,0.493 0.505,1.161 0.351,1.723c-0.02,0.069 -0.067,0.116 -0.092,0.18c0.002,0.013 0.002,0.025 0.005,0.038c-0.011,0.003 -0.02,0.007 -0.029,0.011c-0.218,0.505 -0.607,0.844 -1.09,1.016c-0.104,0.091 -0.22,0.176 -0.357,0.252c-4.845,2.693 -2.16,8.765 -6.479,11.639c-1.508,1.004 -3.104,0.886 -4.837,0.738c-2.76,-0.237 -4.86,-0.389 -7.2,0.967c-0.728,0.659 -1.373,1.444 -1.887,2.363c-7.933,-4.13 -16.845,10.226 -16.173,19.481c-7.925,2.52 -11.304,17.425 -11.932,24.087c-0.111,1.162 0.296,4.542 -0.157,5.37c0.23,0.148 0.462,0.3 0.693,0.448c-0.501,-0.233 -1.023,-0.376 -1.564,-0.428c-1.707,0.656 -2.869,0.638 -4.277,1.988c-3.747,3.596 -5.72,10.186 -6.823,15.73c-2.051,-0.771 -4.223,-0.912 -6.292,-0.404c0.255,-3.142 -0.013,-6.27 -0.768,-9.482c7.836,-12.062 8.807,-30.278 -3.603,-39.602c-7.164,-5.384 -15.34,-9.663 -23.724,-12.803c-0.289,-0.107 -0.589,-0.205 -0.894,-0.299c-0.146,0.444 -0.304,0.887 -0.475,1.327c4.633,3.365 9.539,6.657 13.629,10.623c3.735,2.038 7.671,4.37 10.567,7.229c8.481,8.375 5.245,23.295 -0.825,31.9c-0.775,1.096 -0.536,2.168 0.152,2.905c1.045,4.4 0.942,8.368 -0.282,12.735c-0.7,2.499 2.63,4.589 4.458,2.595c2.173,-2.371 5.453,-2.983 8.122,-0.611c1.338,1.187 4.126,0.955 4.458,-1.177c0.7,-4.504 2.07,-14.831 6.722,-17.083c0.683,-0.329 2.26,0.419 3.262,-0.012c0.96,-0.413 1.554,-1.073 2.068,-1.909c1.97,-3.198 0.713,-9.027 1.43,-12.583c0.586,-2.908 4.148,-16.449 8.586,-15.623c1.758,0.328 4.116,-1.214 3.281,-3.28c-1.369,-3.385 -0.432,-6.13 0.908,-9.3c0.384,-0.908 1.588,-3.538 3.136,-5.368c0.775,-1.128 1.753,-2.044 3.017,-2.566c1.272,-0.526 2.692,-0.376 4.062,-0.422c0.046,-0.022 0.09,-0.049 0.14,-0.068c0.06,-0.024 0.113,-0.058 0.172,-0.084c1.417,-1.208 2.68,-2.594 4.44,-3.744c3.198,-2.089 7.6,-0.301 10.298,-2.952c0.927,-0.912 1.67,-1.841 2.351,-2.736c0.976,-3.208 2.923,-5.804 6.839,-6.201c1.736,-0.176 3.018,-1.56 2.572,-3.377c-1.363,-5.551 -1.916,-18.222 8.07,-15.907c2.107,0.488 3.631,-1.269 3.282,-3.28c-0.691,-3.968 -1.907,-15.845 6.31,-12.701c1.799,0.686 3.116,-0.834 3.26,-2.428c-0.053,-0.448 -0.117,-0.898 -0.193,-1.351c-0.02,-0.047 -0.032,-0.095 -0.055,-0.139" style="fill:#030404;fill-rule:nonzero;"/><path d="M259.836,13.808c-22.578,21.064 -30.904,51.332 -35.904,80.819c-5.925,34.942 -10.904,70.068 -16.317,105.093c1.401,-0.635 2.841,-1.312 4.313,-1.917c4.999,-32.408 9.83,-64.848 15.055,-97.219c4.908,-30.4 12.305,-62.139 35.681,-83.948c1.887,-1.76 -0.946,-4.583 -2.828,-2.828" style="fill:#21130d;fill-rule:nonzero;"/><path d="M575.25,260.028c-4.257,-15.803 -19.222,-26.227 -35.601,-24.301c-11.323,1.332 -19.672,7.74 -26.715,15.81c-3.201,4.334 -6.321,8.696 -8.848,13.523c-2.033,3.881 -3.813,7.971 -5.272,12.165c2.408,-3.516 5.163,-6.769 7.924,-10.133c3.532,-4.301 6.884,-8.517 10.644,-12.521c8.124,-9.127 17.962,-15.775 31.227,-13.33c24.972,4.602 23.528,32.13 23.036,51.71c-0.272,10.821 -0.789,21.638 -1.581,32.434c-0.439,5.971 -1.274,11.248 -3.647,16.799c-1.484,3.472 -1.897,6.496 -2.087,10.264c-0.51,10.064 -5.253,18.488 -11.097,26.456c-2.721,3.711 -5.496,7.853 -8.916,10.956c-5.273,4.784 -11.989,4.133 -18.541,3.435c-1.266,-0.135 -2.05,0.517 -2.371,1.404c2.909,11.218 3.385,22.792 3.524,34.35c0.013,0.004 0.027,0.004 0.041,0.007c1.535,-6.375 2.906,-12.545 3.252,-19.215c-0.182,-3.642 -0.458,-7.284 -0.673,-10.894c6.749,0.406 13.285,-0.331 18.539,-5.315c6.072,-5.76 11.573,-13.736 15.628,-20.995c1.804,-3.233 3.382,-6.674 4.433,-10.232c1.417,-4.801 0.789,-9.612 1.791,-14.405c0.874,-4.192 3.464,-7.812 4.328,-12.073c1.04,-5.135 1.146,-10.515 1.485,-15.726c0.701,-10.802 1.145,-21.621 1.336,-32.445c0.163,-9.2 0.579,-18.753 -1.839,-27.728" style="fill:#21130d;fill-rule:nonzero;"/><path d="M559.873,254.397c-1.243,-1.812 -2.85,-3.291 -4.638,-4.526c-2.806,-1.544 -5.633,-1.877 -8.646,-2.036c-1.987,0.066 -4.031,0.303 -6.111,0.68c-11.333,2.056 -18.729,10.478 -24.915,19.663c-5.708,8.473 -7.969,18.613 -5.473,28.629c2.572,10.318 19.161,24.118 12.476,34.718c-1.403,2.224 1.412,5.098 3.648,3.648c2.101,-1.364 4.368,-2.856 6.749,-3.732c1.972,-0.866 4.04,-1.499 6.204,-1.694c1.607,-0.145 2.991,0.111 4.327,0.543c-3.46,-2.756 -7.881,-4.163 -12.359,-3.732c-0.557,0.2 -1.113,0.417 -1.664,0.664c0.256,-3.847 -0.952,-7.74 -2.937,-11.411c-4.685,-8.665 -11.609,-15.505 -12.116,-25.914c-0.528,-10.858 5.431,-19.799 12.447,-27.552c5.588,-6.175 17.15,-11.726 25.565,-8.832c3.92,1.064 7.107,3.492 10.073,6.505c-0.736,-1.943 -1.448,-3.897 -2.63,-5.621" style="fill:#21130d;fill-rule:nonzero;"/><path d="M567.353,311.237c0.37,-1.612 0.694,-3.243 0.936,-4.9c0.524,-3.549 0.998,-7.152 1.25,-10.756c-0.052,-2.381 -0.22,-4.753 -0.603,-7.095c-0.549,-3.356 -1.443,-6.778 -2.685,-9.948c-0.282,-0.717 -1.026,-2.681 -1.942,-4.468c0.106,1.782 0.027,3.598 0.099,5.346c0.127,3.132 0.245,6.28 0.195,9.414c-0.028,1.859 -0.159,3.716 -0.34,5.571c-0.19,3.267 -0.588,6.539 -1.031,9.788c-0.735,5.396 -1.952,10.605 -4.581,15.077c-1.376,2.972 -3.058,5.752 -5.071,8.336c4.893,-2.504 8.956,-7.152 11.849,-11.958c0.682,-1.447 1.326,-2.915 1.924,-4.407" style="fill:#21130d;fill-rule:nonzero;"/><path d="M533.9,291.456c-0.697,-1.305 -2.301,-3.128 -4.053,-4.401c-1.039,-0.475 -2.146,-0.821 -3.336,-0.995c-4.202,-0.606 -8.128,1.052 -10.538,4.538c-1.957,2.83 2.664,5.5 4.604,2.692c0.986,-1.424 2.179,-2.044 3.438,-2.151c4.016,-1.196 8.497,2.956 11.588,6.549c-0.186,-2.149 -0.643,-4.245 -1.703,-6.232" style="fill:#21130d;fill-rule:nonzero;"/><path d="M559.226,286.865c-1.17,-4.192 -3.272,-8.124 -6.203,-11.23c0.525,4.578 1.413,8.689 3.651,12.889c1.02,1.915 1.924,3.823 2.712,5.781c0.584,-2.393 0.332,-4.934 -0.16,-7.44" style="fill:#21130d;fill-rule:nonzero;"/><path d="M214.94,325.056c-0.095,-0.201 -0.239,-0.392 -0.46,-0.547c-12.69,-8.866 -29.874,-16.472 -44.99,-10.04c0.099,-1.774 0.474,-3.468 1.092,-5.138c7.538,-1.467 15.195,-0.771 22.498,1.412c4.996,0.953 10.448,2.596 15.016,5.086c-0.55,-0.646 -1.1,-1.292 -1.676,-1.917c-0.987,-0.925 -1.991,-1.837 -3.076,-2.684c-1.04,-0.747 -2.164,-1.437 -3.314,-2.089c-0.532,-0.278 -1.068,-0.55 -1.608,-0.814c-9.281,-3.516 -19.225,-4.854 -29.033,-2.845c-0.131,-0.064 -0.263,-0.121 -0.397,-0.159c-0.091,-0.025 -0.176,-0.03 -0.264,-0.045c-0.115,-0.097 -0.231,-0.195 -0.372,-0.28c-3.948,-2.412 -5.491,-7.609 -6.536,-11.88c-1.352,-5.519 0.849,-10.439 0.493,-15.848c-0.239,-3.639 -3.069,-7.224 -4.345,-10.48c-1.796,-4.581 -2.796,-9.376 -3.235,-14.271c-0.303,-3.392 -5.64,-3.424 -5.333,0c0.484,5.388 1.481,10.619 3.425,15.69c0.848,2.212 2.349,4.398 3.04,6.622c1.405,4.528 0.056,7.884 -0.016,12.239c-0.125,7.601 2.585,17.543 9.159,22.081c-0.61,2.026 -0.9,4.128 -0.9,6.26c0,0.92 0.388,1.584 0.949,2.012c-0.057,0.943 0.908,1.938 1.959,1.3c14.024,-8.504 30.564,-2.058 43.236,6.154c-7.823,0.132 -11.943,7.674 -20.13,8.748c-3.588,0.47 -6.982,-0.17 -10.474,-1.044c-1.932,-0.484 -4.368,-1.88 -6.35,-1.607c-0.66,0.091 -1.14,0.197 -1.552,0.383c-0.669,0.177 -1.221,0.61 -1.484,1.281c-0.06,0.448 -0.122,0.889 -0.152,1.357c0.007,0.012 0.011,0.027 0.019,0.039c0.761,7.333 3.379,15.549 8.968,20.699c-11.556,16.421 -16.295,36.929 -13.213,56.797c3.746,24.173 20.741,43.832 34.39,63.236c1.96,2.787 6.586,0.125 4.606,-2.692c-12.538,-17.821 -28.539,-36.132 -33.13,-57.963c-4.228,-20.105 0.636,-41.232 12.69,-57.753c0.894,-1.225 0.492,-2.427 -0.41,-3.152c0.058,-0.661 -0.174,-1.353 -0.846,-1.945c-4.712,-4.156 -7.098,-11.218 -7.728,-17.283c2.896,0.544 6.936,1.992 7.832,2.131c2.44,0.376 4.928,0.554 7.385,0.234c8.276,-1.073 13.444,-10.45 22.021,-8.572c1.027,0.31 2.58,-0.008 2.808,-1.141c0.128,-0.636 -0.141,-1.153 -0.562,-1.572" style="fill:#21130d;fill-rule:nonzero;"/><path d="M179.547,333.786c0.922,0.259 1.849,0.523 2.778,0.777c-0.072,-0.188 -0.165,-0.376 -0.292,-0.568c-3.973,-5.996 -7.489,-13.321 -4.536,-20.546c0.076,-0.183 0.123,-0.358 0.158,-0.527c-0.974,0.139 -1.948,0.26 -2.907,0.501c-1.067,0.27 -2.063,0.634 -3.115,0.827c-1.689,6.456 0.454,13.156 3.664,18.936c1.434,-0.14 2.848,0.208 4.25,0.6" style="fill:#21130d;fill-rule:nonzero;"/><path d="M183.213,351.026c-0.876,-0.864 -1.886,-2.26 -3.081,-2.867c-0.164,-0.261 -0.339,-0.515 -0.476,-0.792c-0.425,-0.747 -1.577,-0.076 -1.152,0.673c0.1,0.176 0.212,0.323 0.316,0.49c-0.017,0.184 0.025,0.378 0.152,0.537c0.429,0.597 0.917,1.143 1.464,1.635c0.265,0.264 0.579,0.233 0.809,0.072c0.015,0.013 0.03,0.028 0.044,0.044c-0.704,0.206 -0.673,1.372 0.131,1.292c0.196,-0.018 1.271,1.356 1.331,1.488c0.504,1.089 -0.583,1.844 -1.146,2.476c-0.72,0.812 -1.204,1.738 -1.668,2.713c-0.213,0.453 0.095,0.865 0.46,0.979c-0.782,0.945 -1.549,1.901 -2.212,2.95c-0.461,0.727 0.692,1.395 1.151,0.672c1.579,-2.493 5.927,-5.818 5.949,-9.066c0.011,-1.53 -1.077,-2.316 -2.072,-3.296" style="fill:#21130d;fill-rule:nonzero;"/><path d="M168.358,315.956c-0.502,0.384 -1,0.769 -1.504,1.15c-0.484,0.367 -0.848,0.644 -1.111,0.084c0.033,-0.084 0.053,-0.18 0.037,-0.297c-0.07,-0.529 -0.126,-1.053 -0.16,-1.577c0.043,-0.576 0.136,-1.144 0.046,-1.73c0.045,-0.314 0.105,-0.63 0.204,-0.944c0.258,-0.82 -1.028,-1.17 -1.287,-0.354c-0.093,0.297 -0.147,0.596 -0.197,0.893c-0.044,0.08 -0.079,0.168 -0.091,0.268c-0.201,1.596 -0.452,3.717 0.657,5.073c1.172,1.434 3.146,-0.701 4.079,-1.414c0.672,-0.515 0.009,-1.674 -0.673,-1.152" style="fill:#21130d;fill-rule:nonzero;"/><path d="M205.437,346.944c-0.012,0.014 -0.014,0.029 -0.028,0.044c-1.5,1.61 -3.266,2.985 -5.297,3.862c-0.852,0.367 -2.364,0.618 -3.911,0.963c-1.041,0.279 -2.082,0.552 -3.092,0.955c-0.122,0.057 -0.238,0.117 -0.353,0.178c-0.027,0.022 -0.061,0.034 -0.084,0.058c-0.06,0.021 -0.111,0.058 -0.169,0.082c-0.723,0.435 -1.242,0.983 -1.387,1.704c0.007,0.411 0.201,0.792 0.677,0.987c0.922,0.373 2.327,-0.057 3.231,-0.305c0.021,-0.006 0.04,-0.015 0.06,-0.022c0.551,-0.104 1.101,-0.236 1.656,-0.44c2.259,-0.829 4.42,-2.189 6.247,-3.744c2.12,-1.805 3.306,-3.832 4.364,-6.017c-0.622,0.584 -1.274,1.132 -1.914,1.695" style="fill:#21130d;fill-rule:nonzero;"/><path d="M222.223,450.929c1.352,0.244 2.7,0.443 4.027,0.548c6.898,0.545 12.376,-1.301 17.89,-4.797c-15.358,4.757 -31.681,-0.287 -39.11,-15.338c-7.407,-15.004 -3.783,-29.188 1.733,-43.912c-2.971,4.258 -5.589,8.87 -7.317,13.659c-1.231,3.411 -1.878,6.973 -2.362,10.555c-0.078,0.586 -0.158,1.168 -0.234,1.749c-0.11,8.081 1.782,16.077 6.942,23.855c4.63,6.978 11.148,11.494 18.431,13.681" style="fill:#21130d;fill-rule:nonzero;"/><path d="M300.767,402.983c-1.85,-4.37 -4.413,-8.188 -7.949,-10.863c5.892,5.64 8.055,14.435 6.237,22.573c-2.309,10.339 -11.473,14.406 -21.31,14.592c-12.898,0.244 -25.643,1.124 -34.588,11.648c-1.658,1.951 1.158,4.795 2.829,2.828c7.971,-9.376 19.148,-10.301 30.667,-10.464c7.644,-0.109 15.4,-1.542 20.965,-7.254c2.797,-2.871 4.593,-6.37 5.509,-10.119c0.268,-4.436 -0.72,-9.068 -2.36,-12.941" style="fill:#21130d;fill-rule:nonzero;"/><path d="M374.266,437.192c-8.997,-4.804 -18.687,-8.544 -28.12,-12.398c-1.957,-0.799 -3.811,-1.66 -5.624,-2.552c-3.539,-1.462 -7.081,-2.999 -10.301,-4.994c-5.295,-3.282 -10.318,-7.264 -14.867,-11.684c3.008,4.407 6.44,8.45 10.536,12.088c1.888,1.678 3.86,3.259 5.883,4.776c0.18,0.108 0.352,0.227 0.532,0.331c7.446,4.315 15.822,7.009 23.684,10.435c8.586,3.744 19.628,7.118 25.338,14.982c6.216,8.56 5.766,19.51 1.215,28.663c-1.143,2.299 2.307,4.327 3.453,2.02c7.595,-15.279 3.871,-33.34 -11.729,-41.667" style="fill:#21130d;fill-rule:nonzero;"/><path d="M537.552,377.33c-0.929,-1.816 -1.498,-3.736 -1.804,-5.749c-0.161,-1.069 -1.506,-1.66 -2.46,-1.397c-1.144,0.313 -1.558,1.388 -1.397,2.458c0.356,2.359 1.123,4.586 2.207,6.707c1.174,2.292 4.626,0.271 3.454,-2.019" style="fill:#21130d;fill-rule:nonzero;"/><path d="M332.011,322.747c-12.106,1.953 -22.806,1.639 -34.079,-2.909c8.725,-12.031 20.484,-15.087 34.924,-14.214c6.167,0.372 11.315,2.408 17.096,4.288c3.901,1.27 7.869,2.256 11.873,3.091c-8.197,5.871 -20.132,8.181 -29.814,9.744m37.905,-10.939c-14.787,-2.394 -28.339,-9.312 -43.469,-8.94c-13.579,0.334 -23.278,4.914 -31.14,16.054c-0.088,0.122 -0.142,0.244 -0.18,0.365c-0.836,0.485 -1.184,1.737 -0.084,2.216c11.75,5.124 22.718,6.057 35.389,4.172c11.367,-1.692 24.923,-4.232 34.217,-11.468c0.219,-0.169 0.343,-0.36 0.408,-0.555c1.38,0.256 2.762,0.504 4.148,0.728c1.679,0.272 2.402,-2.297 0.711,-2.572" style="fill:#21130d;fill-rule:nonzero;"/><path d="M387.896,308.043c-7.856,-0.236 -14.9,-2.775 -22.635,-5.125c-8.61,-2.618 -17.433,-4.487 -26.36,-5.622c-11.808,-1.5 -23.421,-1.876 -34.532,0.808c-1.946,0.646 -3.848,1.446 -5.677,2.591c-2.752,1.721 -5.209,4.023 -7.201,6.655c16.716,-9.327 36.004,-8.224 54.348,-4.982c10.92,1.931 21.581,6.55 32.501,8.646c3.163,0.232 6.336,-0.066 9.453,-0.89c1.8,-0.474 3.334,-1.216 4.791,-2.062c-1.567,0.086 -3.129,0.07 -4.688,-0.019" style="fill:#21130d;fill-rule:nonzero;"/><path d="M334.254,342.759c-2.472,0.342 -4.987,0.481 -7.488,0.449c-3.372,0.3 -6.84,0.115 -10.177,-0.031c-2.27,-0.097 -4.362,-0.548 -6.359,-1.274c2.063,1.528 4.244,2.772 7.027,3.685c2.062,0.679 4.138,1.165 6.24,1.509c3.546,0.258 7.152,0.152 10.697,-0.318c4.873,-1.223 10.14,-3.527 13.551,-6.938c-4.372,1.45 -8.936,2.464 -13.491,2.918" style="fill:#21130d;fill-rule:nonzero;"/><path d="M333.912,466.355c-8.618,4.619 -17.683,8.171 -27.21,10.405c-9.95,2.332 -19.958,2.295 -30.034,3.528c-4.423,0.54 -8.524,1.54 -12.671,3.167c-5.053,1.983 -9.52,4.111 -15.033,2.315c-7.428,-2.423 -12.427,-7.674 -20.774,-6.03c-3.364,0.663 -1.94,5.806 1.418,5.143c9.332,-1.839 16.461,8.271 26.272,6.835c3.702,-0.54 7.04,-2.212 10.509,-3.512c5.416,-2.031 10.895,-2.763 16.66,-3.15c19.021,-1.274 36.616,-5.017 53.556,-14.097c3.025,-1.621 0.335,-6.228 -2.693,-4.604" style="fill:#21130d;fill-rule:nonzero;"/><path d="M279.682,515.471c-0.027,-0.065 -0.061,-0.125 -0.092,-0.188c-5.219,1.577 -11.465,1.528 -16.727,1.491c-4.03,-0.03 -7.717,-0.526 -11.469,-1.226c-0.975,-0.433 -2.339,-1.117 -3.189,-0.822c-0.667,0.23 -0.799,0.622 -0.646,1.062c-0.005,0.156 0.039,0.319 0.168,0.466c0.102,0.113 0.22,0.204 0.327,0.312c0.64,0.736 1.655,1.433 2.016,1.617c0.02,0.011 0.04,0.009 0.06,0.019c2.524,1.508 5.671,2.158 8.472,2.614c2.779,0.452 5.311,0.003 7.82,-0.729c1.403,-0.215 2.781,-0.512 4.115,-0.911c2.914,-0.872 6.657,-1.67 9.145,-3.705" style="fill:#21130d;fill-rule:nonzero;"/><path d="M205.181,320.46c-1.226,-0.78 -2.426,-1.594 -3.617,-2.42c-0.337,-0.14 -0.671,-0.282 -1.011,-0.417c-2.336,-0.696 -4.633,-1.621 -6.921,-2.551c-1.135,-0.405 -2.248,-0.818 -3.344,-1.24c-0.84,2.268 -1.32,4.711 -1.32,7.27c0,4.929 1.711,9.452 4.553,13.034c3.679,-1.869 6.995,-4.22 10.819,-5.822c0.216,-0.092 0.46,-0.163 0.697,-0.239c1.222,-0.725 2.55,-1.233 3.912,-1.385c1.324,-0.471 2.695,-0.826 4.138,-1.006c-2.544,-1.862 -5.238,-3.529 -7.906,-5.224Z" style="fill:none;stroke:#21130d;stroke-width:1.33px;stroke-linecap:butt;stroke-linejoin:miter;stroke-miterlimit:10;"/><path d="M364.199,311.403c-1.861,-0.276 -3.709,-0.691 -5.548,-1.185c-7.261,-1.69 -14.416,-3.927 -21.672,-5.754c-2.03,-0.23 -4.066,-0.38 -6.094,-0.41c-3.102,-0.046 -6.639,-0.527 -9.856,0.004c-0.299,0.097 -0.592,0.209 -0.888,0.316c-0.268,1.416 -0.423,2.873 -0.423,4.366c0,6.23 2.457,11.872 6.435,16.056c5.849,-0.697 11.78,-1.368 17.565,-2.561c6.921,-2.096 13.489,-5.029 19.607,-9.047c0.572,-0.485 1.137,-0.984 1.692,-1.501c-0.272,-0.095 -0.544,-0.189 -0.818,-0.284Z" style="fill:none;stroke:#21130d;stroke-width:1.33px;stroke-linecap:butt;stroke-linejoin:miter;stroke-miterlimit:10;"/><path d="M467.707,67.844c-0.117,-1.074 -0.834,-2 -2,-2c-0.989,0 -2.117,0.919 -2,2c0.214,1.946 0.426,3.891 0.639,5.836c0.116,1.075 0.835,2 2,2c0.991,0 2.117,-0.92 2,-2c-0.213,-1.945 -0.425,-3.89 -0.639,-5.836" style="fill:#21130d;fill-rule:nonzero;"/><path d="M469.943,84.694c-0.763,-2.45 -4.627,-1.404 -3.857,1.062c0.48,1.538 0.684,3.126 0.44,4.73c-0.164,1.066 0.269,2.15 1.396,2.458c0.945,0.262 2.297,-0.321 2.46,-1.396c0.354,-2.326 0.265,-4.594 -0.439,-6.854" style="fill:#21130d;fill-rule:nonzero;"/><path d="M471.137,101.16c-0.133,-2.561 -4.133,-2.577 -4,0c0.164,3.18 0.865,6.128 0.617,9.355c-0.197,2.567 3.804,2.553 4,0c0.248,-3.228 -0.453,-6.175 -0.617,-9.355" style="fill:#21130d;fill-rule:nonzero;"/><path d="M468.21,120.516c-0.081,2.667 -0.161,5.335 -0.243,8.003c-0.077,2.575 3.923,2.572 4,0c0.082,-2.668 0.162,-5.336 0.243,-8.003c0.077,-2.574 -3.923,-2.572 -4,0" style="fill:#21130d;fill-rule:nonzero;"/><path d="M470.655,141.354c0.104,-1.077 -0.992,-2 -2,-2c-1.166,0 -1.896,0.92 -2,2c-0.186,1.942 -0.245,3.883 -0.178,5.831c0.089,2.567 4.089,2.579 4,0c-0.067,-1.948 -0.008,-3.889 0.178,-5.831" style="fill:#21130d;fill-rule:nonzero;"/><path d="M465.666,157.687c-0.078,2.055 -0.152,4.109 -0.23,6.164c-0.094,2.575 3.906,2.571 4,0c0.078,-2.055 0.152,-4.109 0.23,-6.164c0.094,-2.575 -3.906,-2.571 -4,0" style="fill:#21130d;fill-rule:nonzero;"/><path d="M463.658,175.643c-0.575,2.593 -0.925,5.222 -1.052,7.874c-0.123,2.574 3.879,2.568 4,0c0.109,-2.304 0.411,-4.558 0.909,-6.81c0.556,-2.508 -3.3,-3.58 -3.857,-1.064" style="fill:#21130d;fill-rule:nonzero;"/><path d="M463.093,190.18c-1.19,-0.012 -1.868,0.932 -2,2c-0.287,2.332 -0.575,4.666 -0.862,6.998c-0.132,1.081 1.015,1.989 2,2c1.191,0.012 1.87,-0.934 2,-2c0.287,-2.332 0.575,-4.666 0.862,-6.998c0.134,-1.081 -1.015,-1.989 -2,-2" style="fill:#21130d;fill-rule:nonzero;"/><path d="M458.86,206.983c-0.816,2.46 -1.322,4.957 -1.62,7.529c-0.127,1.083 1.009,1.991 2,2c1.184,0.013 1.876,-0.931 2,-2c0.256,-2.204 0.778,-4.361 1.477,-6.465c0.811,-2.45 -3.051,-3.5 -3.857,-1.064" style="fill:#21130d;fill-rule:nonzero;"/><path d="M237.143,34.458c-0.944,-0.552 -2.178,-0.21 -2.736,0.719c-0.166,0.277 -0.333,0.555 -0.5,0.833c-0.556,0.926 -0.206,2.195 0.718,2.735c0.944,0.553 2.178,0.212 2.737,-0.717c0.167,-0.278 0.333,-0.555 0.5,-0.834c0.555,-0.925 0.205,-2.194 -0.719,-2.736" style="fill:#21130d;fill-rule:nonzero;"/><path d="M233.303,42.954c-0.975,-0.571 -2.141,-0.188 -2.736,0.717c-0.917,1.396 -1.624,2.914 -2.153,4.496c-0.343,1.024 0.394,2.186 1.396,2.46c1.092,0.3 2.116,-0.368 2.461,-1.396c0.423,-1.265 1.017,-2.426 1.749,-3.541c0.594,-0.903 0.18,-2.211 -0.717,-2.736" style="fill:#21130d;fill-rule:nonzero;"/><path d="M227.199,55.359c-1.189,0 -1.869,0.923 -2,2c-0.145,1.201 -0.656,2.305 -1.317,3.3c-0.599,0.9 -0.177,2.213 0.717,2.736c0.98,0.573 2.136,0.185 2.738,-0.717c1.074,-1.618 1.63,-3.404 1.862,-5.319c0.13,-1.073 -1.012,-2 -2,-2" style="fill:#21130d;fill-rule:nonzero;"/><path d="M221.933,70c-0.382,1.797 -0.86,3.562 -1.439,5.305c-0.812,2.449 3.049,3.5 3.857,1.064c0.579,-1.743 1.058,-3.509 1.439,-5.305c0.532,-2.511 -3.323,-3.584 -3.857,-1.064" style="fill:#21130d;fill-rule:nonzero;"/><path d="M221.47,82.917c-1.004,-0.276 -2.224,0.338 -2.46,1.396c-0.262,1.171 -0.522,2.342 -0.785,3.512c-0.235,1.054 0.32,2.164 1.397,2.46c1.004,0.276 2.224,-0.338 2.46,-1.397c0.262,-1.169 0.524,-2.34 0.784,-3.511c0.236,-1.053 -0.318,-2.164 -1.396,-2.46" style="fill:#21130d;fill-rule:nonzero;"/><path d="M218.309,95.585c-0.997,-0.226 -2.239,0.302 -2.46,1.398c-0.215,1.057 -0.429,2.114 -0.643,3.17c-0.206,1.023 0.295,2.21 1.398,2.46c0.996,0.228 2.237,-0.3 2.458,-1.396l0.643,-3.172c0.208,-1.021 -0.293,-2.209 -1.396,-2.46" style="fill:#21130d;fill-rule:nonzero;"/><path d="M215.793,108.186c-1.028,0.047 -2.069,0.882 -2,2c0.055,0.868 0.026,1.924 -0.094,2.634c-0.174,1.028 0.27,2.202 1.397,2.46c0.968,0.22 2.275,-0.294 2.46,-1.398c0.208,-1.229 0.316,-2.449 0.237,-3.696c-0.064,-1.042 -0.873,-2.05 -2,-2" style="fill:#21130d;fill-rule:nonzero;"/><path d="M213.991,119.089c-0.982,-0.223 -2.256,0.297 -2.46,1.397c-0.164,0.889 -0.33,1.779 -0.494,2.668c-0.189,1.025 0.282,2.207 1.398,2.46c0.98,0.224 2.256,-0.297 2.46,-1.397c0.164,-0.89 0.328,-1.779 0.493,-2.668c0.189,-1.026 -0.283,-2.207 -1.397,-2.46" style="fill:#21130d;fill-rule:nonzero;"/><path d="M212.868,130.595c-0.933,-0.256 -2.313,0.32 -2.46,1.397c-0.159,1.167 -0.319,2.335 -0.477,3.503c-0.146,1.069 0.257,2.148 1.397,2.46c0.932,0.256 2.313,-0.319 2.46,-1.396c0.159,-1.168 0.317,-2.336 0.476,-3.504c0.147,-1.069 -0.257,-2.147 -1.396,-2.46" style="fill:#21130d;fill-rule:nonzero;"/><path d="M211.899,144.679c0.092,-1.077 -0.985,-2 -2,-2c-1.16,0 -1.908,0.919 -2,2c-0.129,1.501 -0.156,3 -0.081,4.505c0.053,1.079 0.881,2 2,2c1.041,0 2.053,-0.916 2,-2c-0.075,-1.505 -0.048,-3.004 0.081,-4.505" style="fill:#21130d;fill-rule:nonzero;"/><path d="M206.986,157.186c-1.141,0.052 -1.927,0.88 -2,2c-0.035,0.547 -0.18,1.312 -0.4,1.83c-0.421,0.993 -0.297,2.142 0.717,2.736c0.84,0.49 2.312,0.281 2.738,-0.718c0.536,-1.265 0.857,-2.468 0.945,-3.848c0.068,-1.046 -0.968,-2.046 -2,-2" style="fill:#21130d;fill-rule:nonzero;"/><path d="M205.178,168.358c-1.184,0.053 -1.873,0.882 -2,2l-0.337,3c-0.118,1.042 1.004,2.044 2,2c1.184,-0.055 1.873,-0.883 2,-2l0.337,-3c0.117,-1.044 -1.003,-2.046 -2,-2" style="fill:#21130d;fill-rule:nonzero;"/><path d="M205.854,180.69c-0.041,-1.08 -0.889,-2 -2,-2c-1.052,0 -2.041,0.916 -2,2c0.045,1.166 0.089,2.33 0.135,3.495c0.041,1.08 0.889,2 2,2c1.05,0 2.041,-0.916 2,-2c-0.046,-1.165 -0.09,-2.329 -0.135,-3.495" style="fill:#21130d;fill-rule:nonzero;"/><path d="M203.802,189.25c-0.997,-0.227 -2.237,0.301 -2.46,1.397c-0.193,0.95 -0.288,1.904 -0.194,2.871c0.1,1.037 0.848,2.051 2,2c0.997,-0.045 2.108,-0.885 2,-2c-0.067,-0.697 -0.059,-1.267 0.05,-1.808c0.21,-1.021 -0.294,-2.209 -1.396,-2.46" style="fill:#21130d;fill-rule:nonzero;"/><path d="M534.78,241.772c2.202,-0.651 4.599,-1.11 6.834,-1.027c0.093,-0.039 0.197,-0.063 0.294,-0.099c-0.834,-0.254 -1.672,-0.504 -2.512,-0.744c-1.896,0.423 -4.122,1.084 -4.616,1.87" style="fill:#21130d;fill-rule:nonzero;"/><path d="M473.693,232.674c-0.129,0.233 -0.269,0.459 -0.424,0.673c-33.527,26.462 -72.945,47.874 -115.864,52.898c-23.444,2.742 -46.733,-0.32 -69.755,-4.848c-24.046,-4.73 -47.953,-10.24 -71.694,-16.311c-23.53,-6.016 -46.707,-13.303 -70.22,-19.349c-21.7,-5.579 -44.102,-9.408 -66.55,-7.03c-20.392,2.163 -41.378,8.604 -58.642,19.892c-8.188,5.354 -14.77,13.984 -14.54,22.526c-5.288,-17.014 11.694,-30.431 25.525,-35.818c15.811,-6.158 32.845,-9.774 49.165,-14.344c17.864,-5.001 35.708,-10.093 53.652,-14.808c35.647,-9.365 71.991,-17.182 108.966,-18.121c37.65,-0.956 74.984,6.052 112.05,11.723c20.952,3.204 41.904,6.409 62.855,9.614c10.039,1.536 20.077,3.071 30.117,4.607c5.238,0.801 10.476,1.603 15.715,2.404c1.215,0.185 2.617,0.265 3.967,0.44c1.145,-0.216 2.48,-0.033 3.482,0.176c1.116,0.233 1.868,0.684 2.33,1.321c0.258,0.131 0.482,0.354 0.606,0.694c0.52,1.429 0.111,2.629 -0.741,3.661m-305.868,-100.589c7.199,-23.738 16.917,-47.875 33.247,-66.874c14.977,-17.424 34.021,-32.684 53.97,-44.03c22.646,-12.879 46.732,-16.891 72.543,-15.767c14.067,0.612 28.061,2.244 42.109,3.113c7.008,0.432 14.027,0.675 21.05,0.522c1.748,-0.039 3.57,-0.147 5.404,-0.196c0.226,0.058 0.466,0.098 0.737,0.097c12.292,-0.095 21.985,5.019 30.611,12.947c18.805,18.988 25.034,52.118 25.752,76.849c0.582,20.076 -1.408,40.236 -3.496,60.181c-1.264,12.088 -2.979,24.118 -5.715,35.911c0.099,-0.149 0.253,-0.256 0.451,-0.284c-1.31,7.689 -2.479,15.397 -3.518,23.129c-1.193,-0.177 -2.38,-0.441 -3.494,-0.83c-0.012,0.033 -0.024,0.066 -0.036,0.098c-28.632,-4.38 -57.266,-8.76 -85.898,-13.138c-40.093,-6.135 -80.273,-13.214 -120.99,-10.528c-25.214,1.664 -50.059,6.197 -74.626,11.981c0.774,-24.815 4.69,-49.405 11.899,-73.181m364.72,110.424c-0.072,-0.212 -0.095,-0.44 -0.049,-0.688c0.226,-1.275 2.016,-2.156 3.938,-2.743c-18.352,-4.869 -37.937,-6.767 -56.434,-9.823c0.057,-1.22 -0.04,-2.414 -0.395,-3.364c-0.129,-0.344 -0.293,-0.644 -0.479,-0.914c-0.005,-0.026 -0.008,-0.048 -0.013,-0.072c-0.169,-0.815 -1.016,-1.734 -1.863,-1.863c-10.344,-1.583 -20.686,-3.165 -31.029,-4.747c1.268,-9.493 2.763,-18.949 4.46,-28.374c0.049,-0.271 0.049,-0.524 0.029,-0.768c2.124,-10.764 3.515,-21.69 4.622,-32.635c2.269,-22.424 4.5,-45.155 2.729,-67.695c-1.727,-21.985 -8.377,-48.776 -23.443,-66.817c-0.005,-0.028 -0.021,-0.056 -0.028,-0.084c-1.128,-1.277 -2.269,-2.545 -3.376,-3.837c-0.586,-0.538 -1.173,-1.072 -1.77,-1.586c-1.463,-1.384 -2.996,-2.689 -4.591,-3.914c1.105,0.281 2.177,0.578 3.161,0.89c6.407,2.022 12.8,6.722 16.898,11.931c3.694,4.696 6.746,9.703 9.204,14.964c0.985,1.748 1.81,3.557 2.554,5.429c2.128,5.343 5.026,10.584 8.112,15.57c-0.092,-1.423 -0.202,-2.843 -0.417,-4.248c-0.352,-2.306 -0.531,-4.975 -1.007,-7.504c-0.45,-1.558 -0.94,-3.108 -1.476,-4.644c-0.05,-0.102 -0.09,-0.211 -0.145,-0.308c-0.069,-0.126 -0.084,-0.244 -0.081,-0.359c-0.351,-0.981 -0.72,-1.955 -1.11,-2.923c15.012,7.374 29.646,15.835 41.928,27.286c14.4,13.422 23.523,30.528 28.936,49.316c5.655,19.625 8.138,40.2 10.134,60.469c1.95,19.812 2.86,39.701 2.873,59.604c1.879,0.16 3.652,0.675 5.336,1.505c0.035,-22.154 -1.055,-44.292 -3.413,-66.325c-2.19,-20.455 -4.799,-41.281 -11.083,-60.943c-5.763,-18.033 -15.108,-34.41 -29.011,-47.398c-13.964,-13.043 -30.845,-22.39 -48,-30.531c-0.368,-0.175 -0.729,-0.257 -1.077,-0.275c-2.789,-5.312 -6.195,-10.27 -10.281,-14.585c-4.332,-4.575 -9.931,-8.161 -15.764,-10.496c-5.77,-2.309 -13.479,-3.915 -19.695,-3.171c-0.052,0.006 -0.097,0.024 -0.148,0.032c-2.253,-0.742 -4.577,-1.321 -6.987,-1.7l-0.097,-0.03c-0.1,0.016 -0.209,0.014 -0.332,-0.03c-0.343,-0.122 -0.693,-0.209 -1.043,-0.29c-0.249,-0.015 -0.497,-0.024 -0.741,-0.062c-5.332,-0.606 -11.036,0.02 -16.281,0.007c-14.091,-0.035 -28.119,-1.515 -42.15,-2.639c-26.306,-2.105 -52.469,-2.234 -77.136,8.38c-22.88,9.844 -43.96,26.007 -61.469,43.587c-17.907,17.977 -29.169,39.937 -37.727,63.612c-10.42,28.827 -15.945,59.221 -16.765,89.841c-12.145,2.951 -24.225,6.179 -36.249,9.492c-20.132,5.55 -40.226,11.236 -60.335,16.867c-15.255,4.271 -32.889,7.872 -44.276,19.843c-10.152,10.672 -14.077,27.982 -3.127,39.576c10.831,11.466 26.668,11.196 41.25,8.736c11.95,-0.346 23.878,-1.587 35.646,-3.695c12.48,-2.236 24.78,-5.476 36.74,-9.687c13.063,-4.597 25.706,-10.757 39.703,-11.837c0.024,-0.001 0.045,-0.008 0.069,-0.011c-0.242,-1.042 -0.381,-2.106 -0.629,-3.156c-0.163,-0.69 -0.347,-1.372 -0.529,-2.052c-20.379,1.892 -39.124,12.523 -58.8,17.651c-13.439,3.504 -27.506,6.08 -41.596,7.159c-0.01,-0.018 -0.026,-0.031 -0.036,-0.047c-3.615,0.536 -7.275,0.844 -10.912,0.701c-0.255,0.008 -0.507,0.004 -0.756,-0.048c-0.343,-0.02 -0.684,-0.037 -1.024,-0.065c-0.015,0.003 -0.028,0.005 -0.042,0.007c-3.91,0.033 -7.809,-0.056 -11.681,-0.296c-11.413,-0.706 -29.276,-8.328 -20.859,-22.771c5.028,-8.631 16.238,-13.716 24.971,-17.661c19.969,-9.019 41.937,-12.982 63.796,-11.712c22.804,1.325 44.899,7.797 66.723,14.105c21.881,6.327 43.87,12.247 66.021,17.559c41.36,9.92 85.123,21.9 127.917,15.701c37.815,-5.477 72.579,-22.928 103.272,-45.26c0.011,-0.003 0.02,-0.009 0.03,-0.011c0.661,-0.582 1.365,-1.126 2.062,-1.63c1.074,-0.776 2.243,-1.679 3.418,-2.278c0.053,-0.028 0.102,-0.034 0.154,-0.053c2.09,-1.405 4.178,-2.797 5.754,-4.712c0.164,-0.155 0.332,-0.304 0.492,-0.463c0.426,-0.596 0.836,-1.201 1.168,-1.86c0.008,-0.062 0.024,-0.124 0.034,-0.185c17.007,2.795 34.92,4.629 51.942,8.711c0.526,-0.218 1.085,-0.439 1.681,-0.656" style="fill:#21130d;fill-rule:nonzero;"/><path d="M189.7,624.78c12.56,-16.786 25.558,-33.314 33.676,-52.819c1.303,-3.127 6.46,-1.747 5.144,1.419c-8.36,20.086 -21.567,37.031 -34.403,54.301c-1.481,-0.955 -2.954,-1.922 -4.417,-2.901Z" style="fill:#21130d;fill-rule:nonzero;"/><path d="M582.587,586.047c-3.95,3.944 -8.004,7.783 -12.16,11.511c-3.274,2.095 -6.577,4.122 -9.899,6.077c-22.262,13.1 -46.386,21.257 -71.402,27.324c-49.116,11.909 -102.378,16.469 -149.042,-6.658c-1.54,-0.762 -0.186,-3.062 1.346,-2.302c24.478,12.132 51.74,16.809 78.924,16.258c24.69,-0.501 49.118,-5.044 73.002,-11.093c23.062,-5.841 45.267,-13.715 65.826,-25.831c7.987,-4.707 15.811,-9.825 23.405,-15.286Zm57.675,-79.28c-2.571,-2.148 -5.248,-4.18 -8.036,-6.088c-2.439,-1.67 -5.251,-3.148 -7.132,-5.492c-2.906,-3.619 -2.199,-7.874 -5.827,-11.26c-2.975,-2.779 -6.681,-4.498 -9.544,-7.462c-2.524,-2.613 -4.599,-5.644 -6.492,-8.732c-3.353,-5.465 -5.561,-9.209 -12.733,-9.508c-4.671,-0.193 -9.298,0.007 -13.796,1.112c0.842,1.144 1.696,2.278 2.553,3.407c6.953,-4.996 15.507,-1.22 16.955,7.584c0.741,4.504 0.506,5.868 4.57,8.148c1.672,0.939 3.484,1.616 5.066,2.72c2.629,1.839 4.081,3.919 4.252,7.167c0.045,0.873 -0.528,1.913 -1.322,2.304c-10.314,5.078 -15.09,15.656 -21.557,24.542c-6.327,8.695 -13.917,16.331 -22.109,23.271c-17.418,14.76 -36.706,28.153 -56.166,40.053c-20.526,12.552 -42.273,21.292 -65.781,26.408c-11.961,2.602 -24.065,4.476 -36.164,6.306c-12.252,1.852 -24.393,3.65 -36.663,0.962c-3.357,-0.737 -1.928,-5.876 1.418,-5.144c13.989,3.067 28.39,-0.085 42.294,-2.258c11.68,-1.827 23.348,-3.839 34.835,-6.655c41.255,-10.115 78.327,-35.151 110.721,-61.991c7.988,-6.62 15.571,-13.842 21.856,-22.124c5.027,-6.625 8.908,-14.126 14.518,-20.306c0.28,-0.308 0.942,-0.87 1.776,-1.546c-13.499,-13.505 -25.23,-28.59 -35.672,-44.56c-5.327,-8.144 -10.326,-16.497 -15.114,-24.968c-4.684,-8.281 -9.18,-15.956 -10.493,-25.51c-0.464,-3.363 4.675,-4.803 5.141,-1.419c1.351,9.807 6.283,17.811 11.11,26.268c4.436,7.776 9.061,15.445 13.961,22.939c2.161,3.305 4.392,6.56 6.671,9.777c7.664,-2.452 19.569,-3.969 26.585,0.256c3.199,1.927 5.004,5.209 6.856,8.312c3.156,5.288 6.463,9.796 11.541,13.389c3.23,2.286 6.818,4.444 8.57,8.18c0.593,1.267 0.614,2.646 1.077,3.887c1.399,3.744 3.739,5.155 6.931,7.337c2.683,1.836 5.273,3.779 7.772,5.822c-0.796,1.632 -1.605,3.256 -2.428,4.872Zm-43.328,-24.299c1.13,0.665 7.101,2.741 7.246,4.197c0.022,0.236 -0.956,1.108 -2.25,2.171c-0.011,-0.011 -0.018,-0.024 -0.028,-0.036c-2.915,-2.901 -5.732,-5.884 -8.48,-8.927c1.036,1.02 2.26,1.858 3.512,2.595Zm-10.987,-14.604c3.383,-1.139 4.893,-0.28 4.528,2.577c0.508,1.563 0.059,3.099 0.421,4.63c0.247,1.044 0.486,1.996 1.026,2.934c0.214,0.372 0.478,0.699 0.741,1.027c-3.307,-3.697 -6.501,-7.493 -9.587,-11.373c0.956,0.068 1.914,0.136 2.871,0.205Z" style="fill:#21130d;fill-rule:nonzero;"/></g></svg>