<?xml version="1.0" encoding="UTF-8" standalone="no"?><!DOCTYPE svg PUBLIC "-//W3C//DTD SVG 1.1//EN" "http://www.w3.org/Graphics/SVG/1.1/DTD/svg11.dtd"><svg width="100%" height="100%" viewBox="0 0 255 206" version="1.1" xmlns="http://www.w3.org/2000/svg" xmlns:xlink="http://www.w3.org/1999/xlink" xml:space="preserve" xmlns:serif="http://www.serif.com/" style="fill-rule:evenodd;clip-rule:evenodd;stroke-linejoin:round;stroke-miterlimit:1.41421;"><g><path d="M179.675,155.373c-0.794,-0.6 -0.674,-2.613 1.986,-8.866c1.028,-2.443 3.412,-6.555 7.536,-10.494c0.477,1.625 0.756,3.169 0.756,4.625c-0.041,9.639 -6.429,13.235 -10.278,14.735m-33.967,8.353c-1.069,0.601 -2.062,0.985 -2.536,0.686c-0.357,-0.214 0.436,-1.028 0.436,-1.028c0,0 5.513,-6.382 7.695,-9.297c1.271,-1.713 2.741,-3.725 4.326,-5.954c0,0.216 0.041,0.43 0.041,0.685c-0.041,7.668 -6.866,12.852 -9.962,14.908m-44.042,-22.702c-2.539,6.722 -7.896,23.859 -11.148,22.957c-2.779,-0.77 -4.484,-13.833 -0.556,-26.685c1.983,-6.467 6.189,-14.179 8.69,-17.178c4.007,-4.839 8.409,-6.383 9.443,-4.455c1.388,2.527 -4.842,21.161 -6.429,25.361m-53.327,39.151c-7.302,8.611 -17.539,11.865 -21.944,9.124c-4.721,-2.955 -2.855,-15.635 6.151,-24.802c5.477,-5.568 12.539,-10.708 17.219,-13.881c1.072,-0.682 2.622,-1.71 4.526,-2.952c0.316,-0.217 0.477,-0.302 0.477,-0.302c0.357,-0.257 0.753,-0.471 1.148,-0.726c3.295,13.019 0.12,24.501 -7.577,33.539m170.341,-61.985c-8.89,0.044 -16.587,2.358 -23.013,5.785c-2.343,-5.096 -4.762,-9.551 -5.161,-12.896c-0.474,-3.896 -0.993,-6.209 -0.433,-10.837c0.553,-4.625 3.055,-11.18 3.014,-11.651c-0.041,-0.469 -0.554,-2.827 -5.674,-2.868c-5.117,-0.044 -9.522,1.069 -10.037,2.528c-0.519,1.455 -1.511,4.753 -2.106,8.18c-0.911,5.012 -10.237,22.916 -15.515,32.257c-1.742,-3.641 -3.21,-6.857 -3.529,-9.426c-0.477,-3.898 -0.993,-6.212 -0.436,-10.837c0.553,-4.627 3.055,-11.179 3.014,-11.651c-0.041,-0.472 -0.554,-2.829 -5.674,-2.87c-5.12,-0.041 -9.522,1.069 -10.037,2.527c-0.519,1.456 -1.072,4.883 -2.103,8.181c-1.034,3.298 -13.453,33.114 -16.707,40.867c-1.666,3.94 -3.093,7.109 -4.127,9.253c-1.031,2.141 -0.079,0.126 -0.158,0.383c-0.873,1.843 -1.388,2.871 -1.388,2.871l0,0.044c-0.677,1.37 -1.429,2.612 -1.784,2.612c-0.24,0 -0.756,-3.599 0.117,-8.523c1.866,-10.368 6.271,-26.475 6.23,-27.031c-0.041,-0.299 0.832,-3.084 -2.897,-4.584c-3.611,-1.415 -4.92,0.943 -5.237,0.943c-0.319,0 -0.556,0.856 -0.556,0.856c0,0 4.007,-18.163 -7.697,-18.163c-7.302,0 -17.46,8.652 -22.459,16.493c-3.134,1.842 -9.918,5.826 -17.061,10.067c-2.739,1.628 -5.557,3.298 -8.216,4.882c-0.196,-0.214 -0.354,-0.427 -0.554,-0.641c-14.205,-16.364 -40.433,-27.93 -39.32,-49.906c0.395,-8.011 2.975,-29.041 50.43,-54.572c38.884,-20.904 69.993,-15.163 75.35,-2.399c7.697,18.206 -16.625,52.088 -57.018,56.971c-15.394,1.842 -23.49,-4.584 -25.514,-6.98c-2.103,-2.528 -2.419,-2.656 -3.213,-2.185c-1.309,0.77 -0.477,2.996 0,4.326c1.189,3.383 6.151,9.382 14.601,12.381c7.422,2.612 25.473,4.068 47.296,-5.056c24.524,-10.195 43.609,-38.594 38.012,-62.368c-5.712,-24.161 -42.812,-32.087 -77.927,-18.634c-20.913,8.011 -43.527,20.602 -59.797,37.01c-19.322,19.533 -22.418,36.538 -21.147,43.65c4.522,25.23 36.74,41.678 49.636,53.845c-0.635,0.384 -1.23,0.727 -1.783,1.069c-6.47,3.471 -31.032,17.348 -37.18,31.999c-6.945,16.622 1.151,28.528 6.467,30.156c16.586,4.971 33.568,-3.983 42.695,-18.675c9.126,-14.694 8.013,-33.885 3.808,-42.622c-0.039,-0.128 -0.118,-0.213 -0.159,-0.342c1.667,-1.072 3.375,-2.141 5.079,-3.213c3.292,-2.1 6.508,-4.028 9.326,-5.697c-1.588,4.625 -2.739,10.196 -3.333,18.247c-0.715,9.423 2.896,21.633 7.577,26.431c2.065,2.097 4.563,2.141 6.113,2.141c5.474,0 7.934,-4.886 10.673,-10.708c3.374,-7.112 6.347,-15.38 6.347,-15.38c0,0 -3.729,22.359 6.47,22.359c3.728,0 7.46,-5.181 9.123,-7.837l0,0.044c0,0 0.082,-0.173 0.278,-0.516c0.399,-0.641 0.595,-1.028 0.595,-1.028l0,-0.126c1.508,-2.785 4.801,-9.168 9.762,-19.706c6.429,-13.622 12.58,-30.628 12.58,-30.628c0,0 0.553,4.154 2.46,11.051c1.107,4.071 3.45,8.526 5.316,12.852c-1.508,2.226 -2.419,3.512 -2.419,3.512c0,0 0,0.044 0.035,0.085c-1.189,1.714 -2.536,3.556 -3.925,5.354c-5.081,6.511 -11.109,13.965 -11.906,16.106c-0.952,2.528 -0.712,4.414 1.113,5.87c1.35,1.113 3.732,1.286 6.23,1.069c4.563,-0.34 7.776,-1.541 9.326,-2.311c2.457,-0.943 5.316,-2.443 8.013,-4.54c4.959,-3.942 7.976,-9.595 7.698,-17.049c-0.159,-4.112 -1.389,-8.225 -2.894,-12.079c0.433,-0.688 0.911,-1.415 1.347,-2.144c7.855,-12.378 13.924,-25.956 13.924,-25.956c0,0 0.56,4.153 2.463,11.051c0.949,3.47 2.815,7.281 4.523,11.007c-7.378,6.47 -11.944,13.965 -13.532,18.891c-2.935,9.124 -0.633,13.236 3.693,14.179c1.942,0.428 4.719,-0.556 6.784,-1.499c2.58,-0.944 5.676,-2.44 8.57,-4.754c4.959,-3.942 9.762,-9.466 9.446,-16.964c-0.12,-3.383 -0.993,-6.766 -2.144,-10.023c6.23,-2.827 14.325,-4.37 24.638,-3.084c22.102,2.785 26.428,17.69 25.596,23.903c-0.835,6.253 -5.477,9.68 -7.024,10.708c-1.546,1.028 -2.024,1.414 -1.904,2.185c0.197,1.113 0.911,1.072 2.223,0.814c1.825,-0.343 11.584,-5.055 12.021,-16.578c0.635,-14.565 -12.34,-30.584 -35.314,-30.458" style="fill:#ff74de;fill-rule:nonzero;"/></g></svg>