<?xml version="1.0" encoding="UTF-8" standalone="no"?><!DOCTYPE svg PUBLIC "-//W3C//DTD SVG 1.1//EN" "http://www.w3.org/Graphics/SVG/1.1/DTD/svg11.dtd"><svg width="100%" height="100%" viewBox="0 0 580 581" version="1.1" xmlns="http://www.w3.org/2000/svg" xmlns:xlink="http://www.w3.org/1999/xlink" xml:space="preserve" xmlns:serif="http://www.serif.com/" style="fill-rule:evenodd;clip-rule:evenodd;stroke-linejoin:round;stroke-miterlimit:1.41421;"><ellipse cx="290.013" cy="290.997" rx="280.643" ry="282.086" style="fill:#fff;"/><g><path d="M41.223,290.984c0,98.482 57.228,183.577 140.213,223.911l-118.675,-325.157c-13.804,30.941 -21.538,65.183 -21.538,101.246Z" style="fill:#0c759c;fill-rule:nonzero;"/><path d="M457.955,278.433c0,-30.747 -11.044,-52.04 -20.521,-68.613c-12.605,-20.493 -24.423,-37.848 -24.423,-58.341c0,-22.87 17.341,-44.158 41.77,-44.158c1.104,0 2.148,0.139 3.23,0.199c-44.27,-40.548 -103.238,-65.308 -168.006,-65.308c-86.916,0 -163.379,44.593 -207.865,112.138c5.84,0.175 11.345,0.291 16.009,0.291c26.022,0 66.308,-3.157 66.308,-3.157c13.411,-0.791 14.992,18.908 1.6,20.493c0,0 -13.484,1.586 -28.481,2.372l90.6,269.475l54.448,-163.288l-38.77,-106.192c-13.397,-0.787 -26.088,-2.372 -26.088,-2.372c-13.406,-0.786 -11.835,-21.284 1.572,-20.493c0,0 41.084,3.157 65.53,3.157c26.018,0 66.301,-3.157 66.301,-3.157c13.421,-0.791 14.997,18.907 1.596,20.493c0,0 -13.504,1.585 -28.473,2.372l89.906,267.436l24.807,-82.922c10.763,-34.413 18.95,-59.128 18.95,-80.425Z" style="fill:#0c759c;fill-rule:nonzero;"/><path d="M294.369,312.749l-74.643,216.894c22.287,6.561 45.855,10.143 70.278,10.143c28.972,0 56.755,-5.016 82.616,-14.105c-0.676,-1.062 -1.281,-2.194 -1.771,-3.424l-76.48,-209.508Z" style="fill:#0c759c;fill-rule:nonzero;"/><path d="M508.303,171.625c1.068,7.924 1.674,16.439 1.674,25.583c0,25.246 -4.715,53.626 -18.917,89.111l-75.99,219.712c73.962,-43.131 123.709,-123.26 123.709,-215.047c0.003,-43.247 -11.046,-83.92 -30.476,-119.359Z" style="fill:#0c759c;fill-rule:nonzero;"/><path d="M290.005,567.703c-152.57,0 -276.71,-124.137 -276.71,-276.719c0,-152.565 124.131,-276.691 276.71,-276.691c152.569,0 276.695,124.125 276.695,276.691c0,152.584 -124.13,276.719 -276.695,276.719Zm0,-566.714c-159.907,0 -290.005,130.094 -290.005,289.996c0,159.925 130.093,290.019 290.005,290.019c159.901,0 290.02,-130.09 290.02,-290.019c-0.005,-159.903 -130.119,-289.996 -290.02,-289.996Z" style="fill:#0c759c;fill-rule:nonzero;"/></g></svg>